<?xml version="1.0" standalone="no"?><!DOCTYPE svg PUBLIC "-//W3C//DTD SVG 1.1//EN" "http://www.w3.org/Graphics/SVG/1.1/DTD/svg11.dtd"><svg t="1576336121153" class="icon" viewBox="0 0 1024 1024" version="1.1" xmlns="http://www.w3.org/2000/svg" p-id="1861" xmlns:xlink="http://www.w3.org/1999/xlink" width="250" height="250"><defs><style type="text/css"></style></defs><path d="M381.272633 452.379111c125.872802 0 229.229798-100.800777 229.229798-224.629014 0-123.82312-102.849436-224.622874-229.229798-224.622873-126.383432 0-229.232868 99.775424-229.232868 223.60366 0 123.822097 102.849436 225.648227 229.232868 225.648227z m168.852686 64.98199c-44.004213-24.047696-94.66094-37.866423-148.387585-37.866422h-88.518033c-170.902368 0-310.588781 139.691529-310.588781 310.58878v120.245642h498.882238c-33.767058-48.099485-54.238298-106.432031-54.238298-169.878039 0.514723-89.541339 40.425711-169.364339 102.850459-223.089961z m0 0" fill="" p-id="1862"></path><path d="M995.282958 699.516768H969.69928c-11.770068 0-24.047696-9.207709-27.121708-19.953448l-14.32731-35.305087c-5.626137-10.237155-3.069919-25.071002 5.117555-33.260521l17.908881-17.907859c8.188496-8.188496 8.188496-21.491477 0-29.67895l-29.677926-29.678949c-8.18338-8.18338-21.490453-8.18338-29.673833 0l-17.913998 17.908882c-8.18338 8.188496-23.023366 10.232039-33.255405 5.117554l-35.305087-14.326287c-11.257391-3.581572-19.957541-15.863293-19.957541-27.121707v-25.073049c0-11.763928-9.721409-20.976754-20.977777-20.976754h-41.955554c-11.770068 0-20.982894 9.725502-20.982894 20.976754v25.073049c0 11.770068-9.207709 24.051789-19.953448 27.121707l-35.305087 14.326287c-10.232039 5.626137-25.072025 3.070942-33.260521-5.117554l-17.908882-17.908882c-8.187473-8.18338-21.490453-8.18338-29.677926 0l-29.673833 29.678949c-8.188496 8.187473-8.188496 21.490453 0 29.67895l17.908881 17.907859c8.182356 8.188496 10.232039 23.023366 5.113461 33.260521l-14.326286 35.305087c-3.582595 11.258415-15.860223 19.953448-27.116591 19.953448H492.306472c-11.770068 0-20.977777 9.212826-20.977777 20.977777v41.96067c0 11.764951 9.721409 20.977777 20.977777 20.977777h25.073049c11.764951 0 24.047696 9.207709 27.116591 19.952425l14.326286 35.305087c5.631254 10.237155 3.068895 25.583678-5.113461 33.260521l-17.908881 17.908882c-8.188496 8.188496-8.188496 21.490453 0 29.67895l29.673833 29.678949c8.187473 8.182356 21.490453 8.182356 29.677926 0l17.908882-17.908881c8.188496-8.188496 23.027459-10.233062 33.260521-5.119601l35.305087 14.32731c11.257391 3.581572 19.953448 15.863293 19.953448 27.121707v25.072025c0 11.764951 9.725502 20.977777 20.982894 20.977777h41.955554c11.769045 0 20.977777-9.725502 20.977777-20.977777v-23.540135c0-11.770068 9.211802-24.047696 19.957541-27.116591l35.305087-14.32731c10.232039-5.630231 25.071002-3.068895 33.255405 5.114484l17.913998 17.908882c8.18338 8.188496 21.490453 8.188496 29.673833 0l29.677926-29.673833c8.188496-8.187473 8.188496-21.490453 0-29.67895l-17.908881-17.908882c-8.187473-8.187473-10.232039-23.026436-5.117555-33.260521l14.32731-35.304064c3.581572-11.257391 15.863293-19.958564 27.121708-19.958564h25.072025c11.770068 0 20.977777-9.207709 20.977777-20.977777v-41.955554c0.508583-13.301957-8.704243-22.514783-20.469194-22.514783z m-147.362232 41.96067c0 58.326407-47.074132 105.401562-105.406679 105.401562-58.331523 0-105.406678-47.075155-105.406678-105.401562 0-58.332547 47.075155-105.406678 105.406678-105.406678 58.332547 0 105.406678 47.074132 105.406679 105.406678z m0 0" fill="" p-id="1863"></path></svg>