<?xml version="1.0" standalone="no"?><!DOCTYPE svg PUBLIC "-//W3C//DTD SVG 1.1//EN" "http://www.w3.org/Graphics/SVG/1.1/DTD/svg11.dtd"><svg t="1712642772728" class="icon" viewBox="0 0 1024 1024" version="1.1" xmlns="http://www.w3.org/2000/svg" p-id="11001" xmlns:xlink="http://www.w3.org/1999/xlink" width="200" height="200"><path d="M175.755636 0H832.698182c38.446545 0 57.669818 21.178182 57.669818 63.534545v766.603637c0 42.356364-19.223273 63.534545-57.716364 63.534545H175.802182c-38.446545 0-57.669818-21.178182-57.669818-63.534545V63.534545C118.085818 21.178182 137.309091 0 175.755636 0z" fill="#FFC646" p-id="11002"></path><path d="M214.621091 99.281455m24.808727 0l529.594182 0q24.808727 0 24.808727 24.808727l0 0.046545q0 24.808727-24.808727 24.808728l-529.594182 0q-24.808727 0-24.808727-24.808728l0-0.046545q0-24.808727 24.808727-24.808727Z" fill="#FFFFFF" p-id="11003"></path><path d="M214.621091 248.226909m24.808727 0l529.594182 0q24.808727 0 24.808727 24.808727l0 0.046546q0 24.808727-24.808727 24.808727l-529.594182 0q-24.808727 0-24.808727-24.808727l0-0.046546q0-24.808727 24.808727-24.808727Z" fill="#FFFFFF" p-id="11004"></path><path d="M145.547636 493.614545l358.679273 221.463273 358.725818-221.463273a49.664 49.664 0 0 1 75.729455 42.216728v407.505454c0 27.415273-22.248727 49.617455-49.664 49.617455H119.482182c-27.461818 0-49.664-22.202182-49.664-49.617455v-407.505454a49.664 49.664 0 0 1 75.729454-42.216728z" fill="#FF7B14" p-id="11005"></path><path d="M641.396364 819.2a132.328727 128.325818 90 1 0 256.651636 0 132.328727 128.325818 90 1 0-256.651636 0Z" fill="#FFFFFF" p-id="11006"></path><path d="M649.029818 819.2a124.136727 120.692364 90 1 0 241.384727 0 124.136727 120.692364 90 1 0-241.384727 0Z" fill="#FF0000" opacity=".664" p-id="11007"></path><path d="M683.613091 827.904a30.487273 30.487273 0 0 0-0.698182-7.586909c-0.465455-0.930909 0-1.117091 1.442909-0.698182l3.956364 2.094546c1.163636 0.698182 1.815273 1.396364 1.768727 1.954909 0 3.258182-0.139636 7.447273-0.651636 12.381091a34.164364 34.164364 0 0 1-3.723637 13.358545c-0.651636 0.651636-1.024 0.279273-0.930909-1.070545a328.797091 328.797091 0 0 1-1.163636-20.433455z m11.822545 39.703273a138.286545 138.286545 0 0 0-2.094545-24.203637c-0.232727-1.070545-0.372364-2.048-0.465455-3.072-0.093091-1.024 1.070545-1.210182 3.584-0.465454 2.606545 0.744727 3.537455 1.675636 2.792728 2.653091a40.494545 40.494545 0 0 0-0.744728 7.121454 23.133091 23.133091 0 0 0 1.117091 2.606546l12.939637 24.994909c1.675636 3.537455 3.258182 6.423273 4.421818 8.657454 0.558545 1.861818-0.512 2.792727-3.351273 2.699637-0.930909-0.232727-1.210182-0.791273-0.977454-1.629091a3.677091 3.677091 0 0 0-0.465455-2.606546l-11.962182-22.993454a6.888727 6.888727 0 0 0-1.629091-2.141091c0.093091 1.629091 0.139636 2.932364 0.093091 3.630545a13.963636 13.963636 0 0 0 1.582546 5.632 8.238545 8.238545 0 0 1-0.325819 6.283637c-0.977455 2.187636-2.327273 4.840727-4.096 7.68-1.163636 1.536-1.768727 1.163636-1.768727-1.396364 0.232727-3.537455 0.698182-7.959273 1.349818-13.451636z m16.384-11.589818c3.165091-3.444364 6.981818-7.400727 11.450182-11.822546a255.208727 255.208727 0 0 1-3.351273-6.423273 4.561455 4.561455 0 0 0-1.396363-1.629091c-6.050909 5.213091-10.24 9.960727-12.8 13.963637-0.186182 0.791273-1.396364 0.279273-3.723637-1.489455s-2.234182-2.792727 0.139637-3.304727c2.792727-3.630545 6.050909-7.540364 10.100363-11.822545a165.562182 165.562182 0 0 1-4.70109-8.09891 16.802909 16.802909 0 0 0-3.444364 4.282182c-0.465455 1.954909-1.954909 1.536-4.421818-1.117091-2.56-2.420364-2.792727-3.956364-0.837818-4.421818 0.372364-0.186182 2.187636-1.768727 5.445818-4.840727-5.818182-10.612364-8.285091-16.337455-7.773091-17.314909 0.512-0.512 2.048-0.465455 4.514909-0.139637 2.606545 0.512 3.630545 1.163636 3.258182 1.861819-0.744727 1.442909 0.558545 5.585455 3.956363 12.101818l2.466909-2.187637c2.699636-3.584 4.514909-4.421818 5.352728-2.466909a21.876364 21.876364 0 0 0 2.187636 4.561455c0.558545 1.024-0.605091 2.001455-3.444364 2.792727a34.117818 34.117818 0 0 0-3.537454 3.211637c1.908364 3.863273 3.490909 6.609455 4.421818 8.145454 2.327273-2.420364 4.794182-4.468364 7.261091-6.376727A14.987636 14.987636 0 0 0 727.04 819.525818c0.279273-0.372364 0.837818-0.093091 1.629091 0.698182 0.791273 0.884364 1.629091 1.396364 2.373818 1.442909 0.698182 0.139636 1.629091 1.303273 2.699636 3.258182 1.117091 2.141091 1.070545 3.118545-0.139636 2.792727a28.858182 28.858182 0 0 0-10.472727 4.654546c0.372364 1.582545 0.930909 3.258182 2.048 5.306181 0.465455 1.210182 1.024 2.327273 1.675636 3.444364l3.584-2.513454a12.893091 12.893091 0 0 0 3.677091-3.118546c0.139636-0.325818 0.651636-0.139636 1.396364 0.651636 0.791273 0.791273 1.396364 1.163636 2.001454 1.117091 0.465455 0.186182 1.256727 1.210182 2.234182 2.978909 0.930909 1.768727 0.930909 2.606545-0.093091 2.327273a26.065455 26.065455 0 0 0-9.774545 4.468364c4.794182 9.402182 10.100364 18.944 15.965091 28.765091 3.165091 4.747636 4.049455 7.168 2.56 6.888727a66.048 66.048 0 0 1-21.271273-5.911273c-1.675636-0.791273-1.629091-1.163636 0.139636-1.396363 2.699636 0.139636 5.399273 0.232727 8.052364 0 2.373818-0.977455 3.025455-2.653091 1.768727-4.980364l-10.891636-20.619636a59.950545 59.950545 0 0 0-7.68 7.819636c0.046545 0.093091 0.093091 0.186182 0.232727 0.232727a6.842182 6.842182 0 0 1 1.861818 1.629091c0.791273 0.930909 1.722182 1.582545 2.653091 2.048 0.744727 0.558545 1.536 1.117091 2.187637 1.489455 0.372364 0.372364 0.512 1.117091 0.465454 2.094545 0 0.977455-0.651636 1.582545-1.954909 1.536-1.256727 0.186182-2.187636 0.325818-2.978909 0.372364-0.744727 0.186182-1.349818 0-1.722182-0.744727a9.821091 9.821091 0 0 1-2.373818-4.933819 2.466909 2.466909 0 0 1-0.232727-1.163636l-0.884364 1.396364c-0.325818 0.884364-1.629091 0.279273-4.096-1.768728-2.606545-1.954909-2.513455-3.211636 0.139636-3.723636zM744.168727 776.890182c0.465455-0.977455 1.256727-0.791273 2.327273 0.465454 2.792727 2.653091 5.632 4.840727 8.564364 6.609455 1.396364 0.744727 2.141091 1.722182 2.234181 3.118545-0.046545 1.489455-0.605091 2.094545-1.489454 2.094546-0.698182-0.093091-1.908364 0-3.537455 0a7.074909 7.074909 0 0 1-4.747636-1.303273c-0.605091 0.093091-1.442909-1.489455-2.420364-4.654545-1.024-3.165091-1.396364-5.259636-0.930909-6.330182z m-1.861818 44.776727c-0.139636-4.421818 0-9.309091 0.325818-14.848 0.139636-0.418909 0.279273-0.605091 0.605091-0.558545 0.186182 0 0.372364 0.418909 0.512 0.791272 1.861818 6.656 3.816727 11.729455 5.771637 15.127273 1.722182 2.327273 1.954909 3.723636 0.791272 3.956364-1.256727 0.465455-2.885818 0.093091-5.213091-0.930909-2.327273-0.791273-3.304727-1.442909-3.118545-2.048 0.232727-0.465455 0.279273-0.930909 0.325818-1.489455z m29.277091 24.343273a101.469091 101.469091 0 0 1-17.501091-17.547637c-1.396364-1.396364-1.722182-2.187636-1.163636-2.792727a8.005818 8.005818 0 0 0 2.327272-2.653091 73.076364 73.076364 0 0 1 8.657455-8.750545l-4.561455-7.959273c-2.048-2.513455-1.722182-4.002909 1.210182-4.840727 2.699636-0.837818 4.049455-0.139636 3.863273 2.141091 0 0.605091 1.117091 2.839273 3.351273 7.028363 4.794182-4.468364 8.471273-6.609455 10.798545-6.702545 6.144-0.139636 9.309091 1.163636 9.634909 3.863273a43.287273 43.287273 0 0 0 2.280728 10.845091c1.210182 4.142545 2.606545 9.355636 4.002909 15.685818 0.465455 2.327273 0.558545 3.490909 0.139636 3.351272a19.921455 19.921455 0 0 1-6.050909-1.349818c-3.118545-1.163636-4.933818-1.163636-5.445818-0.046545-0.465455 0.372364-0.930909 0.744727-1.210182 1.117091 2.234182 4.514909 4.375273 8.843636 6.609454 13.032727 2.885818 6.050909 4.514909 9.216 4.887273 9.495273 1.675636 1.489455 1.582545 2.513455-0.512 3.025454-2.048 0.605091-3.025455 0.651636-2.839273-0.139636 0.093091-0.651636-0.651636-2.56-2.327272-5.818182a385.163636 385.163636 0 0 0-9.169455-16.290909 18.106182 18.106182 0 0 0-4.282182 6.469818c-0.605091 0.791273-1.536 0.465455-2.699636-1.163636z m7.633455-35.933091c-1.954909-0.930909-4.933818 0.558545-9.262546 4.561454h-0.046545l3.490909 6.609455 3.397818-2.978909c0.791273-0.651636 1.768727-0.093091 2.885818 1.908364 1.070545 1.954909 1.349818 3.118545 0.791273 3.304727a178.362182 178.362182 0 0 0-4.142546 3.258182l2.466909 4.654545c0.093091 0.465455 0.232727 0.744727 0.465455 0.977455 0.744727-0.884364 1.861818-1.722182 2.885818-2.606546 0.605091-1.070545 1.303273-0.837818 2.094546 0.325818a8.610909 8.610909 0 0 0 2.094545 2.466909c0.465455 0.325818 1.070545-0.139636 1.442909-1.768727a43.938909 43.938909 0 0 0-3.397818-11.403636c-2.280727-5.864727-4.002909-8.983273-5.166545-9.309091z m-18.059637 17.221818c2.141091 4.701091 5.492364 9.309091 9.914182 13.498182 0.651636 0.605091 1.954909-0.465455 3.909818-3.072 0.232727-0.325818 0.651636-0.791273 1.024-1.489455a108.264727 108.264727 0 0 1-3.490909-6.144 33.745455 33.745455 0 0 1-2.932364 2.653091c-0.279273 0.837818-1.070545 0.465455-2.373818-1.396363-1.396364-1.722182-1.582545-2.792727-0.744727-3.397819l3.211636-3.16509-0.465454-0.837819a102.260364 102.260364 0 0 1-3.118546-5.585454 17.547636 17.547636 0 0 0-3.723636 4.840727c-0.977455 1.954909-1.442909 3.397818-1.210182 4.096z m-8.238545-31.650909a37.562182 37.562182 0 0 1 10.612363-9.355636 15.266909 15.266909 0 0 1 6.935273-2.513455c1.396364 0 5.725091 2.792727 12.939636 8.285091 1.815273 1.210182 2.234182 2.048 1.489455 2.466909a18.804364 18.804364 0 0 0-2.792727 3.258182 18.618182 18.618182 0 0 1-6.097455 5.12c-1.908364 0.558545-2.327273 0.279273-1.303273-0.930909a12.288 12.288 0 0 0 2.280728-6.237091c0.372364-2.978909-0.884364-5.306182-3.816728-6.842182-2.094545-0.744727-4.235636-0.325818-6.283636 1.210182a52.456727 52.456727 0 0 0-4.840727 4.840727 44.544 44.544 0 0 1-6.423273 6.283637 21.178182 21.178182 0 0 0-5.771636 8.378181c-0.372364 0.837818-1.210182 0.465455-2.56-1.070545-1.396364-1.536-1.815273-2.373818-1.163637-2.746182 0.698182-0.837818 1.582545-1.861818 2.606546-3.630545 0.930909-1.582545 2.280727-3.723636 4.189091-6.516364zM819.525818 800.674909c3.258182 6.144 7.121455 13.312 11.636364 21.178182a36.677818 36.677818 0 0 0 3.630545 5.818182c0.930909 1.489455 0.930909 2.327273-0.186182 2.327272a19.176727 19.176727 0 0 1-11.403636-1.303272c-1.861818-0.930909-2.141091-1.396364-0.837818-1.582546 2.978909-1.117091 4.375273-2.234182 4.375273-3.397818-0.139636-1.722182-2.746182-7.261091-7.68-16.709818-0.139636 0.791273-0.139636 1.629091-0.232728 2.420364a188.555636 188.555636 0 0 0-1.536 16.290909c0.698182 1.908364 0.232727 2.56-1.442909 1.629091a58.647273 58.647273 0 0 1-4.608-2.187637c-1.396364-0.605091-1.861818-1.163636-1.489454-1.861818a31.371636 31.371636 0 0 0 2.932363-9.914182c0.651636-3.584 1.582545-7.912727 2.978909-12.8a78.475636 78.475636 0 0 1-3.816727-7.168c-0.465455 0.837818-1.070545 1.629091-1.582545 2.420364-2.141091 2.653091-3.165091 4.747636-3.118546 6.050909 0.093091 1.396364-1.163636 0.651636-4.002909-2.327273-2.932364-2.792727-3.956364-4.282182-3.211636-4.468363a77.265455 77.265455 0 0 0 8.052363-8.936728c-1.210182-2.234182-2.327273-4.375273-3.397818-6.656-4.608-8.657455-7.354182-13.870545-8.378182-15.592727-1.536-2.327273-0.930909-3.304727 1.629091-3.258182 2.606545 0.139636 3.956364 0.744727 3.956364 1.675637 0 1.256727 1.908364 6.283636 5.911273 15.034181 0.605091 1.722182 1.582545 3.723636 2.746182 5.818182 1.210182-1.861818 2.048-2.373818 2.513454-1.815273 0.465455 0.837818 1.024 1.861818 1.861818 2.932364 0.698182 1.303273 0.698182 2.513455 0.093091 3.584-0.465455 0.698182-0.744727 1.442909-1.070545 2.001455 0.930909 2.001455 1.861818 4.002909 3.165091 6.144l1.256727-3.630546c0.558545-1.024 0.930909-0.605091 1.024 1.024 0.093091 2.327273 0.232727 4.654545 0.232727 7.261091z m5.399273-5.585454a79.546182 79.546182 0 0 0-9.029818-14.336c-2.327273-1.861818-2.56-3.025455-0.884364-3.258182a6.842182 6.842182 0 0 0 3.770182-1.256728c0.698182-0.605091 1.489455 0.279273 2.327273 2.699637 0.186182 0.651636 0.465455 1.303273 0.698181 1.768727 0.418909 0.139636 0.977455-0.372364 1.908364-1.629091a13.637818 13.637818 0 0 0 1.163636-2.746182c0-1.303273 0.837818-0.651636 2.420364 1.722182 1.536 2.606545 2.048 3.909818 1.629091 4.002909a35.141818 35.141818 0 0 0-3.723636 6.283637c0.465455 1.070545 0.977455 2.234182 1.629091 3.304727 2.141091 4.375273 3.723636 7.074909 4.933818 8.378182 0.372364 0.418909 1.582545-1.070545 3.351272-4.887273 0.232727-1.210182 0.884364-0.605091 2.001455 1.815273 0.930909 2.327273 1.163636 4.002909 0.605091 4.887272a48.593455 48.593455 0 0 0-3.072 12.427637c0.139636 0.837818-0.558545 0.744727-2.001455-0.372364a21.085091 21.085091 0 0 0-3.537454-2.327273c-1.024-0.418909-1.256727-0.977455-0.791273-1.722181 1.396364-2.978909 0.279273-7.912727-3.397818-14.801455z m26.717091-17.92c5.957818 5.678545 11.822545 13.730909 17.687273 24.017454 0.279273 0.558545 0.698182 1.303273 1.303272 2.141091 0.465455 0.837818-0.279273 1.722182-2.327272 2.466909-2.885818 1.629091-4.980364 2.792727-6.423273 3.397818a19.269818 19.269818 0 0 0-4.328727 2.513455c-0.465455 0.465455-2.187636-0.093091-5.12-2.094546a30.068364 30.068364 0 0 1-6.795637-5.259636 55.854545 55.854545 0 0 1-8.331636-13.125818 229.282909 229.282909 0 0 1-9.588364-19.269818c-2.792727-5.818182-5.259636-10.938182-7.540363-15.453091-0.930909-1.163636-0.651636-1.675636 0.930909-1.582546 1.489455 0.186182 2.653091 0.046545 3.397818-0.139636 0.744727-0.139636 1.210182 0.465455 1.256727 1.768727 0.325818 2.792727 2.420364 8.238545 6.237091 16.011637 0.465455 1.163636 1.070545 2.327273 1.629091 3.397818a26.856727 26.856727 0 0 0 2.885818-11.682909c-0.093091-1.722182 0.930909-1.303273 3.258182 1.536 2.141091 2.792727 3.025455 4.189091 2.513454 4.514909-0.651636 0.465455-2.187636 4.980364-4.70109 13.358545 1.722182 3.490909 3.490909 6.842182 5.306181 9.960727 3.258182 6.237091 6.376727 9.355636 9.029819 9.402182 1.396364 0.465455 2.978909 0.093091 4.747636-0.884363 1.768727-0.930909 2.885818-1.768727 3.397818-2.606546 0.418909-1.396364-0.232727-4.561455-2.141091-9.402182a62.184727 62.184727 0 0 0-7.214545-12.613818c-1.117091-1.582545-0.744727-1.629091 0.930909-0.372363z" fill="#FFFFFF" p-id="11008"></path></svg>