<?xml version="1.0" standalone="no"?><!DOCTYPE svg PUBLIC "-//W3C//DTD SVG 1.1//EN" "http://www.w3.org/Graphics/SVG/1.1/DTD/svg11.dtd"><svg t="1662443855915" class="icon" viewBox="0 0 1024 1024" version="1.1" xmlns="http://www.w3.org/2000/svg" p-id="1439" xmlns:xlink="http://www.w3.org/1999/xlink" width="200" height="200"><path d="M934.497286 796.073833c-74.492942 0-103.400651-43.361564-103.400652-315.761129 0-213.472313-96.729642-346.892508-263.504886-366.905538V44.473398c0-24.460369-20.013029-44.473398-44.473398-44.473398s-44.473398 20.013029-44.473399 44.473398v66.710098C300.751357 125.637351 197.350706 261.281216 197.350706 479.200869c0 272.399566-32.243214 315.761129-107.847992 315.761129-23.348534 1.111835-44.473398 17.789359-44.473398 42.249728C45.029316 862.783931 65.042345 879.461455 89.502714 879.461455h289.077091c3.335505 33.355049 13.34202 74.492942 40.026058 103.400651 23.348534 25.572204 54.479913 40.026059 91.170467 40.026059 36.690554 0 67.821933-15.565689 91.170467-40.026059 27.795874-30.019544 38.914224-70.045603 43.361563-103.400651H934.497286c24.460369 0 44.473398-16.677524 44.473398-42.249729 0-24.460369-20.013029-41.137894-44.473398-41.137893zM536.460369 922.823018c-4.44734 4.44734-11.11835 11.11835-26.684039 11.11835-14.453855 0-21.124864-6.67101-25.572204-11.11835-7.782845-10.006515-13.34202-21.124864-15.56569-43.361563H556.473398c-4.44734 22.236699-10.006515 33.355049-20.013029 43.361563zM518.67101 790.514658H242.935939c41.137894-77.828447 41.137894-199.018458 41.137894-312.425624 0-181.229099 78.940282-276.846906 221.255157-276.846906h12.230185c142.314875 0 221.255157 95.617807 221.255157 276.846906 0 113.407166 0 234.597177 41.137894 312.425624H518.67101z m157.880564-394.701412c1.111835 21.124864-15.565689 40.026059-36.690553 41.137894h-2.22367c-20.013029 0-37.802389-15.565689-38.914224-36.690554-3.335505-50.032573-42.249729-67.821933-46.697068-70.045602-20.013029-8.89468-28.907709-31.131379-21.124865-51.144409 7.782845-20.013029 30.019544-28.907709 50.032574-21.124864 4.44734 2.22367 90.058632 37.802389 95.617806 137.867535z" p-id="1440"></path></svg>