<?xml version="1.0" standalone="no"?><!DOCTYPE svg PUBLIC "-//W3C//DTD SVG 1.1//EN" "http://www.w3.org/Graphics/SVG/1.1/DTD/svg11.dtd"><svg t="1634194078946" class="icon" viewBox="0 0 1024 1024" version="1.1" xmlns="http://www.w3.org/2000/svg" p-id="2345" xmlns:xlink="http://www.w3.org/1999/xlink" width="200" height="200"><defs><style type="text/css"></style></defs><path d="M896 723.2V300.8c38.4-19.2 64-64 64-108.8 0-70.4-57.6-128-128-128-44.8 0-83.2 19.2-108.8 57.6H300.8C275.2 83.2 236.8 64 192 64c-70.4 0-128 57.6-128 128 0 44.8 25.6 89.6 64 108.8v422.4c-38.4 19.2-64 64-64 108.8 0 70.4 57.6 128 128 128 44.8 0 89.6-25.6 108.8-64h422.4c19.2 38.4 64 64 108.8 64 70.4 0 128-57.6 128-128 0-44.8-25.6-89.6-64-108.8zM832 128c38.4 0 64 25.6 64 64s-25.6 64-64 64-64-25.6-64-64 25.6-64 64-64zM192 128c38.4 0 64 25.6 64 64s-25.6 64-64 64-64-25.6-64-64 25.6-64 64-64z m0 768c-38.4 0-64-25.6-64-64s25.6-64 64-64 64 25.6 64 64-25.6 64-64 64z m128-64c0-70.4-57.6-128-128-128V320c70.4 0 128-57.6 128-128v-6.4h384V192c0 70.4 57.6 128 128 128v384c-70.4 0-128 57.6-128 128H320z m512 64c-38.4 0-64-25.6-64-64s25.6-64 64-64 64 25.6 64 64-25.6 64-64 64z" p-id="2346"></path></svg>
