<?xml version="1.0" standalone="no"?><!DOCTYPE svg PUBLIC "-//W3C//DTD SVG 1.1//EN" "http://www.w3.org/Graphics/SVG/1.1/DTD/svg11.dtd"><svg t="1606809151039" class="icon" viewBox="0 0 1024 1024" version="1.1" xmlns="http://www.w3.org/2000/svg" p-id="9036" xmlns:xlink="http://www.w3.org/1999/xlink" width="128" height="128"><defs><style type="text/css"></style></defs><path d="M361.813333 484.693333c6.826667-10.24 13.653333-20.48 13.653334-34.133333 0-17.066667-6.826667-30.72-20.48-40.96s-34.133333-13.653333-58.026667-13.653333h-68.266667c-6.826667 0-13.653333 6.826667-13.653333 13.653333v204.8c0 6.826667 6.826667 13.653333 13.653333 13.653333h71.68c27.306667 0 47.786667-6.826667 61.44-17.066666 13.653333-13.653333 23.893333-30.72 23.893334-51.2 0-13.653333-3.413333-27.306667-13.653334-37.546667-10.24-10.24-23.893333-17.066667-37.546666-17.066667 6.826667-6.826667 17.066667-13.653333 27.306666-20.48z m-98.986666-51.2h20.48c27.306667 0 37.546667 10.24 37.546666 27.306667 0 10.24-3.413333 17.066667-10.24 23.893333s-17.066667 6.826667-27.306666 6.826667h-20.48v-58.026667z m68.266666 126.293334c0 10.24-3.413333 17.066667-10.24 23.893333-6.826667 6.826667-17.066667 10.24-30.72 10.24h-27.306666v-64.853333h27.306666c13.653333 0 23.893333 3.413333 30.72 6.826666s10.24 13.653333 10.24 23.893334zM471.04 628.053333h23.893333c6.826667 0 13.653333-6.826667 13.653334-13.653333v-163.84c0-6.826667 6.826667-13.653333 13.653333-13.653333h51.2v-40.96h-180.906667v40.96H443.733333c6.826667 0 13.653333 6.826667 13.653334 13.653333V614.4c0 6.826667 6.826667 13.653333 13.653333 13.653333zM651.946667 494.933333v-37.546666c3.413333 3.413333 6.826667 10.24 10.24 20.48l95.573333 143.36c3.413333 3.413333 6.826667 6.826667 10.24 6.826666h30.72c6.826667 0 13.653333-6.826667 13.653333-13.653333v-218.453333h-47.786666v163.84c0-3.413333-6.826667-10.24-10.24-17.066667l-92.16-139.946667c-3.413333-3.413333-6.826667-6.826667-10.24-6.826666h-34.133334c-6.826667 0-13.653333 6.826667-13.653333 13.653333v218.453333h47.786667v-133.12z" p-id="9037"></path><path d="M512 238.933333m-34.133333 0a34.133333 34.133333 0 1 0 68.266666 0 34.133333 34.133333 0 1 0-68.266666 0Z" p-id="9038"></path><path d="M955.733333 204.8h-307.2c-20.48 0-34.133333 13.653333-34.133333 34.133333s13.653333 34.133333 34.133333 34.133334h273.066667v477.866666H102.4V273.066667h273.066667c20.48 0 34.133333-13.653333 34.133333-34.133334s-13.653333-34.133333-34.133333-34.133333H68.266667c-20.48 0-34.133333 13.653333-34.133334 34.133333v546.133334c0 20.48 13.653333 34.133333 34.133334 34.133333h887.466666c20.48 0 34.133333-13.653333 34.133334-34.133333V238.933333c0-20.48-13.653333-34.133333-34.133334-34.133333z" p-id="9039"></path></svg>