<?xml version="1.0" standalone="no"?><!DOCTYPE svg PUBLIC "-//W3C//DTD SVG 1.1//EN" "http://www.w3.org/Graphics/SVG/1.1/DTD/svg11.dtd"><svg t="1586418758534" class="icon" viewBox="0 0 1026 1024" version="1.1" xmlns="http://www.w3.org/2000/svg" p-id="8680" xmlns:xlink="http://www.w3.org/1999/xlink" width="200.390625" height="200"><defs><style type="text/css"></style></defs><path d="M533.01342 0.015975h-336.323199a187.380068 187.380068 0 0 0-138.132742 58.135868A187.380068 187.380068 0 0 0 0.421612 195.804123v336.323199a48.046171 48.046171 0 1 0 95.251534 0V210.33809a123.238429 123.238429 0 0 1 30.389204-84.0808 123.238429 123.238429 0 0 1 84.681376-30.389203h322.269694a48.046171 48.046171 0 1 0 0-95.251535z"   p-id="8681"></path><path d="M373.860478 538.73367l-2.402309 2.282194a46.124324 46.124324 0 0 0-1.201154 66.423831L518.959915 756.743172a46.124324 46.124324 0 0 0 65.222677 0l410.194187-410.794764a46.124324 46.124324 0 0 0 0-65.222677 46.124324 46.124324 0 0 0-65.102562 0L584.182592 621.373085a46.124324 46.124324 0 0 1-65.102562 0L437.882001 540.535402a46.24444 46.24444 0 0 0-64.021523-1.801732zM868.856157 928.868581H337.945965a72.069257 72.069257 0 0 1-72.069257-72.069257V320.483938a57.174944 57.174944 0 0 1 57.174944-57.174944h371.156673a48.046171 48.046171 0 0 0 48.046171-48.046171 48.046171 48.046171 0 0 0-48.046171-48.046172H266.35717a95.37165 95.37165 0 0 0-95.131419 95.131419v666.520511a95.37165 95.37165 0 0 0 95.131419 95.131419h665.559587a95.37165 95.37165 0 0 0 95.011303-95.131419V596.02873a48.046171 48.046171 0 0 0-47.445594-47.445594 48.046171 48.046171 0 0 0-48.046171 47.445594v269.779251a63.0606 63.0606 0 0 1-62.580138 63.0606z"   p-id="8682"></path></svg>
