<?xml version="1.0" standalone="no"?><!DOCTYPE svg PUBLIC "-//W3C//DTD SVG 1.1//EN" "http://www.w3.org/Graphics/SVG/1.1/DTD/svg11.dtd"><svg t="1747912194768" class="icon" viewBox="0 0 1024 1024" version="1.1" xmlns="http://www.w3.org/2000/svg" p-id="10384" xmlns:xlink="http://www.w3.org/1999/xlink" width="200" height="200"><path d="M472.1 523.9c19.9 19.8 52.3 19.8 72 0 19.8-19.7 19.8-51.8 0-71.6L281.2 190.9c-19.6-19.7-52.1-19.7-72 0-19.7 19.8-19.7 52 0 71.7l262.9 261.3z m429.3-75H580.3c16.9 31 12.3 70.7-14.1 97-32.1 31.9-84.2 31.9-116.2 0l-97.5-97H122.6c-32.2 0-58.6 26.3-58.6 58.3 0 32 26.4 58.3 58.6 58.3h14.1L272 960h488l135.3-394.4h6.1c32.3 0 58.6-26.3 58.6-58.3 0-32.1-26.3-58.4-58.6-58.4zM687.2 899.7h-344c-16.5 0-30.1-13.5-30.1-29.9 0-16.5 13.6-30 30.1-30h344c16.5 0 30 13.6 30 30 0 16.5-13.6 29.9-30 29.9z m36-116.8H310.1c-16.6 0-29.9-13.4-29.9-29.8 0-16.6 13.4-30.1 29.9-30.1h413.1c16.6 0 30.1 13.6 30.1 30.1 0 16.4-13.5 29.8-30.1 29.8z m27.1-120.7H277.1c-16.6 0-30.1-13.5-30.1-29.9 0-16.5 13.5-29.9 30.1-29.9h473.2c16.6 0 30 13.5 30 29.9 0 16.5-13.5 29.9-30 29.9z m55-427.5h-85.8V64H547.7v170.7h-85.8l171.6 170.7 171.8-170.7z"  p-id="10385"></path></svg>
