<?xml version="1.0" standalone="no"?><!DOCTYPE svg PUBLIC "-//W3C//DTD SVG 1.1//EN" "http://www.w3.org/Graphics/SVG/1.1/DTD/svg11.dtd"><svg t="1747963804915" class="icon" viewBox="0 0 1024 1024" version="1.1" xmlns="http://www.w3.org/2000/svg" p-id="2485" width="200" height="200" xmlns:xlink="http://www.w3.org/1999/xlink"><path d="M600.957766 264.693264H253.237858a35.481623 35.481623 0 0 0 0 70.963246h347.719908a35.481623 35.481623 0 0 0 0-70.963246zM253.237858 451.681418a35.481623 35.481623 0 0 0 0 70.963246h166.763629a35.481623 35.481623 0 0 0 0-70.963246z" p-id="2486" ></path><path d="M905.035276 239.856128L685.404029 29.450102A106.44487 106.44487 0 0 0 611.602253 0.000355H146.792989a106.44487 106.44487 0 0 0-106.44487 106.444869v809.335825a106.44487 106.44487 0 0 0 106.44487 106.44487h342.397664a35.481623 35.481623 0 1 0 0-70.963247H146.792989a35.481623 35.481623 0 0 1-35.481623-35.481623V106.445224a35.481623 35.481623 0 0 1 35.481623-35.481623h464.809264a35.481623 35.481623 0 0 1 24.837136 9.934855L856.425453 290.949665a35.481623 35.481623 0 0 1 10.999303 25.901585v183.794808a35.481623 35.481623 0 0 0 70.963246 0V316.85125a106.44487 106.44487 0 0 0-33.352726-76.995122z" p-id="2487" ></path><path d="M975.28889 634.056961a35.481623 35.481623 0 0 0-28.385298-14.192649h-316.496079l-5.67706-26.966034a35.481623 35.481623 0 0 0-35.481623-28.385298h-46.12611a35.481623 35.481623 0 0 0 0 70.963246h17.385995l50.383905 241.98467a35.481623 35.481623 0 0 0 35.481623 28.030483h241.98467a35.481623 35.481623 0 0 0 35.481624-25.901585l58.899494-214.663821a35.481623 35.481623 0 0 0-7.451141-30.869012z m-114.250826 200.471171h-185.923706l-29.804563-143.700574h255.11287z" p-id="2488"></path><path d="M661.986157 981.067236m-42.932764 0a42.932764 42.932764 0 1 0 85.865528 0 42.932764 42.932764 0 1 0-85.865528 0Z" p-id="2489"></path><path d="M868.134388 981.067236m-42.932764 0a42.932764 42.932764 0 1 0 85.865528 0 42.932764 42.932764 0 1 0-85.865528 0Z" p-id="2490"></path></svg>
