<?xml version="1.0" standalone="no"?><!DOCTYPE svg PUBLIC "-//W3C//DTD SVG 1.1//EN" "http://www.w3.org/Graphics/SVG/1.1/DTD/svg11.dtd"><svg t="1747963723731" class="icon" viewBox="0 0 1024 1024" version="1.1" xmlns="http://www.w3.org/2000/svg" p-id="3205" xmlns:xlink="http://www.w3.org/1999/xlink" width="200" height="200"><path d="M319.1 813.7c-35.3 0-64 28.7-64 64s28.7 64 64 64 64-28.7 64-64-28.6-64-64-64zM736.1 813.7c-35.3 0-64 28.7-64 64s28.7 64 64 64 64-28.7 64-64-28.6-64-64-64zM798.9 781.8H268.1c-23 0-42-17.8-43.9-40.4l-104.6-594c-2.4-1.2-9.3-3.5-24.2-3.4h-0.3c-17.5 0-31.8-14.1-32-31.7C62.9 94.7 77 80.2 94.7 80h2.1c25.4 0 45 4.9 59.8 15 13.4 9.1 22.1 22.1 25.3 37.5 0.1 0.3 0.1 0.6 0.2 0.9l103 584.4h513.8c17.7 0 32 14.3 32 32s-14.3 32-32 32z" p-id="3206"></path><path d="M820.5 673H268c-17.7 0-32-14.3-32-32s14.3-32 32-32h535.4L888 257.7H197.3c-17.7 0-32-14.3-32-32s14.3-32 32-32h719.6c23.1 0 41.9 17.8 41.9 39.8 0 2.5-0.3 5-0.9 7.5L862 638.6c-2.8 19.4-20.3 34.4-41.5 34.4z m-22.1-39.9c0 0.1 0 0.1 0 0 0 0.1 0 0.1 0 0z m118.4-375.4z" p-id="3207"></path></svg>
