<?xml version="1.0" standalone="no"?><!DOCTYPE svg PUBLIC "-//W3C//DTD SVG 1.1//EN" "http://www.w3.org/Graphics/SVG/1.1/DTD/svg11.dtd"><svg t="1747963245166" class="icon" viewBox="0 0 1157 1024" version="1.1" xmlns="http://www.w3.org/2000/svg" p-id="1522" xmlns:xlink="http://www.w3.org/1999/xlink" width="225.9765625" height="200"><path d="M549.219625 377.72001c-17.097354 0-31.038274 13.94092-31.038274 31.038274 0 17.097354 13.94092 31.038274 31.038274 31.038274h65.232982v33.4056h-65.232982c-17.097354 0-30.775238 13.94092-31.038274 31.038274 0 17.097354 13.677883 31.038274 31.038274 31.038273h65.232982v67.600309c0 17.097354 13.94092 31.038274 31.038274 31.038273 17.097354 0 31.038274-13.94092 31.038274-31.038273v-67.600309h64.969946c17.097354 0 30.775238-13.94092 31.038274-31.038273 0-17.097354-13.677883-31.038274-31.038274-31.038274h-64.969946v-33.4056h64.969946c17.097354 0 30.775238-13.94092 31.038274-31.038274 0-17.097354-13.677883-31.038274-31.038274-31.038274h-39.455433l57.867968-58.131004c12.099666-12.099666 12.099666-31.827382 0-43.927049s-31.827382-12.099666-43.927048 0l-71.019779 71.019779-71.019779-71.019779c-12.099666-12.099666-31.827382-12.099666-43.927049 0s-12.099666 31.827382 0 43.927049l58.131004 58.131004h-39.455432zM298.283072 801.471359c-61.550475 0-111.264321 49.713845-111.26432 111.26432s49.713845 111.264321 111.26432 111.264321c61.287439 0 111.264321-49.713845 111.264321-111.264321 0-61.287439-49.713845-111.264321-111.264321-111.26432z m0 160.452093c-27.092731 0-49.187773-22.095042-49.187773-49.187773s22.095042-49.187773 49.187773-49.187773c27.092731 0 49.187773 22.095042 49.187773 49.187773 0 27.092731-22.095042 49.187773-49.187773 49.187773zM992.961726 801.471359c-61.287439 0-111.264321 49.713845-111.26432 111.26432s49.713845 111.264321 111.26432 111.264321c61.287439 0 111.264321-49.713845 111.264321-111.264321 0-61.287439-49.713845-111.264321-111.264321-111.26432z m0 160.452093c-27.092731 0-49.187773-22.095042-49.187773-49.187773s22.095042-49.187773 49.187773-49.187773c27.092731 0 49.187773 22.095042 49.187773 49.187773 0 27.092731-22.095042 49.187773-49.187773 49.187773z"  p-id="1523"></path><path d="M1150.783457 172.288723a30.512201 30.512201 0 0 0-24.462368-12.099666H188.860005L154.665297 23.67326C151.245826 9.995376 138.620087 0.263036 124.416132 0H31.038274C13.94092 0 0 13.94092 0 31.038274s13.94092 31.038274 31.038274 31.038274h69.178525l34.194709 136.778833 133.622399 534.226561c3.419471 13.677883 16.045209 23.410223 30.249165 23.67326h694.678654c14.203956 0 26.566658-9.73234 29.986129-23.410224l133.622399-534.22656c2.10429-9.206268 0-19.201644-5.786797-26.566658zM968.762394 694.415618H322.482404L204.116106 222.528641h882.74955l-118.103262 472.150013z"  p-id="1524"></path></svg>
