<?xml version="1.0" standalone="no"?><!DOCTYPE svg PUBLIC "-//W3C//DTD SVG 1.1//EN" "http://www.w3.org/Graphics/SVG/1.1/DTD/svg11.dtd"><svg t="1756555902998" class="icon" viewBox="0 0 1024 1024" version="1.1" xmlns="http://www.w3.org/2000/svg" p-id="12629" xmlns:xlink="http://www.w3.org/1999/xlink" width="200" height="200"><path d="M272.512 336.832c0 114.24 95.168 206.848 212.48 206.848 117.376 0 212.48-92.608 212.48-206.848 0-114.304-95.104-206.912-212.48-206.912-117.312 0-212.48 92.608-212.48 206.912z m379.392 234.816c-45.184-18.944-100.928-27.968-166.848-27.968-202.752 0-309.12 79.488-309.12 328.64h316.096c-7.616-20.672-11.52-88.96-11.52-110.976 0-97.28 74.752-177.664 171.392-189.696zM609.92 778.88a16.96 16.96 0 0 1 15.616-12.928l172.224-10.496-172.352-11.392a16.96 16.96 0 0 1-15.488-12.928l-22.784-98.432c-3.136-13.696 11.456-24.832 24.32-18.56l259.136 126.08a16.448 16.448 0 0 1 0 29.76l-259.2 126.144c-12.8 6.272-27.392-4.8-24.256-18.496l22.784-98.752z"  p-id="12630"></path></svg>
