<?xml version="1.0" standalone="no"?><!DOCTYPE svg PUBLIC "-//W3C//DTD SVG 1.1//EN" "http://www.w3.org/Graphics/SVG/1.1/DTD/svg11.dtd"><svg t="1747911876195" class="icon" viewBox="0 0 1024 1024" version="1.1" xmlns="http://www.w3.org/2000/svg" p-id="15707" xmlns:xlink="http://www.w3.org/1999/xlink" width="200" height="200"><path d="M722.72 518.44c-123.14 0-223.31-100.18-223.31-223.31S599.58 71.81 722.72 71.81s223.31 100.18 223.31 223.31-100.18 223.32-223.31 223.32z m0-399.64c-97.22 0-176.32 79.1-176.32 176.32s79.1 176.32 176.32 176.32 176.32-79.1 176.32-176.32-79.1-176.32-176.32-176.32z" p-id="15708"></path><path d="M711.69 946.93H162.12c-38.87 0-70.5-31.62-70.5-70.5V251.29c0-38.87 31.62-70.5 70.5-70.5h421.19L565.81 215c-12.88 25.16-19.41 52.12-19.41 80.12 0 97.22 79.1 176.32 176.32 176.32 10.2 0 20.59-0.99 31.76-3.02l27.71-5.05v413.07c0 38.87-31.63 70.49-70.5 70.49zM162.12 227.79c-12.96 0-23.5 10.54-23.5 23.5v625.14c0 12.96 10.54 23.5 23.5 23.5h549.56c12.96 0 23.5-10.54 23.5-23.5V518.06c-4.18 0.25-8.33 0.38-12.47 0.38-123.14 0-223.31-100.18-223.31-223.31 0-23.1 3.5-45.63 10.43-67.33H162.12z" p-id="15709"></path><path d="M612.114 358.4l150.37-134.185 31.292 35.067-150.37 134.185zM244.88 384.94h200.68v47H244.88zM244.88 540.37h385.79v47H244.88zM244.88 695.8h385.79v47H244.88z" p-id="15710"></path><path d="M770.26 319.33l-3.98-65.37-73.66-7.66 4.87-46.75 113.28 11.79 6.4 105.13z" p-id="15711"></path></svg>