<svg width="1024" height="1024" xmlns="http://www.w3.org/2000/svg" t="1715665220476" class="icon" version="1.1" p-id="10884">
 <g>
  <title>Layer 1</title>
  <path d="m885.64881,0l-887.467,0l1024,1024l0,-887.467c0,-75.093 -61.44,-136.533 -136.533,-136.533z" fill="#6495ED" p-id="10885" id="svg_1"/>
  <path fill="none" id="svg_2" d="m506.54541,275.27792c9.091,9.09097 21.35352,29.53528 50.90942,60.0004c30.43756,31.3739 57.19586,62.75723 74.54596,80.00052c15.52911,15.43353 34.54565,29.09109 40.00024,32.72748l1.81824,1.81821l1.81818,1.81818l1.81818,0"/>
  <path fill="#2061E3" d="m804.32877,249.157l0.56913,0l0.17587,-0.54067l0.17587,0.54067l0.56913,0l-0.46044,0.33415l0.17588,0.54067l-0.46044,-0.33416l-0.46044,0.33416l0.17588,-0.54067l-0.46044,-0.33415z" id="svg_3"/>
  <text fill="#ffffff" x="484.11479" y="258.96855" id="svg_5" font-size="150" font-family="'STIX Two Text'" text-anchor="start" xml:space="preserve" stroke="null" transform="rotate(45 708.777 312.695) matrix(1.69403 0 0 1.91932 -365.44 -97.166)">标准</text>
 </g>

</svg>