<?xml version="1.0" standalone="no"?><!DOCTYPE svg PUBLIC "-//W3C//DTD SVG 1.1//EN" "http://www.w3.org/Graphics/SVG/1.1/DTD/svg11.dtd"><svg t="1735629876313" class="icon" viewBox="0 0 1024 1024" version="1.1" xmlns="http://www.w3.org/2000/svg" p-id="4363" xmlns:xlink="http://www.w3.org/1999/xlink" width="200" height="200"><path d="M893.44 800a184.96 184.96 0 0 0-6.08-28.16A224 224 0 0 0 827.84 672 335.68 335.68 0 0 0 592 96H192a96 96 0 0 0-96 96v640a96 96 0 0 0 41.92 79.04A92.8 92.8 0 0 0 192 928h704v-96a214.72 214.72 0 0 0-1.92-29.76z m-32 6.08z" fill="#FFFFFF" p-id="4364"></path><path d="M592 432m-304 0a304 304 0 1 0 608 0 304 304 0 1 0-608 0Z" fill="#E9EAEB" p-id="4365"></path><path d="M640 192v450.88A192 192 0 0 0 482.88 800H128V192a64 64 0 0 1 64-64h384a64 64 0 0 1 64 64z" fill="#A3D4FF" p-id="4366"></path><path d="M538.24 320a378.56 378.56 0 0 1-19.52 90.24 381.76 381.76 0 0 1-42.88 85.44 384 384 0 0 1-64 72 379.2 379.2 0 0 1-76.16 52.48 24.64 24.64 0 0 1-17.92 1.92 158.08 158.08 0 0 1-49.92-22.08 111.36 111.36 0 0 1-35.2-32 25.6 25.6 0 0 1 2.88-32 428.16 428.16 0 0 1 71.04-59.2 25.6 25.6 0 0 1 32 3.84l18.24 18.56a331.84 331.84 0 0 0 45.12-54.08 365.44 365.44 0 0 0 32-62.4l-24.32-9.92a25.28 25.28 0 0 1-15.36-27.52 445.12 445.12 0 0 1 26.88-86.4 25.92 25.92 0 0 1 28.48-15.04 112.32 112.32 0 0 1 43.52 20.16 161.92 161.92 0 0 1 39.68 38.08 23.36 23.36 0 0 1 4.48 9.92 19.2 19.2 0 0 1 0.96 8zM764.8 664a128 128 0 1 0-185.28 0A192 192 0 0 0 491.2 768H192a64 64 0 0 0 0 128h672v-64a192 192 0 0 0-99.2-168z" fill="#FFFFFF" p-id="4367"></path><path d="M576 128H192a64 64 0 0 0-64 64v640a64 64 0 0 0 64 64h256v-32H192a32 32 0 0 1 0-64h256v-32H192a64 64 0 0 0-32 8.64V192a32 32 0 0 1 32-32h384a32 32 0 0 1 32 32v224h32V192a64 64 0 0 0-64-64z" fill="#2A5082" p-id="4368"></path><path d="M421.76 258.88a445.12 445.12 0 0 0-26.88 86.4 25.28 25.28 0 0 0 15.36 27.52l24.32 9.92a365.44 365.44 0 0 1-32 62.4 331.84 331.84 0 0 1-45.12 54.08l-19.52-19.2a25.6 25.6 0 0 0-32-3.84 428.16 428.16 0 0 0-69.12 58.56 25.6 25.6 0 0 0-2.88 32 111.36 111.36 0 0 0 35.2 32 158.08 158.08 0 0 0 49.92 22.08 24.64 24.64 0 0 0 17.92-1.92 379.2 379.2 0 0 0 76.16-52.48 384 384 0 0 0 64-72 381.76 381.76 0 0 0 42.88-85.44 378.56 378.56 0 0 0 18.24-88.96 19.2 19.2 0 0 0 0-7.36 23.36 23.36 0 0 0-4.48-9.92 161.92 161.92 0 0 0-39.68-38.08 112.32 112.32 0 0 0-43.52-20.16 25.92 25.92 0 0 0-28.8 14.4z m55.04 32a136.64 136.64 0 0 1 32 29.12 348.8 348.8 0 0 1-57.28 160 352 352 0 0 1-125.76 113.6 146.56 146.56 0 0 1-38.4-17.6 88.32 88.32 0 0 1-24-20.48A405.44 405.44 0 0 1 320 505.6l19.2 19.2a24.96 24.96 0 0 0 35.2 0 361.92 361.92 0 0 0 53.44-64 380.8 380.8 0 0 0 38.4-73.28 25.28 25.28 0 0 0-14.08-32l-24.96-10.24A378.88 378.88 0 0 1 448 275.2a90.56 90.56 0 0 1 28.8 14.4zM764.8 664a128 128 0 1 0-183.68 0A192 192 0 0 0 480 832v64h32v-64a160 160 0 0 1 96-146.24h-1.6a126.08 126.08 0 0 0 133.76 0h-1.6A160 160 0 0 1 832 832v64h32v-64a192 192 0 0 0-99.2-168z m-179.52 5.76l11.2 9.28zM576 576a96 96 0 1 1 96 96 96 96 0 0 1-96-96z m182.72 93.76l-11.2 9.28z" fill="#2A5082" p-id="4369"></path><path d="M672 768l32-32h-64l32 32zM704 800l-32-32-32 32 32 96 32-96z" fill="#2A5082" p-id="4370"></path></svg>