<?xml version="1.0" standalone="no"?><!DOCTYPE svg PUBLIC "-//W3C//DTD SVG 1.1//EN" "http://www.w3.org/Graphics/SVG/1.1/DTD/svg11.dtd"><svg t="1716276878642" class="icon" viewBox="0 0 1024 1024" version="1.1" xmlns="http://www.w3.org/2000/svg" p-id="5378" xmlns:xlink="http://www.w3.org/1999/xlink" width="200" height="200"><path d="M594.04 959.5H142.31c-41.14 0-74.6-33.46-74.6-74.6V367.47c0-21.18 17.17-38.36 38.36-38.36s38.36 17.17 38.36 38.36v515.32h449.62c21.18 0 38.36 17.17 38.36 38.36-0.01 21.18-17.18 38.35-38.37 38.35zM783.71 569.26c-21.18 0-38.36-17.17-38.36-38.36V141.21H365.4c-21.18 0-38.36-17.17-38.36-38.36S344.22 64.5 365.4 64.5h382.07c41.14 0 74.6 33.46 74.6 74.6v391.8c0 21.19-17.18 38.36-38.36 38.36z m-36.24-428.05h0.12-0.12z" p-id="5379" fill="#8a8a8a"></path><path d="M360.67 438.06H130.53c-21.18 0-38.36-17.17-38.36-38.36s17.17-38.36 38.36-38.36h230.14c21.18 0 38.36 17.17 38.36 38.36s-17.18 38.36-38.36 38.36zM917.93 824.76h-268.5c-21.18 0-38.36-17.17-38.36-38.36 0-21.18 17.17-38.36 38.36-38.36h268.5c21.18 0 38.36 17.17 38.36 38.36 0 21.19-17.18 38.36-38.36 38.36z" p-id="5380" fill="#8a8a8a"></path><path d="M783.68 959.01c-21.18 0-38.36-17.17-38.36-38.36v-268.5c0-21.18 17.17-38.36 38.36-38.36 21.18 0 38.36 17.17 38.36 38.36v268.5c0 21.19-17.18 38.36-38.36 38.36zM364.04 437.23c-21.18 0-38.36-17.17-38.36-38.36V110.64c0-21.18 17.17-38.36 38.36-38.36 21.18 0 38.36 17.17 38.36 38.36v288.23c0 21.19-17.17 38.36-38.36 38.36z" p-id="5381" fill="#8a8a8a"></path><path d="M106.24 398.98c-9.85 0-19.7-3.77-27.19-11.31-14.94-15.02-14.88-39.31 0.14-54.25L338.35 75.66c15.02-14.93 39.3-14.88 54.25 0.14 14.94 15.02 14.88 39.31-0.14 54.25L133.3 387.81c-7.49 7.45-17.27 11.17-27.06 11.17z" p-id="5382" fill="#8a8a8a"></path></svg>