<?xml version="1.0" standalone="no"?><!DOCTYPE svg PUBLIC "-//W3C//DTD SVG 1.1//EN" "http://www.w3.org/Graphics/SVG/1.1/DTD/svg11.dtd"><svg t="1716277691252" class="icon" viewBox="0 0 1024 1024" version="1.1" xmlns="http://www.w3.org/2000/svg" p-id="2424" xmlns:xlink="http://www.w3.org/1999/xlink" width="200" height="200"><path d="M468.4 751.6c0.2 47.3 15.8 93.1 44.4 130.7H250.6c-48.1 0-87.1-39-87.1-87.1v-610c0-48.1 39-87.1 87.1-87.1h392.1l174.2 174.2v306c-95.2-72.7-231.2-54.6-303.9 40.5-29.1 38.2-44.7 84.8-44.6 132.8zM250.6 490.2h304.9v-43.6H250.6v43.6zM512 272.4H250.6V316H512v-43.6z m87.1-130.7v174.2h174.2L599.1 141.7z m130.7 217.8H250.6V403h479.3c-0.1 0-0.1-43.5-0.1-43.5z m-43.5 217.9c96.3 0 174.2 78.1 174.2 174.3 0 96.2-78.1 174.2-174.2 174.2S512 847.8 512 751.6c0-96.2 78.1-174.2 174.3-174.2z m-81.1 304.5l81-61.8 81 61.8-30.9-99.7 81-61.5H717.2L686.3 621l-30.5 99.9H555.6l81 61.5-31.4 99.5z m0 0" p-id="2425" fill="#707070"></path></svg>