<svg width="1024" height="1024" xmlns="http://www.w3.org/2000/svg" t="1715665220476" class="icon" version="1.1" p-id="10884">
 <g>
  <title>Layer 1</title>
  <path stroke="null" d="m888.38953,0l-891.31882,0l1028.44441,1028.44441l0,-891.31882c0,-75.41892 -61.70666,-137.12559 -137.12559,-137.12559z" fill="#2076cc" p-id="10885" id="svg_1"/>
  <path fill="none" id="svg_2" d="m506.54541,275.27792c9.091,9.09097 21.35352,29.53528 50.90942,60.0004c30.43756,31.3739 57.19586,62.75723 74.54596,80.00052c15.52911,15.43353 34.54565,29.09109 40.00024,32.72748l1.81824,1.81821l1.81818,1.81818l1.81818,0"/>
  <path fill="#2061E3" d="m804.32877,249.157l0.56913,0l0.17587,-0.54067l0.17587,0.54067l0.56913,0l-0.46044,0.33415l0.17588,0.54067l-0.46044,-0.33416l-0.46044,0.33416l0.17588,-0.54067l-0.46044,-0.33415z" id="svg_3"/>
  <text fill="#ffffff" x="463.55313" y="262.31118" id="svg_5" font-size="150" font-family="'STIX Two Text'" text-anchor="start" xml:space="preserve" stroke="null" transform="rotate(45 697.271 310.614) matrix(1.58829 0 0 1.79951 -277.222 -79.7757)">客户</text>
 </g>

</svg>