<?xml version="1.0" standalone="no"?><!DOCTYPE svg PUBLIC "-//W3C//DTD SVG 1.1//EN" "http://www.w3.org/Graphics/SVG/1.1/DTD/svg11.dtd"><svg t="1719561485720" class="icon" viewBox="0 0 1024 1024" version="1.1" xmlns="http://www.w3.org/2000/svg" p-id="18498" xmlns:xlink="http://www.w3.org/1999/xlink" width="200" height="200"><path d="M512 512m-384 0a384 384 0 1 0 768 0 384 384 0 1 0-768 0Z" fill="#538DFF" p-id="18499"></path><path d="M696 536h-352c-13.28 0-24-10.72-24-24s10.72-24 24-24h352c13.28 0 24 10.72 24 24s-10.72 24-24 24z" fill="#FFFFFF" p-id="18500"></path><path d="M520 712c-13.28 0-24-10.72-24-24V336c0-13.28 10.72-24 24-24s24 10.72 24 24v352c0 13.28-10.72 24-24 24z" fill="#FFFFFF" p-id="18501"></path></svg>