<?xml version="1.0" standalone="no"?><!DOCTYPE svg PUBLIC "-//W3C//DTD SVG 1.1//EN" "http://www.w3.org/Graphics/SVG/1.1/DTD/svg11.dtd"><svg t="1747963041428" class="icon" viewBox="0 0 1024 1024" version="1.1" xmlns="http://www.w3.org/2000/svg" p-id="1540" xmlns:xlink="http://www.w3.org/1999/xlink" width="200" height="200"><path d="M588.446932 345.904457c0-5.628623-4.605237-10.23386-10.23386-10.23386L246.636018 335.670598c-5.628623 0-10.23386 4.605237-10.23386 10.23386l0 2.046772c0 5.628623 4.605237 10.23386 10.23386 10.23386l331.577054 0c5.628623 0 10.23386-4.605237 10.23386-10.23386L588.446932 345.904457zM246.124325 443.126124c-5.628623 0-9.722167 4.502898-9.722167 10.131521l0 2.046772c0 5.628623 4.093544 10.336198 9.722167 10.336198L530.113932 465.640616l19.341995-22.514491c-0.102339 0-0.307016 0-0.409354 0L246.124325 443.126124zM236.402159 556.619628l0 2.046772c0 5.628623 4.40056 10.336198 10.029182 10.336198L441.079352 569.002598l19.444333-22.514491L246.431341 546.488107C240.802718 546.488107 236.402159 550.991005 236.402159 556.619628zM236.402159 663.051769l0 2.046772c0 5.628623 4.298221 10.336198 9.926844 10.336198l152.484509 0 8.289426-22.514491L246.329003 652.920248C240.70038 652.920248 236.402159 657.423146 236.402159 663.051769zM246.226664 760.375775c-5.628623 0-9.824505 4.809914-9.824505 10.438537l0 2.046772c0 5.628623 4.195882 10.029182 9.824505 10.029182l118.712772 0c1.228063 0 2.353788-0.102339 3.377174-0.511693-3.888867-3.581851-5.8333-9.210474-3.684189-15.043774l2.456126-6.652009c-0.71637-0.102339-1.43274-0.307016-2.149111-0.307016L246.226664 760.375775zM951.851289 222.177094l-100.803518-86.885469c-11.564261-9.926844-29.064162-8.596442-38.991005 2.865481L711.253248 255.334799 711.253248 225.144913 582.306616 88.011193l-36.330202 0L159.238857 88.011193c-32.748351 0-59.970418 26.608035-59.970418 59.356386l0 720.463722c0 32.748351 27.222067 59.356386 59.970418 59.356386l491.429942 0c32.748351 0 59.254048-26.608035 59.254048-59.254048l0.71637-323.389966L954.819109 261.065761C964.745952 249.603838 963.415551 232.103938 951.851289 222.177094zM665.098541 867.831301c0 7.777733-6.652009 14.327404-14.429742 14.327404L159.238857 882.158705c-7.880072 0-14.941435-6.54967-14.941435-14.327404L144.297422 147.367579c0-7.777733 7.061363-14.327404 14.941435-14.327404L545.464721 133.040176l0 124.853088 121.271237 0-0.102339 49.224865L549.455926 443.023786l-19.341995 22.514491-69.692584 80.847492-19.444333 22.514491-0.307016 0.409354c-0.511693 0.614032-1.023386 1.228063-1.43274 1.842095-1.842095 1.739756-3.377174 3.991205-4.40056 6.54967l-27.836098 75.11653-8.289426 22.514491-31.622626 85.452728-2.456126 6.652009c-2.149111 5.8333-0.204677 11.564261 3.684189 15.043774 3.786528 3.479512 9.415151 4.912253 14.941435 2.456126l191.270837-85.043374c2.967819-1.330402 5.423946-3.377174 7.163702-5.935639 0.511693-0.511693 1.125725-1.125725 1.637418-1.739756l82.484909-95.686588L665.098541 867.831301zM425.93324 702.042774l30.59924-82.689586 72.558065 62.528883-84.531681 37.558265C411.298821 733.460724 411.298821 733.460724 425.93324 702.042774zM561.736558 664.075155 471.780931 586.604837l362.073956-420.202279 89.955627 77.470318L561.736558 664.075155zM824.746752 250.320208 541.1665 581.385569c-4.40056 5.11693-3.786528 12.894663 1.330402 17.295223l0 0c5.11693 4.40056 12.894663 3.786528 17.295223-1.330402l283.580252-331.065361c4.40056-5.11693 3.786528-12.894663-1.330402-17.295223C836.925045 244.589246 829.147312 245.203278 824.746752 250.320208z"  p-id="1541"></path></svg>
