<?xml version="1.0" standalone="no"?><!DOCTYPE svg PUBLIC "-//W3C//DTD SVG 1.1//EN" "http://www.w3.org/Graphics/SVG/1.1/DTD/svg11.dtd"><svg t="1735627115007" class="icon" viewBox="0 0 1024 1024" version="1.1" xmlns="http://www.w3.org/2000/svg" p-id="35408" xmlns:xlink="http://www.w3.org/1999/xlink" width="200" height="200"><path d="M170.837333 612.629333l162.837334-94.592 46.762666 27.008-162.858666 94.677334-46.741334-27.093334z m253.610667 146.517334l162.837333-94.677334 46.933334 27.093334-162.858667 94.592-46.933333-27.008z" fill="#E0EFFB" p-id="35409"></path><path d="M677.205333 905.088l162.858667-94.677333-0.170667 54.997333L677.056 960l0.149333-54.912z" fill="#335599" p-id="35410"></path><path d="M632.106667 878.997333l162.858666-94.592 45.098667 26.005334-162.858667 94.677333-45.077333-26.090667zM218.666667 158.677333L381.525333 64l207.104 6.186667-162.858666 94.656-207.104-6.186667z" fill="#6D8ACA" p-id="35411"></path><path d="M425.770667 164.842667l162.858666-94.677334-1.344 594.304-162.837333 94.677334 1.322667-594.304z m207.104 340.778666l162.858666-94.677333-0.768 373.461333-162.837333 94.592 0.746667-373.376z" fill="#335599" p-id="35412"></path><path d="M472.277333 333.184l162.858667-94.592 160.597333 172.373333-162.858666 94.656z" fill="#6D8ACA" p-id="35413"></path><path d="M425.770667 164.842667l-1.322667 594.304 46.933333 27.008 0.896-452.970667 160.597334 172.437333-0.746667 373.376 45.077333 26.090667L677.056 960 170.666667 667.648l0.170666-55.018667 46.741334 27.093334 1.088-481.066667z" fill="#4467AE" p-id="35414"></path><path d="M301.013333 623.296l1.408 2.261333-0.149333 54.656-1.429333 0.512-47.424-29.077333-1.152-2.090667 0.149333-54.677333 1.173333-0.661333 47.424 29.077333z m81.664 35.669333l1.429334 2.261334-0.170667 54.677333-1.408 0.490667-47.424-29.077334-1.173333-2.090666 0.170666-54.677334 1.173334-0.661333 47.402666 29.077333z m-81.664-123.584l1.408 2.154667-0.149333 54.677333-1.429333 0.576-47.424-29.077333-1.152-2.090667 0.149333-54.656 1.173333-0.682666 47.424 29.098666z m81.664 35.669334l1.429334 2.154666-0.170667 54.762667-1.408 0.490667-47.424-29.077334-1.173333-2.090666 0.170666-54.656 1.173334-0.682667 47.402666 29.098667z m-81.664-123.605334l1.408 2.176-0.149333 54.677334-1.429333 0.490666-47.424-29.013333-1.152-2.069333 0.149333-54.762667 1.173333-0.576 47.424 29.077333z m81.664 35.584l1.429334 2.261334-0.170667 54.677333-1.408 0.490667-47.424-29.013334-1.173333-2.069333 0.170666-54.677333 1.173334-0.661334 47.402666 29.013334zM301.013333 359.466667l1.408 2.24-0.149333 54.677333-1.429333 0.512-47.424-29.013333-1.152-2.154667 0.149333-54.677333 1.173333-0.597334 47.424 29.013334z m81.664 35.669333l1.429334 2.24-0.170667 54.677333-1.408 0.512-47.424-29.098666-1.173333-2.069334 0.170666-54.677333 1.173334-0.661333 47.402666 29.077333z m-81.664-123.605333l1.408 2.176-0.149333 54.762666-1.429333 0.490667-47.424-29.077333-1.152-2.090667 0.149333-54.677333 1.173333-0.64 47.424 29.056z m81.664 35.669333l1.429334 2.261333-0.170667 54.677334-1.408 0.490666-47.424-29.077333-1.173333-2.090667 0.170666-54.677333 1.173334-0.64 47.402666 29.056z m158.698667 460.48l1.066667 1.664-0.149334 41.493333-1.002666 0.426667-36.010667-22.101333-0.917333-1.578667 0.085333-41.493333 0.917333-0.512 36.010667 22.101333z m61.994667 26.986667l1.002666 1.749333-0.085333 41.514667-1.066667 0.32-35.925333-21.973334-0.917333-1.6 0.085333-41.514666 0.896-0.490667 36.010667 21.994667z m-61.994667-116.010667l1.066667 1.664-0.149334 41.514667-1.002666 0.426666-36.010667-22.101333-0.917333-1.578667 0.085333-41.514666 0.917333-0.490667 36.010667 22.08z m61.994667 27.093333l1.002666 1.664-0.085333 41.514667-1.066667 0.32-35.925333-21.994667-0.917333-1.578666 0.085333-41.514667 0.896-0.490667 36.010667 22.08z m-61.994667-116.096l1.066667 1.664-0.149334 41.514667-1.002666 0.426667-36.010667-22.101334-0.917333-1.578666 0.085333-41.514667 0.917333-0.490667 36.010667 22.08z m61.994667 27.093334l1.002666 1.664-0.085333 41.493333-1.066667 0.426667-35.925333-22.08-0.917333-1.6 0.085333-41.493334 0.896-0.512 36.010667 22.101334z m-61.994667-116.096l1.066667 1.664-0.149334 41.493333-1.002666 0.426667-36.010667-22.08-0.917333-1.6 0.085333-41.493334 0.917333-0.512 36.010667 22.101334z m61.994667 27.093333l1.002666 1.664-0.085333 41.493333-1.066667 0.426667-35.925333-22.101333-0.917333-1.578667 0.085333-41.493333 0.896-0.512 36.010667 22.08z" fill="#FFFFFF" p-id="35415"></path></svg>