<?xml version="1.0" standalone="no"?><!DOCTYPE svg PUBLIC "-//W3C//DTD SVG 1.1//EN" "http://www.w3.org/Graphics/SVG/1.1/DTD/svg11.dtd"><svg t="1718593284528" class="icon" viewBox="0 0 1025 1024" version="1.1" xmlns="http://www.w3.org/2000/svg" p-id="3013" xmlns:xlink="http://www.w3.org/1999/xlink" width="200.1953125" height="200"><path d="M707.101 84a57.559 57.559 0 0 1 35 11.862c25.211 19.31 29.98 55.384 10.65 80.57l-240.649 313.56v367.325a43.64 43.64 0 0 1-4.632 19.566l-0.52 1.006c-11.374 21.277-37.858 29.316-59.157 17.954L340.92 838.83c-26.222-13.989-42.598-41.272-42.598-70.97V491.217L55.933 176.51a57.432 57.432 0 0 1-11.922-33.893L44 141.467C44 109.729 69.754 84 101.522 84z m192.987 694.197c16.52 0 29.912 13.38 29.912 29.883 0 16.268-13.012 29.5-29.206 29.874l-0.706 0.008H614.771c-16.52 0-29.911-13.378-29.911-29.882 0-16.268 13.012-29.5 29.205-29.875l0.706-0.008h285.317z m0-160.906c16.52 0 29.912 13.378 29.912 29.882 0 16.268-13.012 29.5-29.206 29.875l-0.706 0.008H614.771c-16.52 0-29.911-13.38-29.911-29.883 0-16.268 13.012-29.5 29.205-29.874l0.706-0.008h285.317z m0-160.907c16.52 0 29.912 13.379 29.912 29.883 0 16.268-13.012 29.5-29.206 29.874l-0.706 0.008H614.771c-16.52 0-29.911-13.379-29.911-29.882 0-16.268 13.012-29.5 29.205-29.875l0.706-0.008h285.317z" fill="#d81e06" p-id="3014"></path></svg>