<?xml version="1.0" standalone="no"?><!DOCTYPE svg PUBLIC "-//W3C//DTD SVG 1.1//EN" "http://www.w3.org/Graphics/SVG/1.1/DTD/svg11.dtd"><svg t="1747963308255" class="icon" viewBox="0 0 1024 1024" version="1.1" xmlns="http://www.w3.org/2000/svg" p-id="2365" xmlns:xlink="http://www.w3.org/1999/xlink" width="200" height="200"><path d="M158 882.7c-8.8-2.1-15.5-10-15.5-19.2v-703l0.5-4.5c2.2-8.9 10.2-15.2 19.5-15.2h652.9l4.6 0.5c9 2.2 15.4 10.1 15.5 19.2V512H914V160.5l-0.5-8.8c-4.7-49.6-47.2-87.6-98.1-87.7H162.5l-9 0.4c-50 4.5-89.5 45.9-89.5 96.1v703l0.5 8.8c4.7 49.6 47.2 87.6 98.1 87.7h489.9v-76.8h-490l-4.5-0.5z m792.7-191l-94.3-87.9c-5.1-4.9-11.9-7.6-18.9-7.7-16.1 0.4-28.8 13.5-28.4 29.2 0 0.5 0.1 1.1-0.1 1.7l-0.1 38.4-155.9-0.3-0.2 95.5 155.8 0.4-0.1 39.4h0.1v0.7c0 16.1 12.6 29.3 28.2 29.3h0.1c7.1-0.1 13.8-2.7 19-7.4l94.5-87.7c6.1-5.7 9.5-13.5 9.5-21.7 0.1-8.3-3.2-16.2-9.2-21.9zM567.4 518.8c22 0 39.6-16.8 39.6-33.5 0-16.8-17.6-33.5-39.6-33.5h-74.9v-4.2l83.7-79.6c13.2-12.6 13.2-37.7 0-50.3-13.2-12.6-39.6-12.6-52.8 0L444.1 389l-79.3-71.2c-13.2-12.6-39.6-12.6-52.8 0-13.2 12.6-13.2 37.7 0 50.3l83.7 79.6v12.6h-74.8c-22 0-39.6 16.7-39.6 33.5 0 16.7 17.6 33.5 39.6 33.5h74.8v33.5h-74.8c-22 0-39.6 12.6-39.6 33.5 0 16.8 17.6 33.5 39.6 33.5h74.8v41.9c0 25.1 22 46.1 48.4 46.1s48.4-20.9 48.4-46.1v-46.1h74.9c22 0 39.6-12.6 39.6-33.5 0-16.8-17.6-33.5-39.6-33.5l-74.9-4.2v-33.5h74.9z"  p-id="2366"></path></svg>
