<?xml version="1.0" standalone="no"?><!DOCTYPE svg PUBLIC "-//W3C//DTD SVG 1.1//EN" "http://www.w3.org/Graphics/SVG/1.1/DTD/svg11.dtd"><svg t="1747963405655" class="icon" viewBox="0 0 1024 1024" version="1.1" xmlns="http://www.w3.org/2000/svg" p-id="1527" xmlns:xlink="http://www.w3.org/1999/xlink" width="200" height="200"><path d="M471.392 868.92H233.736c-21.608 0-32.408-16.2-32.408-37.808V199.168c0-21.608 5.4-32.408 27.008-32.408h507.712c21.608 0 43.208 10.8 43.208 37.808v329.472c0 16.2 16.2 32.408 32.408 32.408s32.408-10.8 32.408-32.408V199.168c0-54.008-43.208-102.624-102.624-102.624H233.736c-54.008 0-102.624 48.608-102.624 102.624v637.344c0 54.008 43.208 102.624 102.624 102.624h237.656c16.2 0 32.408-10.8 32.408-32.408 0-16.2-5.4-37.808-21.608-37.808h-10.8z" p-id="1528"></path><path d="M725.248 593.456c-102.624 0-183.64 81.016-183.64 183.64s81.016 183.64 183.64 183.64 183.64-81.016 183.64-183.64-81.024-183.64-183.64-183.64z m59.408 178.24c5.4 0 10.8 5.4 10.8 10.8 0 10.8-5.4 10.8-10.8 10.8h-43.208v21.608h43.208c5.4 0 10.8 5.4 10.8 10.8 0 10.8-5.4 10.8-10.8 10.8h-43.208v32.408c0 10.8-5.4 21.608-21.608 21.608-16.2 0-21.608-5.4-21.608-21.608v-32.408h-43.208c-10.8 0-10.8-5.4-10.8-10.8s5.4-10.8 10.8-10.8h43.208v-21.608h-43.208c-10.8 0-10.8-5.4-10.8-10.8s5.4-10.8 10.8-10.8h21.608l-37.808-48.608c-5.4-5.4-5.4-5.4-5.4-10.8 0-10.8 5.4-21.608 21.608-21.608 5.4 0 10.8 5.4 16.2 10.8l43.208 59.416 43.208-59.416c5.4-5.4 10.8-10.8 16.2-10.8 10.8 0 21.608 10.8 21.608 21.608 0 5.4 0 10.8-5.4 10.8l-37.808 48.608h32.408zM368.768 280.184c-21.608 70.216-54.008 135.032-97.224 199.848 5.4 21.608 10.8 43.208 10.8 64.816l48.608-64.816v232.248h48.608V388.208c16.2-32.408 27.008-64.816 37.808-102.624l-48.6-5.4z m226.848 324.072c16.2-10.8 32.408-21.608 54.008-27.008V420.616h59.416v-43.208h-59.416V285.592h-48.608v91.824h-189.04v48.608h183.64v178.232zM520 706.88c5.4-16.2 10.8-32.408 21.608-48.608H498.4c5.4 16.2 5.4 32.408 10.8 48.608H520z" p-id="1529"></path><path d="M541.608 561.048c-27.008-32.408-54.008-70.216-86.416-102.624l-32.408 27.008c27.008 32.408 54.008 70.216 81.016 108.024l37.808-32.408z" p-id="1530"></path></svg>