<?xml version="1.0" standalone="no"?><!DOCTYPE svg PUBLIC "-//W3C//DTD SVG 1.1//EN" "http://www.w3.org/Graphics/SVG/1.1/DTD/svg11.dtd"><svg t="1595234376886" class="icon" viewBox="0 0 1024 1024" version="1.1" xmlns="http://www.w3.org/2000/svg" p-id="4184" width="300" height="300" xmlns:xlink="http://www.w3.org/1999/xlink"><defs><style type="text/css"></style></defs><path d="M132.6 239.2c3.5 0 6.9-1.4 9.3-3.9 2.5-2.5 3.9-6 3.9-9.5s-1.4-7-3.9-9.5c-2.4-2.5-5.8-3.9-9.3-3.9-3.5 0-6.9 1.4-9.3 3.9-2.5 2.5-3.9 6-3.9 9.5s1.4 7 3.9 9.5c2.4 2.5 5.8 3.9 9.3 3.9zM174.7 239.2c3.5 0 6.9-1.4 9.3-3.9 2.5-2.5 3.9-6 3.9-9.5s-1.4-7-3.9-9.5c-2.4-2.5-5.8-3.9-9.3-3.9-3.5 0-6.9 1.4-9.3 3.9-2.5 2.5-3.9 6-3.9 9.5s1.4 7 3.9 9.5c2.4 2.5 5.8 3.9 9.3 3.9zM216.8 239.2c3.5 0 6.9-1.4 9.3-3.9 2.5-2.5 3.9-6 3.9-9.5s-1.4-7-3.9-9.5c-2.4-2.5-5.8-3.9-9.3-3.9-3.5 0-6.9 1.4-9.3 3.9-2.5 2.5-3.9 6-3.9 9.5s1.4 7 3.9 9.5c2.4 2.5 5.8 3.9 9.3 3.9zM272.9 239.2h533c7.3 0 13.2-6 13.2-13.4s-5.9-13.4-13.2-13.4h-533c-7.3 0-13.1 6-13.1 13.4-0.1 7.4 5.8 13.4 13.1 13.4zM862 239.2h28.1c7.3 0 13.1-6 13.1-13.4s-5.9-13.4-13.1-13.4H862c-7.3 0-13.1 6-13.1 13.4s5.9 13.4 13.1 13.4zM834 355.6H581.5c-22.7 0-41.2 18.9-41.2 42.1v0.9h-14.9c-22.7 0-41.2 18.9-41.2 42.1v115.5h-29.8v-43.9c0-23.2-18.5-42.1-41.2-42.1H188.7c-22.7 0-41.2 18.9-41.2 42.1v114.6c0 23.2 18.5 42.1 41.2 42.1h224.4c22.7 0 41.2-18.9 41.2-42.1V583h29.8v115.5c0 23.2 18.5 42.1 41.2 42.1h14.9v0.9c0 23.2 18.5 42.1 41.2 42.1H834c22.7 0 41.2-18.9 41.2-42.1v-28.6c0-23.2-18.5-42.1-41.2-42.1H581.5c-22.7 0-41.2 18.9-41.2 42.1v0.9h-14.9c-8.2 0-14.9-6.8-14.9-15.2V582.9h29.8v0.9c0 23.2 18.5 42.1 41.2 42.1H834c22.7 0 41.2-18.9 41.2-42.1v-28.6c0-23.2-18.5-42.1-41.2-42.1H581.5c-22.7 0-41.2 18.9-41.2 42.1v0.9h-29.8V440.6c0-8.4 6.7-15.2 14.9-15.2h14.9v0.9c0 23.2 18.5 42.1 41.2 42.1H834c22.7 0 41.2-18.9 41.2-42.1v-28.6c0-23.2-18.5-42.1-41.2-42.1zM428 626.8c0 8.4-6.7 15.2-14.9 15.2H188.7c-8.2 0-14.9-6.8-14.9-15.2V512.2c0-8.4 6.7-15.2 14.9-15.2h224.4c8.2 0 14.9 6.8 14.9 15.2v114.6z m138.6 85.9c0-8.4 6.7-15.2 14.9-15.2H834c8.2 0 14.9 6.8 14.9 15.2v28.6c0 8.4-6.7 15.2-14.9 15.2H581.5c-8.2 0-14.9-6.8-14.9-15.2v-28.6z m0-157.5c0-8.4 6.7-15.2 14.9-15.2H834c8.2 0 14.9 6.8 14.9 15.2v28.6c0 8.4-6.7 15.2-14.9 15.2H581.5c-8.2 0-14.9-6.8-14.9-15.2v-28.6z m282.3-128.9c0 8.4-6.7 15.2-14.9 15.2H581.5c-8.2 0-14.9-6.8-14.9-15.2v-28.6c0-8.4 6.7-15.2 14.9-15.2H834c8.2 0 14.9 6.8 14.9 15.2v28.6z" p-id="4185"></path><path d="M890.1 155.1H132.6c-38.2 0-69.3 31.7-69.3 70.7v572.8c0 39 31.1 70.7 69.3 70.7h757.5c38.2 0 69.3-31.7 69.3-70.7V225.8c-0.1-39-31.1-70.7-69.3-70.7zM132.6 182h757.5c23.7 0 43 19.7 43 43.9v43.9H89.6v-43.9c0-24.3 19.3-43.9 43-43.9z m757.5 660.5H132.6c-23.7 0-43-19.7-43-43.9V296.5H933v502.1c0 24.2-19.2 43.9-42.9 43.9z" p-id="4186"></path></svg>