<?xml version="1.0" standalone="no"?><!DOCTYPE svg PUBLIC "-//W3C//DTD SVG 1.1//EN" "http://www.w3.org/Graphics/SVG/1.1/DTD/svg11.dtd"><svg t="1718348247320" class="icon" viewBox="0 0 1024 1024" version="1.1" xmlns="http://www.w3.org/2000/svg" p-id="46814" xmlns:xlink="http://www.w3.org/1999/xlink" width="200" height="200"><path d="M847.448276 0H176.551724L0 282.482759v741.517241h1024V282.482759L847.448276 0" fill="#A98258" p-id="46815"></path><path d="M617.931034 476.689655H406.068966c-19.42069 0-35.310345-15.889655-35.310345-35.310345s15.889655-35.310345 35.310345-35.310344h211.862068c19.42069 0 35.310345 15.889655 35.310345 35.310344s-15.889655 35.310345-35.310345 35.310345" fill="#5B4631" p-id="46816"></path><path d="M653.241379 900.413793H370.758621a17.655172 17.655172 0 1 0 0 35.310345h282.482758a17.655172 17.655172 0 1 0 0-35.310345M370.758621 759.172414a17.602207 17.602207 0 0 0 12.482207-5.172966L406.068966 731.17131V847.448276a17.655172 17.655172 0 1 0 35.310344 0v-116.276966l22.828138 22.828138a17.602207 17.602207 0 0 0 24.964414 0 17.637517 17.637517 0 0 0 0-24.964414l-52.947862-52.947862a17.655172 17.655172 0 0 0-24.999724 0l-52.947862 52.947862A17.637517 17.637517 0 0 0 370.758621 759.172414M547.310345 759.172414a17.602207 17.602207 0 0 0 12.482207-5.172966L582.62069 731.17131V847.448276a17.655172 17.655172 0 1 0 35.310344 0v-116.276966l22.828138 22.828138a17.602207 17.602207 0 0 0 24.964414 0 17.637517 17.637517 0 0 0 0-24.964414l-52.947862-52.947862a17.655172 17.655172 0 0 0-24.999724 0l-52.947862 52.947862A17.637517 17.637517 0 0 0 547.310345 759.172414" fill="#E8D5B2" p-id="46817"></path><path d="M176.551724 0L0 282.482759h1024L847.448276 0H176.551724" fill="#DAAE86" p-id="46818"></path><path d="M494.344828 0h35.310344v282.482759h-35.310344V0z" fill="#F4D5BD" p-id="46819"></path></svg>