<?xml version="1.0" standalone="no"?><!DOCTYPE svg PUBLIC "-//W3C//DTD SVG 1.1//EN" "http://www.w3.org/Graphics/SVG/1.1/DTD/svg11.dtd"><svg t="1634194176290" class="icon" viewBox="0 0 1024 1024" version="1.1" xmlns="http://www.w3.org/2000/svg" p-id="5654" xmlns:xlink="http://www.w3.org/1999/xlink" width="200" height="200"><defs><style type="text/css"></style></defs><path d="M512 0C349.848 0 177.528 54.512 177.528 155.552v715.584c0 1.048 0.208 2.04 0.312 3.064C184.304 971.536 352.984 1024 512 1024c159.024 0 327.696-52.464 334.16-149.808 0.112-1.024 0.312-2.016 0.312-3.064V155.552C846.472 54.512 674.16 0 512 0z m272.72 635.352c0 38.224-106.248 93.8-272.72 93.8-166.464 0-272.72-55.568-272.72-93.8V484.128c64.616 41.208 170.664 62.816 272.72 62.816 102.064 0 208.112-21.608 272.72-62.816v151.224z m0-243.992c0 38.264-106.248 93.832-272.72 93.832-166.464 0-272.72-55.568-272.72-93.832V248.296c64.616 41.192 170.664 62.808 272.72 62.808 102.064 0 208.112-21.616 272.72-62.808V391.36zM512 61.752c166.472 0 272.72 55.568 272.72 93.8S678.472 249.352 512 249.352c-166.464 0-272.72-55.568-272.72-93.8S345.536 61.752 512 61.752z m0 900.496c-166.464 0-272.72-55.568-272.72-93.832V728.088c64.616 41.192 170.664 62.816 272.72 62.816 102.064 0 208.112-21.616 272.72-62.816v140.336c0 38.256-106.248 93.824-272.72 93.824z"   p-id="5655"></path></svg>
