<?xml version="1.0" standalone="no"?><!DOCTYPE svg PUBLIC "-//W3C//DTD SVG 1.1//EN" "http://www.w3.org/Graphics/SVG/1.1/DTD/svg11.dtd"><svg t="1586418403795" class="icon" viewBox="0 0 1024 1024" version="1.1" xmlns="http://www.w3.org/2000/svg" p-id="5361" xmlns:xlink="http://www.w3.org/1999/xlink" width="200" height="200"><defs><style type="text/css"></style></defs><path d="M981.94432 312.832a509.659429 509.659429 0 0 0-109.494857-162.377143A508.854857 508.854857 0 0 0 709.926034 40.813714 505.636571 505.636571 0 0 0 511.123749 0.731429c-69.046857 0-135.899429 13.531429-198.948572 40.228571a508.854857 508.854857 0 0 0-162.450286 109.494857 509.659429 509.659429 0 0 0-149.577142 361.325714 507.977143 507.977143 0 0 0 149.577142 361.179429c46.811429 46.884571 101.595429 83.821714 162.523429 109.494857 62.902857 26.624 130.048 40.228571 198.802286 40.228572a510.171429 510.171429 0 0 0 361.325714-149.723429 509.659429 509.659429 0 0 0 149.650286-361.252571 506.368 506.368 0 0 0-40.082286-198.802286z m-24.868571 166.912h-152.137143a745.764571 745.764571 0 0 0-41.398857-215.844571c27.209143-15.433143 52.882286-33.499429 77.165714-53.979429a446.244571 446.244571 0 0 1 116.297143 269.897143zM543.16032 65.828571c12.214857 0.877714 24.137143 2.194286 36.059429 4.096a680.594286 680.594286 0 0 1 102.765714 163.108572 440.32 440.32 0 0 1-138.825143 32.914286V65.609143zM479.087177 265.728a446.683429 446.683429 0 0 1-138.825143-32.914286c26.112-58.514286 60.562286-113.444571 102.692572-163.108571 11.922286-1.755429 23.990857-3.145143 36.132571-4.096v200.118857z m0 63.926857v150.016H281.455177c2.998857-64.219429 15.140571-127.195429 35.474286-187.392 51.2 21.138286 105.910857 33.938286 162.157714 37.302857z m0 213.942857v150.016a509.147429 509.147429 0 0 0-162.157714 37.376 680.009143 680.009143 0 0 1-35.474286-187.392H479.087177z m0 213.942857v199.972572a415.378286 415.378286 0 0 1-36.132571-4.096 680.594286 680.594286 0 0 1-102.692572-163.108572 453.851429 453.851429 0 0 1 138.825143-32.768z m64.146286 0c48.054857 3.510857 94.793143 14.628571 138.825143 32.914286a680.594286 680.594286 0 0 1-102.765715 163.108572 471.552 471.552 0 0 1-36.059428 4.096v-200.118858z m0-64v-149.942857h197.485714a684.251429 684.251429 0 0 1-35.474286 187.392 507.904 507.904 0 0 0-162.011428-37.449143z m0-213.869714V329.728a509.147429 509.147429 0 0 0 162.157714-37.376c20.333714 60.196571 32.329143 123.318857 35.328 187.392h-197.485714z m250.587428-314.148571a444.489143 444.489143 0 0 1-54.418285 38.326857c-16.822857-36.937143-36.278857-72.265143-58.733715-105.984a449.609143 449.609143 0 0 1 113.152 67.657143zM341.578606 98.084571c-22.381714 33.572571-42.130286 68.973714-58.587429 105.910858a466.797714 466.797714 0 0 1-54.418286-38.253715A438.418286 438.418286 0 0 1 341.578606 98.011429zM181.68832 209.846857c24.137143 20.48 50.102857 38.473143 77.165714 53.906286-24.429714 69.485714-38.253714 141.897143-41.398857 215.917714H65.318034a446.317714 446.317714 0 0 1 116.370286-269.897143zM65.244891 543.670857h152.137143c3.072 73.874286 17.042286 146.358857 41.398857 215.844572-27.209143 15.433143-52.955429 33.499429-77.165714 53.979428a446.244571 446.244571 0 0 1-116.297143-269.897143z m163.181715 314.148572c17.261714-14.189714 35.474286-26.989714 54.418285-38.253715 16.822857 36.790857 36.205714 72.192 58.660572 105.910857a448.950857 448.950857 0 0 1-113.078857-67.657142z m452.242285 67.584c22.454857-33.645714 42.203429-69.046857 58.660572-105.984 19.017143 11.410286 37.156571 24.137143 54.418286 38.326857a440.32 440.32 0 0 1-113.078858 67.657143z m159.890286-111.908572a508.269714 508.269714 0 0 0-77.165714-53.979428c24.502857-69.485714 38.326857-141.897143 41.398857-215.844572h152.137143a444.928 444.928 0 0 1-116.297143 269.824z"   p-id="5362"></path></svg>
