<?xml version="1.0" standalone="no"?><!DOCTYPE svg PUBLIC "-//W3C//DTD SVG 1.1//EN" "http://www.w3.org/Graphics/SVG/1.1/DTD/svg11.dtd"><svg t="1594257514958" class="icon" viewBox="0 0 1024 1024" version="1.1" xmlns="http://www.w3.org/2000/svg" p-id="9242" xmlns:xlink="http://www.w3.org/1999/xlink" width="200" height="200"><defs><style type="text/css"></style></defs><path d="M1024 256c0-93.866667-76.8-170.666667-170.666667-170.666667H170.666667C76.8 85.333333 0 162.133333 0 256v512c0 93.866667 76.8 170.666667 170.666667 170.666667h682.666666c93.866667 0 170.666667-76.8 170.666667-170.666667V256zM256 256c46.933333 0 85.333333 38.4 85.333333 85.333333s-38.4 85.333333-85.333333 85.333334-85.333333-38.4-85.333333-85.333334 38.4-85.333333 85.333333-85.333333z m682.666667 512c0 46.933333-38.4 85.333333-85.333334 85.333333H187.733333c-38.4 0-55.466667-46.933333-29.866666-72.533333l153.6-153.6c17.066667-17.066667 42.666667-17.066667 59.733333 0l25.6 25.6c17.066667 17.066667 42.666667 17.066667 59.733333 0l281.6-281.6c17.066667-17.066667 42.666667-17.066667 59.733334 0l128 128c8.533333 8.533333 12.8 17.066667 12.8 29.866667V768z" p-id="9243"></path></svg>