<?xml version="1.0" standalone="no"?><!DOCTYPE svg PUBLIC "-//W3C//DTD SVG 1.1//EN" "http://www.w3.org/Graphics/SVG/1.1/DTD/svg11.dtd"><svg t="1756552918666" class="icon" viewBox="0 0 1024 1024" version="1.1" xmlns="http://www.w3.org/2000/svg" p-id="9055" xmlns:xlink="http://www.w3.org/1999/xlink" width="200" height="200"><path d="M820.779 879.275l1.962-12.8 2.432-13.398 0.214-1.578 55.765-278.272 76.501-379.606-1.365 5.334c2.048-6.656 3.243-13.568 3.627-20.48l-0.086-8.534-0.042-1.408c-0.768-18.56-1.579-27.008-5.291-39.466a85.419 85.419 0 0 0-44.459-53.334l-6.869-3.029c-30.08-12.373-62.507-12.715-88.875 4.565l-1.749 1.28L623.531 172.8 410.88 278.613l-82.56 41.472-56.747 27.435-79.53 40.192-13.611 6.57a189.013 189.013 0 0 1-11.008 4.865l-22.101 8.96a270.25 270.25 0 0 0-14.806 6.57l-4.778 2.39C89.728 435.072 64 463.573 64 507.989c0 27.307 6.485 51.968 29.653 72.15l5.846 4.522 4.693 3.115 2.688 2.261 14.72 8.15c9.344 5.333 18.816 11.093 31.872 19.37l48.853 31.104 88.662 54.998h7.21l5.675 1.621a97.548 97.548 0 0 0 22.315 2.859l4.48-0.128-0.043 125.269c0 38.144 20.267 73.515 55.68 91.648l7.125 3.157c38.016 15.104 75.264 3.712 100.779-20.138l48.085-47.787 52.566 35.243 68.224 45.482c17.408 12.203 36.096 19.072 58.965 19.072h28.33l12.886-6.016c25.941-12.16 45.355-29.269 53.93-59.434 1.409-4.267 2.56-9.259 3.585-15.232z m25.728-746.155c7.253-6.827 20.906-6.827 35.029-0.085 13.61 6.784 13.61 20.778 14.507 41.984a22.485 22.485 0 0 1-0.939 5.333l-19.925 100.181-16.811 83.926c-6.827 32.042-13.141 64.128-19.541 96.128l-20.48 100.608-19.499 97.877-17.664 87.083-18.688 93.824-1.792 9.941-2.901 18.133a68.779 68.779 0 0 1-2.134 8.96c-2.688 9.472-10.837 14.891-19.498 18.944h-14.08c-9.088 0-15.488-2.73-23.168-8.106-22.699-15.318-45.867-30.678-69.035-46.038l-92.16-61.781c-0.939-0.939-2.773-1.877-4.096-1.408-0.64 0-1.195 0.427-1.835 0.939l-0.896 0.896c-8.618 9.002-17.237 18.048-26.368 27.05l-54.016 53.675c-7.253 6.784-20.906 13.61-34.986 6.784a38.059 38.059 0 0 1-20.864-34.688V677.333a24.405 24.405 0 0 1 3.925-13.909l3.328-3.883 11.563-12.629 64.298-67.67 34.304-36.565L683.99 361.301l24.491-26.197 0.64-0.47 2.048-2.175 1.28-1.707 6.955-7.339 3.669-4.437 11.264-11.392c0-0.427 0.427-0.427 0.939-0.853v-0.427c0-0.47-1.366-0.939-1.835-0.939l-1.024-0.426-4.395-2.304-6.784-3.115h-0.512l-2.73 2.688-0.939 1.11-3.072 2.517-5.077 4.522-4.054 4.054c-1.834 1.749-3.2 3.157-5.034 4.48l-11.307 10.368a65.963 65.963 0 0 1-6.357 5.845l-14.166 13.099-15.829 14.037-8.192 7.637a139.477 139.477 0 0 0-8.619 7.68l-9.045 8.107a152.747 152.747 0 0 1-9.088 8.107l-19.072 17.152c-3.67 3.2-6.827 5.845-10.027 9.088l-19.968 18.048a169.387 169.387 0 0 0-10.026 8.96l-5.206 4.309-26.112 23.637c-3.626 2.731-6.784 5.888-10.453 9.046l-5.205 4.352-54.23 48.896-4.437 4.48-13.739 12.202c-2.73 2.262-5.973 4.992-8.661 7.68-3.157 2.688-5.888 4.95-8.661 7.723l-8.15 7.168c-2.73 2.304-4.992 4.523-7.765 6.741l-13.995 13.099-22.741 20.779-2.347 1.92-3.84 3.925-5.162 4.523-2.731 2.261c-0.427 0.896-1.365 1.323-1.877 1.792 0 0.427-0.427 0.427-0.854 0.853l-0.426 0.512c-14.08 13.568-27.734 13.568-41.814 6.742h-0.469l-65.365-40.534c-33.579-20.778-66.304-43.349-100.864-62.293l-7.296-4.95c-6.272-5.46-7.68-16.255-7.68-23.893 0-16.725 13.184-27.093 26.837-33.92 16.725-8.533 34.432-13.952 51.285-22.058 25.728-12.374 51.286-25.686 77.014-38.699l38.826-19.072c51.286-24.32 102.144-50.901 152.918-76.203l177.194-87.978 194.39-96.939z"  p-id="9056"></path></svg>
