<?xml version="1.0" standalone="no"?><!DOCTYPE svg PUBLIC "-//W3C//DTD SVG 1.1//EN" "http://www.w3.org/Graphics/SVG/1.1/DTD/svg11.dtd"><svg t="1634262990658" class="icon" viewBox="0 0 1024 1024" version="1.1" xmlns="http://www.w3.org/2000/svg" p-id="2618" xmlns:xlink="http://www.w3.org/1999/xlink" width="200" height="200"><defs><style type="text/css"></style></defs><path d="M470.698667 968.533333H256a134.826667 134.826667 0 0 1-134.826667-134.826666v-643.413334a134.826667 134.826667 0 0 1 134.826667-134.826666h537.6a134.826667 134.826667 0 0 1 134.826667 134.826666v233.984a34.133333 34.133333 0 1 1-68.266667 0V190.293333a66.730667 66.730667 0 0 0-66.56-66.56H256a66.730667 66.730667 0 0 0-66.56 66.56v643.413334a66.730667 66.730667 0 0 0 66.56 66.56h214.698667a34.133333 34.133333 0 0 1 0 68.266666z" p-id="2619"  ></path><path d="M628.906667 642.218667l249.173333 3.242666a34.133333 34.133333 0 0 1 0 68.266667L631.466667 710.485333a34.133333 34.133333 0 0 1-34.133334-34.133333 32.768 32.768 0 0 1 31.573334-34.133333zM628.906667 765.610667l249.173333 3.242666a34.133333 34.133333 0 0 1 0 68.266667L631.466667 833.877333a34.133333 34.133333 0 0 1-34.133334-34.133333 32.768 32.768 0 0 1 31.573334-34.133333zM628.906667 888.832l249.173333 3.242667a34.133333 34.133333 0 0 1 0 68.266666L631.466667 957.098667a34.133333 34.133333 0 0 1-34.133334-34.133334 32.768 32.768 0 0 1 31.573334-34.133333zM690.858667 526.165333h-385.706667a34.133333 34.133333 0 1 1 0-68.266666h385.706667a34.133333 34.133333 0 1 1 0 68.266666z" p-id="2620"  ></path><path d="M305.152 526.165333a34.133333 34.133333 0 0 1-24.064-9.898666 34.133333 34.133333 0 0 1 0-48.298667l106.325333-106.325333A34.133333 34.133333 0 1 1 435.712 409.6l-106.325333 106.666667a34.133333 34.133333 0 0 1-24.234667 9.898666z" p-id="2621"  ></path></svg>
