<?xml version="1.0" standalone="no"?><!DOCTYPE svg PUBLIC "-//W3C//DTD SVG 1.1//EN" "http://www.w3.org/Graphics/SVG/1.1/DTD/svg11.dtd"><svg t="1739862049072" class="icon" viewBox="0 0 1024 1024" version="1.1" xmlns="http://www.w3.org/2000/svg" p-id="1619" xmlns:xlink="http://www.w3.org/1999/xlink" width="200" height="200"><path d="M945.664 390.144s-407.552-286.72-410.624-288.768c-25.088-17.408-25.088-17.408-51.2 1.024l-409.6 287.744c-13.312 8.704-14.336 28.16-4.608 42.496s29.184 18.432 41.472 9.728l28.16-20.48v476.16c0 17.408 14.336 32.768 32.768 32.768s32.768-14.336 32.768-32.768V377.856l305.152-215.552 310.272 219.136v109.568c0 17.408 14.336 32.768 32.768 32.768 17.408 0 32.768-14.336 32.768-32.768V428.032l22.016 14.336c13.312 8.704 30.72 4.608 41.472-9.728 10.752-15.36 7.68-33.792-3.584-42.496z" fill="#3877D7" p-id="1620"></path><path d="M280.576 820.736h102.4v102.4h-102.4zM280.576 667.136h102.4v102.4h-102.4zM280.576 509.44h102.4v102.4h-102.4z" fill="#3877D7" p-id="1621"></path><path d="M683.008 560.64H476.672c-30.72 0-32.256 6.144-32.256 35.84v206.336c0 12.8-2.048 58.88 2.048 67.072 4.096 8.192 11.264 11.264 23.552 11.264h34.304c13.824-80.896 126.464-80.896 140.288 0h68.096c31.744 0 31.744-7.68 31.744-37.376v-205.312c0-84.48 8.704-77.824-61.44-77.824zM959.488 740.352c-8.192-19.456-33.28-49.664-46.592-68.096-3.072-4.608-6.656-9.728-10.24-13.312-7.168-8.192-12.288-17.408-28.672-18.432l-92.672 0.512c-14.336 2.048-17.408 13.312-17.408 28.672v184.832c0 14.848 5.12 26.112 19.968 26.112 15.872-74.752 101.888-77.824 132.096-24.576 5.12 9.216 4.608 15.36 8.704 24.576 45.568 5.12 39.424-14.848 39.424-52.224 0-23.552 3.072-70.144-4.608-88.064z m-135.168 20.48V680.96c12.8-1.024 33.792-1.024 46.592 0 9.728 0.512 16.384 13.312 23.552 23.552 8.704 11.776 35.84 46.08 36.352 56.832-29.696-0.512-78.336 0-106.496-0.512z" fill="#489FEE" p-id="1622"></path><path d="M850.944 844.8c-24.576 2.56-44.544 22.528-42.496 49.664 2.048 24.576 23.552 44.544 50.176 41.984 24.064-2.048 44.032-23.552 41.472-50.688-2.048-23.04-23.552-43.52-49.152-40.96zM563.712 845.824c-22.016 5.632-41.472 27.136-34.304 55.808 5.12 21.504 27.136 40.448 55.296 34.304 21.504-4.608 40.96-27.648 34.816-55.296-5.632-21.504-27.648-41.984-55.808-34.816z" fill="#489FEE" p-id="1623"></path></svg>