<?xml version="1.0" standalone="no"?><!DOCTYPE svg PUBLIC "-//W3C//DTD SVG 1.1//EN" "http://www.w3.org/Graphics/SVG/1.1/DTD/svg11.dtd"><svg t="1739964935804" class="icon" viewBox="0 0 1024 1024" version="1.1" xmlns="http://www.w3.org/2000/svg" p-id="1586" xmlns:xlink="http://www.w3.org/1999/xlink" width="200" height="200"><path d="M231.298246 392.982456h449.122807v112.280702H231.298246zM231.298246 561.403509h224.561403v112.280702H231.298246z" fill="#1768E4" p-id="1587"></path><path d="M455.859649 954.385965H62.877193a56.140351 56.140351 0 0 1-56.140351-56.140351V336.842105a56.140351 56.140351 0 0 1 26.385965-44.91228l449.122807-280.701755a56.140351 56.140351 0 0 1 60.070175 0l449.122807 280.701755A56.140351 56.140351 0 0 1 1017.263158 336.842105v224.561404h-112.280702V370.526316L512 122.385965 119.017544 370.526316V842.105263h336.842105z" fill="#1768E4" p-id="1588"></path><path d="M727.017544 1024l-198.736842-198.175439a56.140351 56.140351 0 0 1 0-79.157894l198.736842-198.736842 79.157895 79.157894L647.298246 785.964912l158.877193 158.877193z" fill="#8BB3F1" p-id="1589"></path><path d="M592.842105 729.824561H1017.263158v112.280702h-424.421053z" fill="#8BB3F1" p-id="1590"></path></svg>