<?xml version="1.0" standalone="no"?><!DOCTYPE svg PUBLIC "-//W3C//DTD SVG 1.1//EN" "http://www.w3.org/Graphics/SVG/1.1/DTD/svg11.dtd"><svg t="1739861867330" class="icon" viewBox="0 0 1194 1024" version="1.1" xmlns="http://www.w3.org/2000/svg" p-id="1716" xmlns:xlink="http://www.w3.org/1999/xlink" width="233.203125" height="200"><path d="M1056.27650029 371.6L595.47650029 76.4C566.67650029 54.8 566.67650029 54.8 537.87650029 76.4L77.07650029 371.6c-14.4 7.2-21.6 28.8-7.2 43.2 14.4 14.4 36 21.6 50.4 7.2l28.8-21.6v489.6c0 14.4 14.4 36 36 36s36-14.4 36-36V357.2l345.6-216 352.8 223.2v115.2c0 14.4 14.4 36 36 36s36-14.4 36-36v-72l21.6 14.4c14.4 7.2 36 7.2 43.2-7.2 21.6-14.4 14.4-36 0-43.2" fill="#8a8a8a" p-id="1717"></path><path d="M501.87650029 753.2c0-14.4 28.8-43.2 43.2-57.6 7.2-14.4 14.4-28.8 21.6-28.8h50.4v79.2c-28.8 7.2-79.2 7.2-115.2 7.2z m165.6 122.4c14.4 0 21.6-14.4 21.6-28.8V659.6c0-14.4 0-28.8-21.6-28.8H566.67650029c-21.6 0-28.8 7.2-36 14.4 0 7.2-7.2 7.2-14.4 14.4-7.2 21.6-36 50.4-50.4 72-7.2 21.6-7.2 64.8-7.2 93.6 0 36-7.2 57.6 43.2 50.4 7.2-7.2 7.2-14.4 7.2-21.6 43.2-57.6 136.8-57.6 158.4 21.6z m352.8 0c14.4 0 21.6 0 28.8-14.4 7.2-7.2 0-57.6 0-72V580.4c0-28.8 0-36-36-36H782.67650029c-79.2 0-72-7.2-72 79.2v208.8c0 28.8 0 36 36 36h79.2c14.4-86.4 144-86.4 158.4 0 14.4 7.2 28.8 7.2 36 7.2zM278.67650029 602h115.2V494H278.67650029v108z m0 158.4h115.2V659.6H278.67650029v100.8z m0 158.4h115.2v-108H278.67650029v108z" fill="#1296db" p-id="1718"></path><path d="M905.07650029 904.4m-57.6 0a57.6 57.6 0 1 0 115.2 0 57.6 57.6 0 1 0-115.2 0Z" fill="#2c2c2c" p-id="1719"></path><path d="M588.27650029 904.4m-57.6 0a57.6 57.6 0 1 0 115.2 0 57.6 57.6 0 1 0-115.2 0Z" fill="#2c2c2c" p-id="1720"></path></svg>