<?xml version="1.0" standalone="no"?><!DOCTYPE svg PUBLIC "-//W3C//DTD SVG 1.1//EN" "http://www.w3.org/Graphics/SVG/1.1/DTD/svg11.dtd"><svg t="1739964890501" class="icon" viewBox="0 0 1024 1024" version="1.1" xmlns="http://www.w3.org/2000/svg" p-id="1267" xmlns:xlink="http://www.w3.org/1999/xlink" width="200" height="200"><path d="M232.043495 391.908147h447.895024v111.973756H232.043495zM232.043495 559.868781h335.921268v111.973756H232.043495z" fill="#1768E4" p-id="1268"></path><path d="M455.991007 951.776927H64.082861a55.986878 55.986878 0 0 1-55.986878-55.986878V335.921268a55.986878 55.986878 0 0 1 26.313832-44.789502l447.895025-279.93439a55.986878 55.986878 0 0 1 59.905959 0l447.895025 279.93439A55.986878 55.986878 0 0 1 1015.859788 335.921268v167.960635h-111.973756V369.513395L511.977885 122.051394 120.069739 369.513395V839.803171h335.921268z" fill="#1768E4" p-id="1269"></path><path d="M801.430045 1024l-78.941498-78.941498L880.931412 783.816293l-158.442865-158.442865 78.941498-76.702023 198.193548 198.193549a55.986878 55.986878 0 0 1 0 78.941498z" fill="#8BB3F1" p-id="1270"></path><path d="M511.977885 730.628759h423.260798v111.973756H511.977885z" fill="#8BB3F1" p-id="1271"></path></svg>