<?xml version="1.0" standalone="no"?><!DOCTYPE svg PUBLIC "-//W3C//DTD SVG 1.1//EN" "http://www.w3.org/Graphics/SVG/1.1/DTD/svg11.dtd"><svg t="1739964482450" class="icon" viewBox="0 0 1024 1024" version="1.1" xmlns="http://www.w3.org/2000/svg" p-id="11277" xmlns:xlink="http://www.w3.org/1999/xlink" width="200" height="200"><path d="M52.360533 728.814933L590.062933 273.783467l394.5472 441.173333-470.2208 270.6432z" fill="#CFD1D1" p-id="11278"></path><path d="M733.661867 744.311467l-0.375467 59.255466-67.618133 39.697067v-59.323733l67.9936-39.6288z m0 0" fill="#BB884F" p-id="11279"></path><path d="M665.668267 783.940267v59.323733l-99.293867-57.309867 0.341333-59.323733 98.952534 57.309867z m0 0" fill="#E0B477" p-id="11280"></path><path d="M733.661867 744.311467l-67.9936 39.6288-98.952534-57.309867 67.652267-39.697067 99.293867 57.378134z m0 0" fill="#EFCD90" p-id="11281"></path><path d="M608.017067 702.600533l-13.994667 7.9872 99.0208 57.344 13.9264-8.328533-98.952533-57.002667z m0 0" fill="#F7ECEA" p-id="11282"></path><path d="M693.0432 767.931733l13.9264-8.328533v14.336l-13.9264 7.9872v-13.994667z m0 0" fill="#C2AB9D" p-id="11283"></path><path d="M726.289067 800.256v1.365333l-10.683734 5.973334v-1.3312l10.683734-6.007467z m-1.979734 0.341333l-1.3312 0.682667v-7.3728l-0.955733 0.7168 1.672533-4.334933 2.013867 2.321066-1.365333 0.682667v7.304533z m-5.3248 2.9696l-1.3312 0.7168v-7.338666l-1.024 0.682666 1.706667-3.9936 2.013867 2.013867-1.3312 0.682667v7.236266z m0 0" fill="#5C4123" p-id="11284"></path><path d="M712.328533 808.5504v-10.308267a7.168 7.168 0 0 1 3.652267-5.666133l10.308267-6.007467c2.048-0.989867 3.652267-0.341333 3.652266 1.672534v10.3424a7.168 7.168 0 0 1-3.652266 5.666133l-10.308267 6.007467c-2.013867 1.024-3.652267 0.341333-3.652267-1.706667z m3.6864-15.291733c-1.672533 0.955733-3.037867 3.003733-3.037866 4.676266v10.3424c0 1.6384 1.365333 2.013867 3.037866 1.297067l10.308267-6.007467c1.672533-0.989867 3.037867-2.9696 3.037867-4.642133v-10.308267c0-1.7408-1.365333-2.048-3.037867-1.365333l-10.308267 6.007467z m-22.050133 20.002133c0-0.375467 0.989867-1.024 2.3552-1.672533 1.3312-0.682667 2.321067-0.989867 2.321067-0.682667 0-0.341333 0.682667-1.024 1.672533-1.672533v6.314666c0 0.7168 0.682667 0.7168 1.672533 0.341334 0.989867-0.341333 1.6384-1.6384 1.6384-2.286934 0-0.341333 0-0.341333-0.3072-0.341333-0.341333 0-0.341333 0.341333-0.341333 0.648533 0 0.375467-0.341333 1.024-0.989867 1.365334-0.989867 0.648533-0.682667-0.682667-0.682666-0.682667v-6.0416c0.989867-0.648533 1.672533-0.648533 1.672533-0.648533 0-0.341333 0.989867-1.024 2.286933-1.672534 1.365333-0.682667 2.3552-0.989867 2.3552-0.682666 0-2.6624-3.003733-3.652267-6.3488-2.048 0-0.3072-0.341333-0.3072-0.341333 0-0.341333 0-0.682667 0.375467-0.682667 0.7168-3.584 2.389333-6.280533 6.382933-6.280533 9.045333-0.3072 0-0.3072 0 0 0z m0 0" fill="#5C4123" p-id="11285"></path><path d="M691.677867 820.599467v-10.3424c0-2.013867 1.672533-4.676267 3.652266-5.666134l10.3424-6.007466c2.013867-0.989867 3.652267-0.341333 3.652267 1.672533v10.3424a7.236267 7.236267 0 0 1-3.652267 5.666133l-10.3424 6.007467c-1.979733 0.989867-3.652267 0.3072-3.652266-1.672533z m3.652266-15.6672c-1.672533 0.989867-3.003733 3.003733-3.003733 4.642133v10.3424c0 1.672533 1.3312 2.013867 3.003733 1.365333l10.3424-6.007466c1.6384-0.989867 3.037867-3.037867 3.037867-4.676267v-10.3424c0-1.672533-1.399467-2.013867-3.037867-1.3312l-10.3424 6.007467z m-17.954133 15.9744c0 1.672533 0.955733 2.3552 2.628267 1.672533v5.0176l-1.672534 0.955733v0.7168l3.9936-2.321066v-0.7168l-1.672533 1.024v-4.983467a8.635733 8.635733 0 0 0 2.696533-4.676267v-3.6864l-5.358933 3.345067v3.652267h-0.6144z m0 0" fill="#5C4123" p-id="11286"></path><path d="M671.3344 832.238933v-10.3424c0-2.013867 1.706667-4.676267 3.652267-5.632l10.3424-6.007466c2.013867-0.989867 3.652267-0.375467 3.652266 1.672533v10.3424a7.168 7.168 0 0 1-3.652266 5.632l-10.3424 6.0416c-1.9456 0.955733-3.652267 0.3072-3.652267-1.706667z m3.652267-15.325866c-1.672533 1.024-3.003733 3.003733-3.003734 4.676266v10.376534c0 1.672533 1.3312 2.013867 3.003734 1.3312l10.3424-6.007467c1.672533-1.024 3.003733-3.037867 3.003733-4.7104v-10.3424c0-1.6384-1.3312-1.979733-3.003733-1.297067l-10.3424 5.973334z m0 0" fill="#5C4123" p-id="11287"></path><path d="M643.003733 801.928533v59.2896l-67.959466 39.3216 0.341333-59.323733 67.618133-39.287467z m0 0" fill="#BB884F" p-id="11288"></path><path d="M575.351467 841.250133l-0.341334 59.323734-98.952533-57.002667v-59.630933l99.293867 57.309866z m0 0" fill="#E0B477" p-id="11289"></path><path d="M643.003733 801.928533l-67.618133 39.287467-99.293867-57.309867 67.959467-39.3216 98.952533 57.344z m0 0" fill="#EFCD90" p-id="11290"></path><path d="M517.700267 759.944533l-13.994667 8.328534 99.0208 56.968533 13.9264-7.9872-98.952533-57.309867z m0 0" fill="#F7ECEA" p-id="11291"></path><path d="M602.7264 825.2416l13.9264-7.9872v13.994667l-13.9264 8.328533v-14.336z m0 0" fill="#C2AB9D" p-id="11292"></path><path d="M636.0064 857.9072v1.3312l-10.683733 6.007467v-1.3312l10.683733-6.007467z m-2.013867 0.341333l-1.3312 0.7168v-7.714133l-0.955733 0.7168 1.6384-4.027733 1.672533 2.048-0.989866 0.648533v7.611733z m-5.290666 2.9696l-1.3312 0.682667v-7.338667l-1.024 0.682667 1.672533-4.334933 1.672533 2.013866-0.955733 0.989867v7.304533z m0 0" fill="#5C4123" p-id="11293"></path><path d="M621.704533 866.235733v-10.308266c0-2.048 1.672533-4.7104 3.618134-5.700267l10.376533-6.007467c1.979733-0.955733 3.618133-0.3072 3.618133 1.672534v10.376533a7.2704 7.2704 0 0 1-3.618133 5.632l-10.376533 6.007467c-1.9456 0.989867-3.618133 0.341333-3.618134-1.672534z m3.618134-15.6672c-1.672533 1.024-2.9696 3.037867-2.9696 4.676267v10.376533c0 1.6384 1.297067 2.013867 2.9696 1.297067l10.376533-6.007467c1.672533-0.989867 2.9696-3.003733 2.9696-4.642133v-10.376533c0-1.672533-1.297067-1.979733-2.9696-1.3312l-10.376533 6.007466z m0 0M603.374933 870.912s0.3072 0 0 0c0-0.341333 0.989867-0.989867 2.321067-1.6384 1.297067-0.7168 2.286933-1.024 2.286933-0.7168 0-0.341333 0.7168-0.955733 1.672534-1.672533v6.3488c0 0.682667 0.7168 0.682667 1.706666 0.341333 0.955733-0.341333 1.672533-1.6384 1.672534-2.3552 0-0.3072 0-0.3072-0.341334-0.3072-0.375467 0-0.375467 0.3072-0.375466 0.682667s-0.3072 1.024-0.955734 1.3312c-0.989867 0.682667-0.989867-0.682667-0.989866-0.682667v-6.007467c0.989867-0.648533 1.672533-0.648533 1.672533-0.648533 0-0.375467 0.989867-1.024 2.286933-1.706667 1.365333-0.648533 2.321067-0.955733 2.321067-0.648533 0-2.6624-2.9696-3.652267-6.314667-2.048 0-0.341333-0.341333-0.341333-0.341333 0-0.375467 0-0.375467 0.341333-0.375467 0.682667-3.242667 2.048-6.2464 6.382933-6.2464 9.045333z m0 0" fill="#5C4123" p-id="11294"></path><path d="M601.326933 877.909333v-10.308266c0-2.013867 1.706667-4.676267 3.6864-5.700267l10.3424-5.973333c2.013867-1.024 3.652267-0.375467 3.652267 1.6384v10.3424a7.168 7.168 0 0 1-3.652267 5.666133l-10.3424 6.007467c-1.979733 0.989867-3.6864 0.3072-3.6864-1.672534z m3.720534-15.325866c-1.672533 0.989867-3.037867 3.037867-3.037867 4.676266v10.3424c0 1.672533 1.365333 2.013867 3.037867 1.3312l10.3424-6.007466c1.672533-0.955733 2.9696-3.003733 2.9696-4.676267v-10.3424c0-1.6384-1.297067-1.979733-2.9696-1.3312l-10.3424 6.007467z m0 0M587.0592 878.592c0 1.6384 0.9216 2.286933 2.594133 1.6384v4.983467l-1.672533 0.989866v0.648534l4.027733-2.286934v-0.682666l-1.672533 1.024v-5.0176a8.738133 8.738133 0 0 0 2.696533-4.676267v-3.652267l-5.700266 3.345067v3.6864h-0.273067z m0 0" fill="#5C4123" p-id="11295"></path><path d="M580.7104 889.890133v-10.3424c0-2.013867 1.672533-4.676267 3.652267-5.666133l10.3424-6.007467c2.013867-0.989867 3.618133-0.3072 3.618133 1.672534v10.3424a7.168 7.168 0 0 1-3.618133 5.666133l-10.3424 6.007467c-1.979733 0.989867-3.652267 0.375467-3.652267-1.672534z m3.652267-15.6672c-1.706667 0.989867-3.003733 2.9696-3.003734 4.676267v10.3424c0 1.672533 1.297067 2.013867 3.003734 1.3312l10.3424-6.007467c1.672533-0.989867 2.9696-3.003733 2.9696-4.676266v-10.3424c0-1.672533-1.297067-1.979733-2.9696-1.3312l-10.3424 6.007466z m0 0" fill="#5C4123" p-id="11296"></path><path d="M684.987733 709.290667l-0.341333 59.323733-67.9936 39.6288 0.375467-59.323733 67.959466-39.6288z m0 0" fill="#A67946" p-id="11297"></path><path d="M617.028267 748.919467l-0.375467 59.323733L517.700267 750.933333l0.341333-59.323733 98.986667 57.309867z m0 0" fill="#E0B477" p-id="11298"></path><path d="M684.987733 709.290667l-67.959466 39.6288-98.986667-57.309867 67.652267-39.662933 99.293866 57.344z m0 0" fill="#EFCD90" p-id="11299"></path><path d="M559.377067 667.648l-13.994667 7.9872 98.986667 57.309867 13.960533-8.2944-98.952533-57.002667z m0 0" fill="#F7ECEA" p-id="11300"></path><path d="M644.369067 732.945067l13.960533-8.2944v14.301866l-13.960533 7.9872v-13.994666z m0 0" fill="#C2AB9D" p-id="11301"></path><path d="M677.6832 765.269333v1.3312l-10.683733 6.382934v-1.7408l10.683733-5.973334z m-2.048 0.341334l-1.297067 0.682666v-7.304533l-0.989866 0.648533 1.672533-4.334933 1.672533 2.321067-1.024 0.682666v7.304534z m-5.256533 3.037866l-1.365334 0.648534v-7.338667l-0.989866 0.648533 1.672533-3.959466 1.672533 2.048-0.955733 0.648533v7.304533z m0 0" fill="#5C4123" p-id="11302"></path><path d="M663.6544 773.597867v-10.308267a7.168 7.168 0 0 1 3.652267-5.700267l10.3424-6.007466c2.013867-0.989867 3.652267-0.341333 3.652266 1.672533v10.3424a7.236267 7.236267 0 0 1-3.652266 5.666133l-10.3424 6.007467c-2.321067 1.024-3.652267 0.341333-3.652267-1.672533z m3.345067-15.325867c-1.706667 0.989867-2.9696 3.003733-2.9696 4.676267v10.3424c0 1.672533 1.262933 2.013867 2.9696 1.365333l10.376533-6.007467c1.672533-0.989867 2.9696-3.037867 2.9696-4.7104v-10.3424c0-1.6384-1.297067-2.013867-2.9696-1.3312l-10.376533 6.007467z m0 0M645.0176 778.24c0.3072 0 0.3072 0 0 0 0-0.3072 0.955733-0.989867 2.321067-1.6384 1.3312-0.682667 2.286933-0.989867 2.286933-0.682667 0-0.341333 0.7168-0.989867 1.672533-1.672533v6.3488c0 0.682667 0.682667 0.682667 1.672534 0.341333s1.706667-1.672533 1.706666-2.321066c0-0.375467 0-0.375467-0.341333-0.375467-0.375467 0-0.375467 0.375467-0.375467 0.7168 0 0.3072-0.3072 0.955733-0.989866 1.297067-0.989867 0.682667-0.682667-0.682667-0.682667-0.682667v-6.007467c0.989867-0.648533 1.672533-0.648533 1.672533-0.648533 0-0.341333 0.989867-0.989867 2.321067-1.7408 1.3312-0.648533 2.321067-0.9216 2.321067-0.648533 0-2.6624-3.037867-3.652267-6.3488-1.979734 0-0.375467-0.341333-0.375467-0.341334 0-0.341333 0-0.341333 0.3072-0.341333 0.648534-3.584 2.389333-6.2464 6.417067-6.5536 9.045333z m0 0" fill="#5C4123" p-id="11303"></path><path d="M643.003733 785.6128v-10.3424c0-2.013867 1.706667-4.676267 3.6864-5.666133l10.3424-6.007467c2.013867-1.024 3.652267-0.3072 3.652267 1.672533v10.3424a7.236267 7.236267 0 0 1-3.652267 5.666134l-10.3424 6.007466c-1.979733 0.989867-3.6864 0.3072-3.6864-1.672533z m3.6864-15.6672c-1.672533 0.989867-3.037867 3.037867-3.037866 4.7104v10.308267c0 1.672533 1.365333 1.979733 3.037866 1.3312l10.3424-6.007467c1.6384-0.989867 3.003733-3.037867 3.003734-4.676267v-10.3424c0-1.672533-1.365333-1.979733-3.003734-1.3312l-10.3424 6.007467z m0 0M628.701867 785.954133c0 1.6384 0.955733 2.286933 2.628266 1.6384v4.983467l-1.672533 0.989867v0.648533l3.9936-2.286933v-0.7168l-1.6384 0.989866v-4.983466a8.6016 8.6016 0 0 0 2.6624-4.676267v-3.618133l-5.3248 3.310933v3.6864h-0.648533z m0 0" fill="#5C4123" p-id="11304"></path><path d="M622.660267 797.2864v-10.410667c0-1.979733 1.706667-4.642133 3.652266-5.632l10.3424-6.007466c2.013867-0.989867 3.652267-0.341333 3.652267 1.672533v10.3424a7.133867 7.133867 0 0 1-3.652267 5.632l-10.3424 6.0416c-2.286933 0.989867-3.652267 0.341333-3.652266-1.6384z m3.3792-15.36c-1.672533 0.989867-3.037867 3.003733-3.037867 4.676267v10.3424c0 1.672533 1.365333 2.013867 3.037867 1.3312l10.3424-6.0416c1.672533-0.989867 2.9696-2.9696 2.9696-4.642134v-10.376533c0-1.6384-1.297067-1.979733-2.9696-1.297067l-10.3424 6.007467z m0 0" fill="#5C4123" p-id="11305"></path><path d="M511.044267 38.5024l473.565866 273.237333v413.218134l-473.565866-273.271467V38.5024z m0 0" fill="#89929B" p-id="11306"></path><path d="M673.041067 593.988267v59.2896l67.959466 39.3216-0.341333-59.323734-67.618133-39.287466z m0 0" fill="#E0B477" p-id="11307"></path><path d="M740.6592 633.309867l0.341333 59.323733 98.952534-57.344v-59.2896l-99.293867 57.309867z m0 0" fill="#BB884F" p-id="11308"></path><path d="M673.041067 593.988267l67.618133 39.287466 99.293867-57.309866-67.959467-39.287467-98.952533 57.309867z m0 0" fill="#EFCD90" p-id="11309"></path><path d="M798.3104 552.004267l14.336 8.328533-99.293867 56.968533-13.994666-7.953066 98.952533-57.344z m0 0" fill="#F7ECEA" p-id="11310"></path><path d="M713.3184 617.301333l-13.994667-7.953066v13.960533l13.994667 8.328533v-14.336z m0 0" fill="#C2AB9D" p-id="11311"></path><path d="M680.004267 649.659733v1.672534l10.683733 6.007466v-1.399466l-10.683733-6.280534z m2.321066 0.682667l1.024 0.648533v-7.645866l1.297067 0.648533-1.979733-4.027733-1.672534 2.013866 1.3312 0.7168v7.645867z m5.0176 2.9696l1.365334 0.648533v-7.645866l1.297066 0.989866-2.048-4.334933-1.6384 2.013867 0.989867 0.682666v7.645867z m0 0" fill="#5C4123" p-id="11312"></path><path d="M690.653867 659.626667l-10.3424-6.007467a7.168 7.168 0 0 1-3.652267-5.666133v-10.3424c0-1.979733 1.672533-2.6624 3.652267-1.672534l10.3424 6.007467a7.168 7.168 0 0 1 3.652266 5.700267v10.308266c0.034133 2.3552-1.6384 3.003733-3.652266 1.672534z m-10.308267-23.005867c-1.672533-0.955733-2.9696-0.3072-2.9696 1.3312v10.3424c0 1.672533 1.297067 3.652267 2.9696 4.676267l10.3424 6.0416c1.672533 0.989867 3.003733 0.3072 3.003733-1.365334v-10.3424c0-1.672533-1.3312-3.652267-3.003733-4.642133l-10.3424-6.0416z m0 0M712.669867 662.971733c0-0.375467-0.989867-0.989867-2.321067-2.013866-1.3312-0.682667-2.321067-0.955733-2.321067-0.682667 0-0.3072-0.7168-0.989867-1.672533-1.672533v6.3488c0 0.682667-0.682667 0.682667-1.672533 0.3072-1.024-0.3072-1.672533-1.6384-1.672534-2.286934 0-0.375467 0-0.375467 0.341334-0.375466 0.3072 0 0.3072 0.375467 0.3072 0.7168 0 0.3072 0.375467 0.989867 1.024 1.297066 0.989867 0.648533 0.989867-0.682667 0.989866-0.682666v-6.007467c-0.989867-0.648533-1.672533-0.648533-1.672533-0.648533 0-0.341333-0.989867-1.024-2.286933-1.706667-1.365333-0.682667-2.3552-0.955733-2.3552-0.682667 0-2.6624 3.003733-3.618133 6.3488-2.013866 0-0.341333 0.341333-0.341333 0.341333 0 0.341333 0 0.341333 0.341333 0.341333 0.682666 3.242667 2.389333 6.280533 6.7584 6.280534 9.4208z m0 0" fill="#5C4123" p-id="11313"></path><path d="M710.997333 671.607467l-10.3424-5.973334a7.168 7.168 0 0 1-3.652266-5.632v-10.3424c0-2.013867 1.672533-2.696533 3.652266-1.706666l10.3424 5.973333c1.979733 1.024 3.652267 3.6864 3.652267 5.700267v10.3424c0.034133 2.013867-1.672533 2.6624-3.652267 1.6384z m-10.3424-22.971734c-1.6384-0.955733-3.003733-0.341333-3.003733 1.3312v10.3424c0 1.672533 1.365333 3.652267 3.003733 4.676267l10.3424 6.007467c1.672533 0.989867 2.9696 0.341333 2.9696-1.365334v-10.308266c0-1.672533-1.297067-3.652267-2.9696-4.642134l-10.3424-6.0416z m0 0M729.326933 670.6176c0 1.672533-0.989867 2.3552-2.6624 1.672533v4.983467l1.672534 0.955733v0.7168l-4.027734-2.3552v-0.648533l1.672534 0.989867v-4.983467a8.430933 8.430933 0 0 1-2.628267-4.676267v-3.652266l5.632 3.3792v3.618133h0.341333z m0 0" fill="#5C4123" p-id="11314"></path><path d="M731.682133 683.3152l-10.3424-6.007467c-2.048-1.3312-3.652267-3.652267-3.652266-5.700266v-10.308267c0-2.013867 1.6384-2.6624 3.652266-1.672533l10.3424 6.007466a7.168 7.168 0 0 1 3.652267 5.666134v10.3424c0 2.321067-1.672533 2.9696-3.652267 1.672533z m-10.3424-23.005867c-1.672533-0.989867-3.003733-0.3072-3.003733 1.3312v10.3424c0 1.672533 1.3312 3.652267 3.003733 4.642134l10.3424 6.007466c1.6384 0.989867 3.003733 0.375467 3.003734-1.297066v-10.3424c0-1.672533-1.365333-3.652267-3.003734-4.676267l-10.3424-6.007467z m0 0" fill="#5C4123" p-id="11315"></path><path d="M763.323733 651.332267l0.3072 59.255466 67.618134 39.697067v-59.323733l-67.925334-39.6288z m0 0" fill="#E0B477" p-id="11316"></path><path d="M831.2832 690.961067v59.323733l99.328-57.344-0.341333-59.323733-98.986667 57.344z m0 0" fill="#BB884F" p-id="11317"></path><path d="M763.323733 651.332267l67.925334 39.6288 98.986666-57.344-67.959466-39.3216-98.952534 57.0368z m0 0" fill="#EFCD90" p-id="11318"></path><path d="M888.9344 609.655467l13.994667 7.953066-99.293867 57.344-13.994667-8.328533 99.293867-56.968533z m0 0" fill="#F7ECEA" p-id="11319"></path><path d="M803.6352 674.952533l-13.994667-8.328533v14.301867l13.994667 8.021333v-13.994667z m0 0" fill="#C2AB9D" p-id="11320"></path><path d="M770.628267 707.2768v1.365333l10.3424 6.3488v-1.672533l-10.3424-6.0416z m2.048 0.341333l0.989866 0.648534v-7.338667l1.297067 0.7168-1.672533-3.9936-2.013867 2.013867 1.365333 0.648533v7.304533z m5.290666 2.9696l1.024 0.682667v-7.304533l1.297067 0.682666-1.672533-3.9936-2.013867 1.979734 1.3312 0.7168v7.236266z m0 0" fill="#5C4123" p-id="11321"></path><path d="M780.970667 717.312l-10.3424-6.0416a7.0656 7.0656 0 0 1-3.652267-5.632v-10.3424c0-2.013867 1.672533-2.6624 3.652267-1.672533l10.3424 6.007466a7.168 7.168 0 0 1 3.652266 5.632v10.376534c0 1.979733-1.672533 2.628267-3.652266 1.672533z m-10.3424-23.04c-1.672533-0.955733-2.9696-0.341333-2.9696 1.399467v10.308266c0 1.672533 1.297067 3.618133 2.9696 4.642134l10.3424 6.007466c1.672533 1.024 3.003733 0.341333 3.003733-1.297066v-10.3424c0-1.672533-1.3312-3.6864-3.003733-4.7104l-10.3424-6.007467z m0 0M802.952533 720.315733c0-0.341333-0.989867-1.024-2.321066-1.672533-1.3312-0.682667-2.321067-0.989867-2.321067-0.682667 0-0.341333-0.682667-1.024-1.672533-1.672533v6.314667c0 0.7168-0.682667 0.7168-1.672534 0.341333-0.989867-0.341333-1.672533-1.6384-1.672533-2.286933 0-0.341333 0-0.341333 0.341333-0.341334s0.341333 0.341333 0.341334 0.648534c0 0.375467 0.341333 0.989867 0.989866 1.365333 0.989867 0.648533 0.989867-0.682667 0.989867-0.682667v-6.007466c-0.989867-0.682667-1.672533-0.682667-1.672533-0.682667 0-0.341333-0.989867-1.024-2.286934-1.672533-1.365333-0.682667-2.3552-1.024-2.3552-0.682667 0-2.696533 3.003733-3.652267 6.3488-2.048 0-0.3072 0.341333-0.3072 0.341334 0 0.341333 0 0.341333 0.375467 0.341333 0.682667 3.618133 2.389333 6.280533 6.382933 6.280533 9.079466 0 0.3072 0 0.3072 0 0z m0 0" fill="#5C4123" p-id="11322"></path><path d="M801.621333 728.917333l-10.376533-6.007466a7.304533 7.304533 0 0 1-3.652267-5.632v-10.376534c0-1.979733 1.7408-2.628267 3.652267-1.672533l10.376533 6.007467a7.202133 7.202133 0 0 1 3.652267 5.666133v10.376533c0.034133 2.321067-1.6384 3.037867-3.652267 1.6384z m-10.6496-22.9376c-1.6384-0.989867-3.003733-0.341333-3.003733 1.297067v10.376533c0 1.6384 1.365333 3.652267 3.003733 4.676267l10.3424 6.007467c1.672533 0.989867 3.003733 0.341333 3.003734-1.365334v-10.3424c0-1.6384-1.3312-3.618133-3.003734-4.642133l-10.3424-6.007467z m0 0M819.643733 727.927467c0 1.672533-0.989867 2.3552-2.6624 1.672533v5.0176l1.672534 0.955733v0.7168l-3.9936-2.3552v-0.682666l1.6384 1.024v-4.7104a8.021333 8.021333 0 0 1-2.628267-4.642134v-3.652266l5.290667 3.345066v3.310934h0.682666z m0 0" fill="#5C4123" p-id="11323"></path><path d="M821.9648 740.932267l-10.3424-6.007467a7.168 7.168 0 0 1-3.652267-5.632v-10.3424c0-2.048 1.672533-2.6624 3.652267-1.672533l10.3424 6.007466a7.099733 7.099733 0 0 1 3.652267 5.632v10.3424c0 2.013867-1.6384 2.6624-3.652267 1.672534z m-10.3424-22.971734c-1.672533-1.024-3.003733-0.341333-3.003733 1.297067v10.3424c0 1.672533 1.3312 3.652267 3.003733 4.7104l10.3424 6.007467c1.672533 0.955733 3.003733 0.341333 3.003733-1.365334v-10.308266c0-1.706667-1.3312-3.652267-3.003733-4.7104l-10.3424-5.973334z m0 0" fill="#5C4123" p-id="11324"></path><path d="M745.949867 571.016533v59.323734l67.959466 39.253333-0.3072-59.255467-67.652266-39.3216z m0 0" fill="#E0B477" p-id="11325"></path><path d="M813.636267 610.338133l0.3072 59.255467 98.986666-57.309867v-59.2896l-99.293866 57.344z m0 0" fill="#BB884F" p-id="11326"></path><path d="M745.949867 571.016533l67.652266 39.3216 99.293867-57.344-67.9936-39.3216-98.952533 57.344z m0 0" fill="#EFCD90" p-id="11327"></path><path d="M871.253333 528.9984l13.994667 7.9872-98.952533 57.309867-13.994667-7.953067 98.952533-57.344z m0 0" fill="#F7ECEA" p-id="11328"></path><path d="M786.295467 594.295467l-13.994667-7.953067v13.960533l13.994667 7.9872v-13.994666z m0 0" fill="#C2AB9D" p-id="11329"></path><path d="M752.981333 626.619733v1.672534l10.683734 6.0416v-1.365334l-10.683734-6.3488z m1.979734 0.682667l1.365333 0.682667v-7.68l1.297067 0.7168-2.013867-4.027734-1.672533 2.048 0.989866 0.648534v7.611733z m5.358933 3.037867l1.262933 0.648533v-7.68l1.399467 0.682667-2.048-3.959467-1.672533 1.979733 1.024 0.7168v7.611734z m0 0" fill="#5C4123" p-id="11330"></path><path d="M763.630933 636.6208l-10.308266-6.007467a6.997333 6.997333 0 0 1-3.6864-5.632v-10.3424c0-2.013867 1.672533-2.6624 3.6864-1.672533l10.308266 6.007467c2.048 0.989867 3.652267 3.652267 3.652267 5.632v10.3424c0 2.389333-1.604267 3.003733-3.652267 1.672533z m-10.308266-22.9376c-1.706667-0.989867-3.037867-0.375467-3.037867 1.297067v10.376533c0 1.672533 1.3312 3.618133 3.037867 4.642133l10.308266 6.007467c1.672533 0.989867 3.037867 0.375467 3.037867-1.297067v-10.410666c0-1.6384-1.365333-3.618133-3.037867-4.676267l-10.308266-5.9392z m0 0M785.681067 639.965867c0-0.341333-1.024-0.989867-2.321067-1.6384-1.365333-0.7168-2.3552-0.989867-2.3552-0.7168 0-0.3072-0.682667-0.989867-1.672533-1.672534v6.3488c0 0.682667-0.682667 0.682667-1.672534 0.375467-0.989867-0.375467-1.672533-1.706667-1.672533-2.3552 0-0.341333 0-0.341333 0.375467-0.341333 0.3072 0 0.3072 0.341333 0.3072 0.7168 0 0.3072 0.341333 0.989867 0.989866 1.297066 0.989867 0.7168 0.682667-0.648533 0.682667-0.648533v-6.0416c-0.989867-0.648533-1.672533-0.648533-1.672533-0.648533 0-0.341333-0.989867-1.024-2.321067-1.706667s-2.286933-0.955733-2.286933-0.682667c0-2.628267 2.9696-3.618133 6.314666-1.979733 0-0.375467 0.341333-0.375467 0.341334 0 0.375467 0 0.375467 0.3072 0.375466 0.648533 3.549867 2.048 6.587733 6.417067 6.587734 9.045334z m0 0" fill="#5C4123" p-id="11331"></path><path d="M783.9744 648.635733l-10.308267-5.973333a7.133867 7.133867 0 0 1-3.652266-5.700267v-10.683733c0-2.013867 1.6384-2.6624 3.652266-1.672533l10.308267 6.007466c2.013867 1.365333 3.618133 3.6864 3.618133 5.700267v10.308267c0 2.3552-1.6384 3.037867-3.618133 2.013866z m-10.308267-23.005866c-1.672533-0.989867-3.037867-0.3072-3.037866 1.365333v10.3424c0 1.6384 1.365333 3.618133 3.037866 4.642133l10.308267 6.007467c1.706667 0.989867 3.003733 0.341333 3.003733-1.3312v-10.308267c0-1.672533-1.297067-3.6864-3.003733-4.7104l-10.308267-6.007466z m0 0M801.962667 647.68c0 1.6384-0.989867 2.286933-2.6624 1.6384v4.983467l1.672533 0.989866v0.648534l-3.9936-2.286934v-0.682666l1.672533 0.955733v-4.983467a8.2944 8.2944 0 0 1-2.6624-4.642133v-3.618133l5.3248 2.9696v4.027733h0.648534z m0 0" fill="#5C4123" p-id="11332"></path><path d="M804.625067 660.309333l-10.3424-6.007466a7.168 7.168 0 0 1-3.652267-5.666134v-10.308266c0-2.013867 1.672533-2.6624 3.652267-1.706667l10.3424 6.0416a7.0656 7.0656 0 0 1 3.652266 5.632v10.3424c0.034133 2.321067-1.6384 3.003733-3.652266 1.672533z m-10.308267-22.971733c-1.672533-0.989867-3.037867-0.375467-3.037867 1.297067v10.3424c0 1.672533 1.365333 3.652267 3.037867 4.676266l10.3424 6.007467c1.672533 0.989867 3.037867 0.375467 3.037867-1.365333v-10.308267c0-1.672533-1.365333-3.618133-3.037867-4.642133l-10.3424-6.007467z m0 0" fill="#5C4123" p-id="11333"></path><path d="M989.218133 722.944V309.76L515.720533 583.338667v413.184l41.301334-23.9616v-309.589334l401.578666-231.936v309.589334" fill="#387A86" p-id="11334"></path><path d="M989.218133 309.76L515.720533 583.338667v-9.0112l473.531734-273.578667v9.0112z m0 0" fill="#E0E0E0" p-id="11335"></path><path d="M42.1888 309.76l473.531733 273.578667v413.184L42.1888 722.944V309.76z m0 0" fill="#5CB8CF" p-id="11336"></path><path d="M208.145067 511.351467V443.392l57.6512 33.655467v67.618133l-57.6512-33.314133z m0 0" fill="#FFFFFF" p-id="11337"></path><path d="M215.1424 507.357867l43.656533 25.326933v-51.643733l-43.656533-25.326934v51.643734z m0 0" fill="#0F2E42" p-id="11338"></path><path d="M135.816533 469.367467v-67.652267l57.6512 33.314133v67.652267l-57.6512-33.314133z m0 0" fill="#FFFFFF" p-id="11339"></path><path d="M142.848 465.373867l43.656533 25.326933v-51.643733l-43.656533-25.361067v51.677867z m0 0" fill="#0F2E42" p-id="11340"></path><path d="M63.522133 427.690667v-67.618134l57.6512 33.314134v67.652266l-57.6512-33.348266z m0 0" fill="#FFFFFF" p-id="11341"></path><path d="M70.519467 423.697067l43.656533 25.326933v-51.643733L70.519467 372.053333v51.643734z m0 0" fill="#0F2E42" p-id="11342"></path><path d="M42.1888 309.76l473.531733 273.578667v-9.0112L42.1888 300.782933v8.977067z m0 0" fill="#E0E0E0" p-id="11343"></path><path d="M515.720533 574.327467L42.1888 300.782933 515.720533 27.511467l473.531734 273.271466-473.531734 273.544534z m0 0" fill="#FFFFFF" p-id="11344"></path><path d="M93.866667 300.782933l421.853866-243.6096 421.888 243.6096-421.888 243.575467L93.866667 300.782933z m0 0" fill="#E0E0E0" p-id="11345"></path><path d="M93.866667 300.782933l33.314133 19.626667L514.389333 96.802133V58.1632L93.866667 300.782933z m0 0" fill="#C4C4C4" p-id="11346"></path><path d="M515.720533 57.173333l-1.3312 0.989867v38.638933l1.3312-0.682666 388.266667 224.256 33.621333-19.626667-421.888-243.575467z m0 0" fill="#999999" p-id="11347"></path><path d="M583.031467 519.68l-10.683734-6.007467-0.3072-69.973333 10.6496 6.007467 0.341334 69.973333z m0 0" fill="#FF7A4A" p-id="11348"></path><path d="M582.656 449.706667l-10.6496-6.007467 304.913067-175.9232 10.683733 6.007467-304.9472 175.9232z m0 0" fill="#FF8E3D" p-id="11349"></path><path d="M887.6032 273.783467v69.973333l-304.571733 175.9232-0.375467-69.9392 304.9472-175.957333z m0 0" fill="#FF5B1F" p-id="11350"></path></svg>