<?xml version="1.0" standalone="no"?><!DOCTYPE svg PUBLIC "-//W3C//DTD SVG 1.1//EN" "http://www.w3.org/Graphics/SVG/1.1/DTD/svg11.dtd"><svg t="1756544569483" class="icon" viewBox="0 0 1024 1024" version="1.1" xmlns="http://www.w3.org/2000/svg" p-id="1846" id="mx_n_1756544569483" xmlns:xlink="http://www.w3.org/1999/xlink" width="200" height="200"><path d="M259.84 544h294.186667c17.706667 0 32-14.293333 32-32s-14.293333-32-32-32H259.84C198.826667 480 149.333333 430.293333 149.333333 369.28c0-61.013333 49.706667-110.72 110.72-110.72h332.8a143.232 143.232 0 0 0 139.52 111.146667c78.933333 0 143.146667-64.213333 143.146667-143.146667s-64.213333-143.146667-143.146667-143.146667c-68.053333 0-125.013333 47.573333-139.52 111.146667h-332.8C163.626667 194.773333 85.333333 273.066667 85.333333 369.28c0 96.426667 78.293333 174.72 174.506667 174.72zM732.16 147.413333c43.733333 0 79.146667 35.626667 79.146667 79.146667 0 43.733333-35.626667 79.146667-79.146667 79.146667-43.733333 0-79.146667-35.626667-79.146667-79.146667s35.413333-79.146667 79.146667-79.146667zM456.746667 755.413333h-89.386667c-17.066667-60.16-72.32-104.32-137.813333-104.32-78.933333 0-143.146667 64.213333-143.146667 143.146667s64.213333 143.146667 143.146667 143.146667c70.4 0 129.066667-51.2 140.8-118.186667h86.4c17.706667 0 32-14.293333 32-32s-14.293333-31.786667-32-31.786667z m-227.2 118.186667c-43.733333 0-79.146667-35.626667-79.146667-79.146667 0-43.733333 35.626667-79.146667 79.146667-79.146666s79.146667 35.626667 79.146666 79.146666c0.213333 43.52-35.413333 79.146667-79.146666 79.146667zM715.52 638.08c-56.746667 0-103.04 46.293333-103.04 103.04s46.293333 103.04 103.04 103.04 103.04-46.293333 103.04-103.04-46.293333-103.04-103.04-103.04z m0 141.866667a39.04 39.04 0 1 1 0.042667-78.122667 39.04 39.04 0 0 1-0.042667 78.122667z" p-id="1847"></path><path d="M829.013333 544.426667H602.026667l-113.493334 196.693333 113.493334 196.693333h226.986666l113.493334-196.693333-113.493334-196.693333z m-36.906666 329.173333h-153.173334l-76.586666-132.693333 76.586666-132.693334h153.173334l76.586666 132.693334-76.586666 132.693333z" p-id="1848"></path></svg>