<?xml version="1.0" standalone="no"?><!DOCTYPE svg PUBLIC "-//W3C//DTD SVG 1.1//EN" "http://www.w3.org/Graphics/SVG/1.1/DTD/svg11.dtd"><svg t="1747912069591" class="icon" viewBox="0 0 1024 1024" version="1.1" xmlns="http://www.w3.org/2000/svg" p-id="7355" xmlns:xlink="http://www.w3.org/1999/xlink" width="200" height="200"><path d="M573.3 102.6H453.8c-49.5 0-89.6 40.1-89.6 89.6 0 49.5 40.1 89.6 89.6 89.6h119.5c49.5 0 89.6-40.1 89.6-89.6 0-49.5-40.1-89.6-89.6-89.6z m0 143.2H453.8c-29.6 0-53.6-24-53.6-53.6s24-53.6 53.6-53.6h119.5c29.6 0 53.6 24 53.6 53.6 0 29.5-24.1 53.6-53.6 53.6zM573.3 422.1H453.8c-49.5 0-89.6 40.1-89.6 89.6 0 49.5 40.1 89.6 89.6 89.6h119.5c49.5 0 89.6-40.1 89.6-89.6 0-49.5-40.1-89.6-89.6-89.6z m0 143.2H453.8c-29.6 0-53.6-24-53.6-53.6s24-53.6 53.6-53.6h119.5c29.6 0 53.6 24 53.6 53.6s-24.1 53.6-53.6 53.6zM573.3 741.6H453.8c-49.5 0-89.6 40.1-89.6 89.6 0 49.5 40.1 89.6 89.6 89.6h119.5c49.5 0 89.6-40.1 89.6-89.6 0-49.5-40.1-89.6-89.6-89.6z m0 143.2H453.8c-29.6 0-53.6-24-53.6-53.6s24-53.6 53.6-53.6h119.5c29.6 0 53.6 24 53.6 53.6s-24.1 53.6-53.6 53.6zM309.7 812.1l-36-31c-7.6-6.5-18.2-8-27.3-3.9-9.1 4.2-14.9 13.2-14.9 23.2v21.2C146.3 804.8 88.6 728 102.6 648.7c6.8-38.7 29.5-72.3 63.9-94.6 34.8-22.6 77.4-30.9 119.8-23.4 9.8 1.7 19.1-4.8 20.8-14.6s-4.8-19.1-14.6-20.8c-51.5-9.1-103.2 1.1-145.6 28.6-42.9 27.8-71.2 69.9-79.8 118.5-17.6 99.9 54.9 196.5 161.7 215.3 0.9 0.2 1.8 0.2 2.7 0.3v4.5c0 10 5.8 19 14.9 23.2 3.4 1.6 7 2.3 10.6 2.3 6 0 11.9-2.1 16.7-6.2l36-31c5.6-4.8 8.9-11.9 8.9-19.3s-3.3-14.6-8.9-19.4zM956.8 320.4c-8.6-48.6-36.9-90.7-79.8-118.5-42.5-27.5-94.2-37.7-145.6-28.6-9.8 1.7-16.3 11.1-14.6 20.8 1.7 9.8 11.1 16.3 20.8 14.6 42.5-7.5 85 0.8 119.8 23.4 34.4 22.3 57.1 55.9 63.9 94.6 14 79.6-44.1 156.7-129.9 173.1v-18.4c0-10-5.8-19-14.9-23.2-9.1-4.2-19.7-2.6-27.3 3.9l-36 31c-5.6 4.8-8.9 11.9-8.9 19.3s3.2 14.5 8.9 19.3l36 31c4.7 4.1 10.7 6.2 16.7 6.2 3.6 0 7.2-0.8 10.6-2.3 9.1-4.2 14.9-13.2 14.9-23.2v-7.5h0.6c1 0 2.1-0.1 3.1-0.3 106.8-18.7 179.3-115.3 161.7-215.2z" p-id="7356"></path></svg>