<?xml version="1.0" standalone="no"?><!DOCTYPE svg PUBLIC "-//W3C//DTD SVG 1.1//EN" "http://www.w3.org/Graphics/SVG/1.1/DTD/svg11.dtd"><svg t="1634193860038" class="icon" viewBox="0 0 1024 1024" version="1.1" xmlns="http://www.w3.org/2000/svg" p-id="1779" xmlns:xlink="http://www.w3.org/1999/xlink" width="200" height="200"><defs><style type="text/css"></style></defs><path d="M345 677.5h283.1c38.1 0 68.9-30.9 68.9-68.9V457.5c0-13.3-10.7-24-24-24H345c-13.3 0-24 10.7-24 24v196c0 13.3 10.7 24 24 24zM397 393.5h224c13.3 0 24-10.7 24-24v-92c0-13.3-10.7-24-24-24H397c-13.3 0-24 10.7-24 24v92c0 13.3 10.7 24 24 24zM83.5 677.5h177c13.3 0 24-10.7 24-24v-236c0-13.2 10.8-24 24.1-24 13.2 0 23.9-10.8 23.9-24v-53c0-13.3-10.7-24-24-24h-225c-13.3 0-24 10.7-24 24v337c0 13.3 10.7 24 24 24z" p-id="1780"  ></path><path d="M922 134h-24.6c-77.3 0-139.9 62.6-140 139.9l-0.3 379.5c0 46.2-37.5 83.6-83.7 83.6H84c-13.3 0-24 10.7-24 24v100c0 13.3 10.7 24 24 24h57.6c1.8-54.7 46.8-98.5 101.9-98.5s100.1 43.8 101.9 98.5h247.1c1.8-54.7 46.8-98.5 101.9-98.5s100.1 43.8 101.9 98.5c48.4 0 87.6-39.2 87.6-87.6V315c0-29.8 24.2-54 54-54 13.3 0 24-10.7 24-24v-63c0.1-22.1-17.8-40-39.9-40z" p-id="1781"  ></path><path d="M246.3 821.5c-40.8-1.3-74.1 32-72.8 72.8 1.2 36.9 31.2 67 68.2 68.2 40.8 1.3 74.1-32 72.8-72.8-1.2-36.9-31.3-67-68.2-68.2zM696.3 821.5c-40.8-1.3-74.1 32-72.8 72.8 1.2 36.9 31.2 67 68.2 68.2 40.8 1.3 74.1-32 72.8-72.8-1.2-36.9-31.3-67-68.2-68.2z" p-id="1782"  ></path></svg>
