<?xml version="1.0" standalone="no"?><!DOCTYPE svg PUBLIC "-//W3C//DTD SVG 1.1//EN" "http://www.w3.org/Graphics/SVG/1.1/DTD/svg11.dtd"><svg t="1595234951020" class="icon" viewBox="0 0 1024 1024" version="1.1" xmlns="http://www.w3.org/2000/svg" p-id="11039" xmlns:xlink="http://www.w3.org/1999/xlink" width="300" height="300"><defs><style type="text/css"></style></defs><path d="M912 848H303.744a48.064 48.064 0 0 0 0 96h608.32a48 48 0 1 0-0.064-96zM128 64c-34.816 0-64 29.184-64 64 0 35.776 29.184 64 64 64 35.776 0 64-28.224 64-64 0-34.816-28.224-64-64-64zM303.744 176h608.32a48.32 48.32 0 0 0 47.744-48 48.256 48.256 0 0 0-47.744-48H303.744A48.256 48.256 0 0 0 256 128c0 26.112 21.568 48 47.744 48zM303.744 560h608.576A48.256 48.256 0 0 0 960 512a48.32 48.32 0 0 0-47.744-48H303.744A48.256 48.256 0 0 0 256 512c0 26.176 21.632 48 47.744 48zM128 448c-34.816 0-64 28.224-64 64 0 34.816 29.184 64 64 64 35.776 0 64-29.184 64-64 0-35.776-28.224-64-64-64zM128 832c-34.816 0-64 29.184-64 64 0 35.776 29.184 64 64 64 35.776 0 64-28.224 64-64 0-34.816-28.224-64-64-64z" p-id="11040"></path></svg>