<?xml version="1.0" standalone="no"?><!DOCTYPE svg PUBLIC "-//W3C//DTD SVG 1.1//EN" "http://www.w3.org/Graphics/SVG/1.1/DTD/svg11.dtd"><svg t="1712642605662" class="icon" viewBox="0 0 1024 1024" version="1.1" xmlns="http://www.w3.org/2000/svg" p-id="1740" xmlns:xlink="http://www.w3.org/1999/xlink" width="200" height="200"><path d="M0 0h1024v1024H0V0z" fill="#202425" opacity=".01" p-id="1741"></path><path d="M102.4 136.533333a34.133333 34.133333 0 0 1 34.133333-34.133333h750.933334a34.133333 34.133333 0 0 1 34.133333 34.133333v34.133334a34.133333 34.133333 0 0 1-34.133333 34.133333H136.533333a34.133333 34.133333 0 0 1-34.133333-34.133333V136.533333z" fill="#FFAA44" p-id="1742"></path><path d="M68.266667 238.933333a34.133333 34.133333 0 0 0-34.133334 34.133334v546.133333a34.133333 34.133333 0 0 0 34.133334 34.133333h307.2l124.450133 124.450134a17.066667 17.066667 0 0 0 24.1664 0L648.533333 853.333333h307.2a34.133333 34.133333 0 0 0 34.133334-34.133333V273.066667a34.133333 34.133333 0 0 0-34.133334-34.133334H68.266667z" fill="#11AA66" p-id="1743"></path><path d="M238.933333 477.866667a68.266667 68.266667 0 1 1 0 136.533333 68.266667 68.266667 0 0 1 0-136.533333z m273.066667 0a68.266667 68.266667 0 1 1 0 136.533333 68.266667 68.266667 0 0 1 0-136.533333z m273.066667 0a68.266667 68.266667 0 1 1 0 136.533333 68.266667 68.266667 0 0 1 0-136.533333z" fill="#FFFFFF" p-id="1744"></path></svg>