<?xml version="1.0" standalone="no"?><!DOCTYPE svg PUBLIC "-//W3C//DTD SVG 1.1//EN" "http://www.w3.org/Graphics/SVG/1.1/DTD/svg11.dtd"><svg t="1576330526329" class="icon" viewBox="0 0 1024 1024" version="1.1" xmlns="http://www.w3.org/2000/svg" p-id="2815" width="250" height="250" xmlns:xlink="http://www.w3.org/1999/xlink"><defs><style type="text/css"></style></defs><path d="M722.823529 0 287.322353 0C228.592941 0 180.705882 47.585882 180.705882 106.616471L180.705882 904.131765C180.705882 963.162353 228.592941 1010.748235 287.322353 1010.748235L722.823529 1010.748235C781.854118 1010.748235 829.44 963.162353 829.44 904.131765L829.44 106.616471C829.44 47.585882 781.854118 0 722.823529 0L722.823529 0ZM447.849412 64.451765 562.296471 64.451765C575.247059 64.451765 585.788235 74.992941 585.788235 87.943529 585.788235 100.894118 575.247059 111.435294 562.296471 111.435294L447.849412 111.435294C434.898824 111.435294 424.658824 100.894118 424.658824 87.943529 424.658824 74.992941 434.898824 64.451765 447.849412 64.451765L447.849412 64.451765ZM505.072941 974.004706C478.268235 974.004706 456.583529 952.32 456.583529 925.515294 456.583529 898.710588 478.268235 877.025882 505.072941 877.025882 531.877647 877.025882 553.562353 898.710588 553.562353 925.515294 553.562353 952.32 531.877647 974.004706 505.072941 974.004706L505.072941 974.004706ZM252.385882 171.369412 758.061176 171.369412 758.061176 839.68 252.385882 839.68 252.385882 171.369412Z" p-id="2816"></path></svg>