<?xml version="1.0" standalone="no"?><!DOCTYPE svg PUBLIC "-//W3C//DTD SVG 1.1//EN" "http://www.w3.org/Graphics/SVG/1.1/DTD/svg11.dtd"><svg t="1739950984968" class="icon" viewBox="0 0 1024 1024" version="1.1" xmlns="http://www.w3.org/2000/svg" p-id="97494" xmlns:xlink="http://www.w3.org/1999/xlink" width="200" height="200"><path d="M23.552 867.328a489.472 140.288 0 1 0 978.944 0 489.472 140.288 0 1 0-978.944 0Z" fill="#EEF2FF" p-id="97495"></path><path d="M406.528 232.448h202.752c62.464 0 110.592-134.144 110.592-134.144 0-39.936-4.096-70.656-73.728-72.704-69.632-2.048-86.016 48.128-136.192 48.128-51.2 0-76.8-38.912-140.288-48.128-63.488-8.192-73.728 32.768-73.728 72.704 0 0 48.128 134.144 110.592 134.144z" fill="#70D4FF" p-id="97496"></path><path d="M619.52 274.432H406.528C169.984 274.432 112.64 732.16 112.64 732.16c0 60.416 49.152 120.832 110.592 120.832h581.632c61.44 0 110.592-60.416 110.592-120.832-1.024 0-59.392-457.728-295.936-457.728z" fill="#4E8EFF" p-id="97497"></path><path d="M523.264 482.304c18.432 0 32.768 13.312 33.792 31.744l5.12 227.328c0 18.432-13.312 32.768-31.744 33.792s-32.768-13.312-33.792-31.744L491.52 515.072c0-17.408 13.312-32.768 31.744-32.768z" fill="#FFFFFF" p-id="97498"></path><path d="M459.776 398.336l62.464 59.392 59.392-62.464c11.264-12.288 29.696-13.312 43.008-4.096l3.072 3.072c13.312 12.288 13.312 32.768 1.024 46.08l-67.584 70.656c-10.24 10.24-25.6 13.312-37.888 7.168-12.288 7.168-27.648 5.12-37.888-5.12l-70.656-67.584c-12.288-12.288-13.312-32.768 0-46.08 12.288-12.288 32.768-12.288 45.056-1.024zM443.392 548.864l162.816-4.096c21.504-1.024 32.768 10.24 33.792 31.744 1.024 21.504-10.24 32.768-31.744 33.792l-162.816 4.096c-21.504 1.024-32.768-10.24-33.792-31.744 0-21.504 10.24-32.768 31.744-33.792zM445.44 647.168l162.816-4.096c21.504-1.024 32.768 10.24 33.792 31.744 1.024 21.504-10.24 32.768-31.744 33.792l-162.816 4.096c-21.504 1.024-32.768-10.24-33.792-31.744 0-22.528 10.24-33.792 31.744-33.792z" fill="#FFFFFF" p-id="97499"></path></svg>