<?xml version="1.0" standalone="no"?><!DOCTYPE svg PUBLIC "-//W3C//DTD SVG 1.1//EN" "http://www.w3.org/Graphics/SVG/1.1/DTD/svg11.dtd"><svg t="1739949867580" class="icon" viewBox="0 0 1095 1024" version="1.1" xmlns="http://www.w3.org/2000/svg" p-id="85096" xmlns:xlink="http://www.w3.org/1999/xlink" width="213.8671875" height="200"><path d="M867.84 306.176c0-43.52-31.232-72.704-77.312-72.704H307.2c-48.128 0-79.872 29.696-79.872 74.24v2.56c0 45.056 29.696 73.216 76.8 73.216h487.424c45.568 0 76.8-29.696 76.8-73.216v-4.096z" fill="#BBE2FF" p-id="85097"></path><path d="M661.504 657.92c12.8 0 23.04 10.24 23.04 23.04s-10.24 23.04-23.04 23.04h-91.136v91.136c0 12.8-10.24 23.04-23.04 23.04s-23.04-10.24-23.04-23.04v-91.136H433.664c-12.8 0-23.04-10.24-23.04-23.04s10.24-23.04 23.04-23.04h91.136v-45.568H433.664c-12.8 0-23.04-10.24-23.04-23.04s10.24-23.04 23.04-23.04h91.136v-15.36L440.32 467.456c-8.704-8.704-8.704-22.528 0-30.72 8.704-8.704 22.528-8.704 31.232 0l81.92 81.408 84.48-84.48c9.216-9.216 23.552-9.216 32.256 0s9.216 23.552 0 32.256L573.44 563.2c-1.024 1.024-1.536 1.536-3.072 2.56v1.536h91.136c12.8 0 23.04 10.24 23.04 23.04s-10.24 23.04-23.04 23.04h-91.136v45.568h91.136v-1.024zM957.44 387.072c0-55.808-39.936-93.184-98.816-93.184H239.616c-61.44 0-101.888 37.888-101.888 95.232v449.024c0 57.344 37.888 93.696 97.792 93.696h623.616c58.368 0 98.304-37.888 98.304-93.696V387.072z" fill="#0091EB" p-id="85098"></path><path d="M388.608 191.488c8.192 8.704 18.432 7.168 28.672 7.168h267.264c19.968 0 32.768-12.288 31.744-30.72-1.024-20.48-12.288-30.208-30.208-30.208H422.4c-7.68 0-15.872 0-23.552 1.536-11.264 2.048-16.896 11.776-19.456 23.552-1.536 11.776 2.048 21.504 9.216 28.672z" fill="#FFB541" p-id="85099"></path></svg>