<?xml version="1.0" standalone="no"?><!DOCTYPE svg PUBLIC "-//W3C//DTD SVG 1.1//EN" "http://www.w3.org/Graphics/SVG/1.1/DTD/svg11.dtd"><svg t="1644211292278" class="icon" viewBox="0 0 1024 1024" version="1.1" xmlns="http://www.w3.org/2000/svg" p-id="3234" xmlns:xlink="http://www.w3.org/1999/xlink" width="16" height="16"><defs><style type="text/css"></style></defs><path d="M800 192a64 64 0 0 1 64 64v352a64 64 0 0 1-64 64h-256v96h260.352v64h-576v-64L480 767.968V672H224a64 64 0 0 1-64-64V256a64 64 0 0 1 64-64h576zM224 608h576v-134.56H445.76l-29.056-32-86.912 94.336-32.032-62.304L224 473.44V608zM800 256H224v153.44h33.696l49.536-79.68 42.208 95.456 63.68-74.624 52.032 58.88L800 409.44V256z" p-id="3235"></path></svg>