<?xml version="1.0" standalone="no"?><!DOCTYPE svg PUBLIC "-//W3C//DTD SVG 1.1//EN" "http://www.w3.org/Graphics/SVG/1.1/DTD/svg11.dtd"><svg t="1636365771756" class="icon" viewBox="0 0 1024 1024" version="1.1" xmlns="http://www.w3.org/2000/svg" p-id="3183" xmlns:xlink="http://www.w3.org/1999/xlink" width="200" height="200"><defs><style type="text/css"></style></defs><path d="M928 1024h-832a32 32 0 0 1-32-32v-896a32 32 0 0 1 32-32h128a32 32 0 0 1 0 64H128v832h768V128h-96a32 32 0 0 1 0-64h128a32 32 0 0 1 32 32v896a32 32 0 0 1-32 32z" p-id="3184"  ></path><path d="M672 192h-320a32 32 0 0 1-32-32v-128a32 32 0 0 1 32-32h320a32 32 0 0 1 32 32v128a32 32 0 0 1-32 32zM384 128h256V64H384zM736 384h-256a32 32 0 0 1 0-64h256a32 32 0 0 1 0 64zM736 576h-256a32 32 0 0 1 0-64h256a32 32 0 0 1 0 64zM352 384h-64a32 32 0 0 1 0-64h64a32 32 0 0 1 0 64zM352 576h-64a32 32 0 0 1 0-64h64a32 32 0 0 1 0 64zM736 768h-256a32 32 0 0 1 0-64h256a32 32 0 0 1 0 64zM352 768h-64a32 32 0 0 1 0-64h64a32 32 0 0 1 0 64z" p-id="3185"  ></path></svg>
