<svg width="378" height="500" xmlns="http://www.w3.org/2000/svg" data-name="Layer 1">
 <title/>

 <g>
  <title>Layer 1</title>
  <path class="cls-1" d="m300.09998,497.99996l-223.19998,0a74.39999,74.39999 0 0 1 -74.39999,-74.39999l0,-347.19997a74.39999,74.39999 0 0 1 74.39999,-74.39999l163.43199,0a24.8,24.8 0 0 1 17.36,7.192l109.61599,109.61599a24.8,24.8 0 0 1 7.192,17.36l0,287.43198a74.39999,74.39999 0 0 1 -74.39999,74.39999l-0.00001,-0.00001z" fill="#757575" id="svg_1" stroke="null"/>
  <path class="cls-2" d="m357.13997,144.35199l-89.27999,0a37.2,37.2 0 0 1 -37.2,-37.2l0,-89.27999a13.64,13.64 0 0 1 23.312,-9.672l112.83999,112.83999a13.64,13.64 0 0 1 -9.672,23.312z" fill="#e0e0e0" id="svg_2" stroke="null"/>
  <text font-weight="bold" fill="#ffffff" stroke="null" x="126.69818" y="425.69818" id="svg_7" stroke-width="0" font-size="50" font-family="Noto Sans JP" text-anchor="start" xml:space="preserve">文  件</text>
 </g>
</svg>