<?xml version="1.0" standalone="no"?><!DOCTYPE svg PUBLIC "-//W3C//DTD SVG 1.1//EN" "http://www.w3.org/Graphics/SVG/1.1/DTD/svg11.dtd"><svg t="1634262682792" class="icon" viewBox="0 0 1024 1024" version="1.1" xmlns="http://www.w3.org/2000/svg" p-id="2291" xmlns:xlink="http://www.w3.org/1999/xlink" width="200" height="200"><defs><style type="text/css"></style></defs><path d="M348.23046 961.147756c20.459021-88.655758 180.295122-88.655758 200.754144 0h97.606579c42.62296 0 46.032797-8.524592 46.032797-42.62296V694.754254c0-92.918054 13.639347-85.245921-87.803298-85.245921H310.296026c-42.62296 0-46.032797 6.393444-46.032798 39.639353v225.90169a321.377121 321.377121 0 0 0 2.557378 74.163952c5.540985 9.377051 16.196725 12.360659 34.098368 12.360658zM998.230606 809.836247a468.852564 468.852564 0 0 0-66.491818-75.01641c-5.540985-5.114755-11.08197-10.22951-14.918036-14.491807a54.557389 54.557389 0 0 0-42.622961-20.032791h-130.000029c-20.032791 2.131148-24.295087 14.918036-24.295087 31.540991v202.885291a25.573776 25.573776 0 0 0 27.278694 28.983613c23.016399-82.262314 144.918065-85.245921 188.393485-26.852465a251.049237 251.049237 0 0 1 12.360659 26.852465c65.213129 6.393444 56.688537-16.622955 56.688537-57.114767A285.147605 285.147605 0 0 0 998.230606 809.836247z m-191.377092 20.885251v-89.508217h66.491818c19.180332 0 23.016399 14.918036 33.672139 26.426235s50.295093 49.868864 51.573782 61.377063c-41.770501 0-112.524615 0.852459-151.737739 0z" p-id="2292"  ></path><path d="M433.902611 922.360862c-31.540991 6.393444-59.672145 29.409843-49.016405 61.803293a67.344277 67.344277 0 0 0 78.852477 37.508205c31.114761-5.540985 57.967226-30.262302 49.868864-60.524604a69.049196 69.049196 0 0 0-79.704936-38.786894zM844.787949 921.508403c-35.377057 2.983607-63.934441 23.868858-60.950834 54.13116A61.803293 61.803293 0 0 0 855.443689 1022.951049c34.098368 0 62.655752-26.426235 59.672144-55.409849a63.934441 63.934441 0 0 0-70.327884-46.032797zM996.099458 219.934476l-47.737716-22.16394-16.622954-8.098362-33.245909-14.491807c-58.819685-25.147547-134.262325-62.655752-193.082011-85.245921L526.820664 11.508199c-32.39345-14.491807-24.295087-14.491807-49.016404-4.262296L317.115699 82.262314l-32.39345 14.491806-255.737762 119.770519c-6.819674 4.262296-28.983613 10.65574-28.983613 18.754102v763.377221h186.262337V374.655822h652.131294v125.311503H1023.804382V237.409889c0-9.377051-18.754103-14.491807-27.704924-17.475413z m-295.377115 8.098362l-118.49183 88.655758a7.672133 7.672133 0 0 1-12.360659-5.540985V250.196777a7.672133 7.672133 0 0 0-8.098362-6.819673H299.214056a7.245903 7.245903 0 0 1-7.672133-7.245904V208.852506A7.245903 7.245903 0 0 1 299.214056 202.032832h260.852517a8.098362 8.098362 0 0 0 8.098363-7.245903V133.836096a7.672133 7.672133 0 0 1 14.065577-5.967215l118.49183 89.508217a6.393444 6.393444 0 0 1 0 10.65574z" p-id="2293"  ></path></svg>
