<?xml version="1.0" standalone="no"?><!DOCTYPE svg PUBLIC "-//W3C//DTD SVG 1.1//EN" "http://www.w3.org/Graphics/SVG/1.1/DTD/svg11.dtd"><svg t="1634262985921" class="icon" viewBox="0 0 1024 1024" version="1.1" xmlns="http://www.w3.org/2000/svg" p-id="15690" xmlns:xlink="http://www.w3.org/1999/xlink" width="200" height="200"><defs><style type="text/css"></style></defs><path d="M469.504 968.533333H253.952A134.826667 134.826667 0 0 1 119.466667 833.706667v-643.413334a134.826667 134.826667 0 0 1 134.826666-134.826666h537.6a134.997333 134.997333 0 0 1 134.826667 134.826666v233.984a34.133333 34.133333 0 0 1-68.266667 0V190.293333a66.730667 66.730667 0 0 0-66.56-66.56H253.952a66.730667 66.730667 0 0 0-66.56 66.56v643.413334a66.730667 66.730667 0 0 0 66.56 66.56h215.552a34.133333 34.133333 0 1 1 0 68.266666z" p-id="15691"  ></path><path d="M627.541333 642.218667l249.173334 3.242666a34.133333 34.133333 0 0 1 0 68.266667l-247.466667-3.242667a34.133333 34.133333 0 0 1-34.133333-34.133333 32.768 32.768 0 0 1 32.426666-34.133333zM627.541333 765.610667l249.173334 3.242666a34.133333 34.133333 0 0 1 0 68.266667l-247.466667-3.242667a34.133333 34.133333 0 0 1-34.133333-34.133333 32.768 32.768 0 0 1 32.426666-34.133333zM627.541333 888.832l249.173334 3.242667a34.133333 34.133333 0 0 1 0 68.266666l-247.466667-3.242666a34.133333 34.133333 0 0 1-34.133333-34.133334 32.768 32.768 0 0 1 32.426666-34.133333zM303.957333 526.165333h385.706667a34.133333 34.133333 0 0 0 0-68.266666h-385.706667a34.133333 34.133333 0 1 0 0 68.266666z" p-id="15692"  ></path><path d="M689.664 526.165333a34.133333 34.133333 0 0 0 24.064-58.197333l-106.325333-106.325333A34.133333 34.133333 0 1 0 559.104 409.6L665.6 516.266667a34.133333 34.133333 0 0 0 24.064 9.898666z" p-id="15693"  ></path></svg>
