<?xml version="1.0" standalone="no"?><!DOCTYPE svg PUBLIC "-//W3C//DTD SVG 1.1//EN" "http://www.w3.org/Graphics/SVG/1.1/DTD/svg11.dtd"><svg t="1595234835691" class="icon" viewBox="0 0 1024 1024" version="1.1" xmlns="http://www.w3.org/2000/svg" p-id="7908" xmlns:xlink="http://www.w3.org/1999/xlink" width="300" height="300"><defs><style type="text/css"></style></defs><path d="M589.530794 917.426753 211.137745 917.426753c-57.936527 0-105.112989-47.176462-105.112989-105.111966l0-475.008504c0-57.932434 47.176462-105.108896 105.112989-105.108896L589.530794 232.197386c50.705845 0 93.161796 36.109406 102.975303 83.962274 13.58746-3.817955 27.304879-6.856152 41.180911-8.537444-13.795191-66.926272-73.166393-117.467365-144.156214-117.467365L366.42139 190.154851c9.769504-47.938825 52.225455-84.09121 102.974279-84.09121l204.184379 0c57.931411 0 105.107873 47.176462 105.107873 105.112989l0 94.967932c14.165628 0.633427 28.205389 2.442632 42.042535 5.252631l0-100.220562c0-81.152275-66.020646-147.155525-147.150408-147.155525L469.391577 64.021106c-73.904197 0-134.672212 55.04057-145.018861 126.129652L211.137745 190.150758c-81.134879 0-147.155525 66.004273-147.155525 147.156548l0 475.008504c0 81.134879 66.021669 147.154501 147.155525 147.154501L589.530794 959.470311c63.763233 0 117.631094-41.060161 138.036843-97.841376-13.919011-2.01182-27.550473-5.174859-40.931225-9.278317C670.868287 890.49231 633.298624 917.426753 589.530794 917.426753L589.530794 917.426753zM589.530794 917.426753" p-id="7909"></path><path d="M190.110849 342.558913l279.857872 0 0 31.53625L190.110849 374.095163 190.110849 342.558913 190.110849 342.558913zM190.110849 342.558913" p-id="7910"></path><path d="M190.110849 482.69558l215.47861 0 0 31.532157L190.110849 514.227738 190.110849 482.69558 190.110849 482.69558zM190.110849 482.69558" p-id="7911"></path><path d="M190.110849 622.869087l215.47861 0 0 31.533181L190.110849 654.402267 190.110849 622.869087 190.110849 622.869087zM190.110849 622.869087" p-id="7912"></path><path d="M190.110849 763.000638l279.857872 0 0 31.532157L190.110849 794.532795 190.110849 763.000638 190.110849 763.000638zM190.110849 763.000638" p-id="7913"></path><path d="M936.665932 575.038732l39.886429-14.693654c5.478781-1.997494 8.323573-8.157797 6.28617-13.676487l-33.216519-89.835028c-1.9934-5.478781-8.154727-8.345062-13.678534-6.307659l-39.752376 14.675234c-5.523807 2.037403-12.19167 1.122567-14.867616-1.973958-2.674922-3.166109-8.198729-15.228843-5.77861-20.472264l17.757432-38.503942c2.460028-5.309936 0.12382-11.70253-5.185093-14.123672l-86.986143-40.11872c-5.348821-2.421142-11.680017-0.084934-14.100136 5.226025l-17.752316 38.503942c-2.465145 5.332449-7.820106 9.473769-11.893888 9.174963-4.033873-0.276293-16.565281-4.779863-18.603707-10.280134l-14.652721-39.881312c-2.082428-5.478781-8.198729-8.306176-13.722536-6.308683l-89.874937 33.150004c-5.51869 2.041496-8.323573 8.176217-6.28617 13.700023l14.69877 39.841404c2.037403 5.478781 1.146103 12.1886-1.997494 14.823614-3.102664 2.696412-15.081487 8.237615-20.431332 5.8001l-38.482453-17.757432c-5.26491-2.483564-11.640108-0.084934-14.100136 5.225001l-40.141232 86.986143c-2.461051 5.287423-0.084934 11.658528 5.185093 14.123672l38.48143 17.757432c5.349845 2.461051 9.468652 7.813966 9.17087 11.803837-0.209778 4.079922-4.797259 16.61133-10.276041 18.648732l-39.841404 14.653745c-5.478781 2.037403-8.327666 8.154727-6.28617 13.676487l33.127492 89.918939c1.997494 5.474688 8.198729 8.323573 13.636578 6.326079l39.838334-14.697747c5.522784-2.038426 12.232602-1.146103 14.867616 1.956561 2.719948 3.058662 8.238638 15.121396 5.776563 20.472264l-17.755386 38.396495c-2.461051 5.309936-0.084934 11.725042 5.185093 14.146185l87.026052 40.136116c5.353938 2.465145 11.680017 0.084934 14.145162-5.225001l17.757432-38.437427c2.421142-5.353938 7.769964-9.428743 11.80486-9.218966 4.078899 0.258896 16.565281 4.801353 18.602683 10.32516l14.69877 39.752376c1.952468 5.523807 8.154727 8.367575 13.633508 6.370081l89.918939-33.127492c5.433756-2.038426 8.323573-8.198729 6.285147-13.718443l-14.652721-39.84652c-2.041496-5.474688-1.146103-12.1886 1.952468-14.818497 3.14155-2.719948 15.161305-8.243755 20.515243-5.77861l38.482453 17.752316c5.26491 2.425236 11.640108 0.084934 14.100136-5.225001l40.096207-86.986143c2.465145-5.308913 0.084934-11.720949-5.26491-14.146185l-38.397518-17.751293c-5.353938-2.465145-8.92016-15.292288-8.92016-19.286252C926.68972 582.092381 931.147242 577.076134 936.665932 575.038732L936.665932 575.038732zM783.378757 682.71101c-55.172577 20.302395-116.377544-7.939833-136.768967-63.073524-20.302395-55.132668 7.899924-116.377544 63.076594-136.746454 55.1736-20.364817 116.378567 7.877411 136.724964 63.010079C866.714767 601.119737 838.512449 662.368706 783.378757 682.71101L783.378757 682.71101zM783.378757 682.71101" p-id="7914"></path></svg>