<?xml version="1.0" standalone="no"?><!DOCTYPE svg PUBLIC "-//W3C//DTD SVG 1.1//EN" "http://www.w3.org/Graphics/SVG/1.1/DTD/svg11.dtd"><svg t="1586418680768" class="icon" viewBox="0 0 1024 1024" version="1.1" xmlns="http://www.w3.org/2000/svg" p-id="6742" xmlns:xlink="http://www.w3.org/1999/xlink" width="200" height="200"><defs><style type="text/css"></style></defs><path d="M673.8 903.8H532.2c-13.8 0-25-11.2-25-25v-41.5c0-15.2-5.9-29.5-16.7-40.3-10.8-10.8-25.1-16.7-40.3-16.7-31.4 0-57 25.6-57 57v41.5c0 13.8-11.2 25-25 25H226.8c-59 0-107-48-107-107V655.2c0-13.8 11.2-25 25-25h41.5c15.2 0 29.5-5.9 40.3-16.7 10.8-10.8 16.7-25.1 16.7-40.3 0-31.4-25.6-57-57-57h-41.5c-13.8 0-25-11.2-25-25V349.8c0-59 48-107 107-107h116.5v-15.5c0-59 48-107 107-107 28.6 0 55.4 11.1 75.7 31.3 20.2 20.2 31.3 47.1 31.3 75.7v15.5h116.5c59 0 107 48 107 107v116.5h16.5c59 0 107 48 107 107 0 28.6-11.1 55.4-31.3 75.7-20.2 20.2-47.1 31.3-75.7 31.3h-16.5v116.5c0 59-48 107-107 107z m-116.6-50h116.5c31.4 0 57-25.6 57-57V655.2c0-13.8 11.2-25 25-25h41.5c15.2 0 29.5-5.9 40.3-16.7 10.8-10.8 16.7-25.1 16.7-40.3 0-31.4-25.6-57-57-57h-41.5c-13.8 0-25-11.2-25-25V349.8c0-31.4-25.6-57-57-57H532.2c-13.8 0-25-11.2-25-25v-40.5c0-15.2-5.9-29.5-16.7-40.3-10.8-10.8-25.1-16.7-40.3-16.7-31.4 0-57 25.6-57 57v40.5c0 13.8-11.2 25-25 25H226.8c-31.4 0-57 25.6-57 57v116.5h16.5c59 0 107 48 107 107 0 28.6-11.1 55.4-31.3 75.7-20.2 20.2-47.1 31.3-75.7 31.3h-16.5v116.5c0 31.4 25.6 57 57 57h116.5v-16.5c0-59 48-107 107-107 28.6 0 55.4 11.1 75.7 31.3 20.2 20.2 31.3 47.1 31.3 75.7v16.5z" p-id="6743"></path></svg>