<?xml version="1.0" standalone="no"?><!DOCTYPE svg PUBLIC "-//W3C//DTD SVG 1.1//EN" "http://www.w3.org/Graphics/SVG/1.1/DTD/svg11.dtd"><svg t="1574085395518" class="icon" viewBox="0 0 1024 1024" version="1.1" xmlns="http://www.w3.org/2000/svg" p-id="20570" xmlns:xlink="http://www.w3.org/1999/xlink" width="200" height="200"><defs><style type="text/css"></style></defs><path d="M1024 884.363636c0 76.8-62.836364 139.636364-139.636364 139.636364H139.636364c-76.8 0-139.636364-62.836364-139.636364-139.636364V139.636364c0-76.8 62.836364-139.636364 139.636364-139.636364h744.727272c76.8 0 139.636364 62.836364 139.636364 139.636364v744.727272z" fill="#206FA0" p-id="20571"></path><path d="M977.454545 884.363636a93.090909 93.090909 0 0 1-93.090909 93.090909H139.636364a93.090909 93.090909 0 0 1-93.090909-93.090909V139.636364a93.090909 93.090909 0 0 1 93.090909-93.090909h744.727272a93.090909 93.090909 0 0 1 93.090909 93.090909v744.727272z" fill="#58AEE8" p-id="20572"></path><path d="M232.727273 186.181818h232.727272v139.636364H232.727273zM558.545455 698.181818h232.727272v139.636364h-232.727272zM372.363636 465.454545h186.181819v46.545455H372.363636zM558.545455 418.909091h232.727272v139.636364h-232.727272z"   p-id="20573"></path><path d="M558.545455 744.727273H418.909091a46.545455 46.545455 0 0 1-46.545455-46.545455V325.818182H325.818182v418.909091a46.545455 46.545455 0 0 0 46.545454 46.545454h186.181819v-46.545454z"   p-id="20574"></path></svg>
