<?xml version="1.0" standalone="no"?><!DOCTYPE svg PUBLIC "-//W3C//DTD SVG 1.1//EN" "http://www.w3.org/Graphics/SVG/1.1/DTD/svg11.dtd"><svg t="1574084591492" class="icon" viewBox="0 0 1024 1024" version="1.1" xmlns="http://www.w3.org/2000/svg" p-id="2612" xmlns:xlink="http://www.w3.org/1999/xlink" width="200" height="200"><defs><style type="text/css"></style></defs><path d="M79.36 931.84V268.8c0-28.16 23.04-51.2 51.2-51.2h368.64V76.8c0-28.16 23.04-51.2 51.2-51.2h340.48c28.16 0 51.2 23.04 51.2 51.2v560.64c-7.68-30.72-17.92-53.76-33.28-71.68s-30.72-35.84-46.08-48.64V104.96h-281.6v112.64h133.12c28.16 0 51.2 23.04 51.2 51.2v204.8c-28.16-7.68-53.76-10.24-79.36-10.24v-168.96H158.72v634.88h340.48c20.48 0 38.4 17.92 38.4 38.4s-17.92 38.4-38.4 38.4h-435.2c-20.48 0-38.4-17.92-38.4-38.4s17.92-38.4 38.4-38.4h15.36z m396.8-499.2v-76.8h107.52v76.8h-107.52z m-115.2 135.68H253.44v-76.8h107.52v76.8z m0-135.68H253.44v-76.8h107.52v76.8z m0 417.28H253.44v-76.8h107.52v76.8z m0-135.68H253.44v-76.8h107.52v76.8z m240.64 117.76c20.48 15.36 46.08 25.6 71.68 28.16l28.16 76.8c-23.04 2.56-46.08 0-69.12-5.12-23.04-5.12-43.52-15.36-61.44-28.16-20.48-12.8-35.84-28.16-51.2-46.08-15.36-17.92-25.6-38.4-35.84-61.44-10.24-28.16-15.36-56.32-12.8-84.48s7.68-56.32 20.48-79.36c12.8-25.6 28.16-46.08 48.64-66.56 20.48-20.48 46.08-33.28 74.24-43.52 28.16-10.24 56.32-15.36 84.48-12.8 28.16 2.56 56.32 7.68 79.36 20.48 25.6 12.8 46.08 28.16 66.56 48.64 20.48 20.48 33.28 46.08 43.52 71.68 5.12 17.92 10.24 33.28 10.24 48.64l-84.48-17.92v-5.12c-7.68-17.92-15.36-33.28-28.16-46.08-12.8-12.8-28.16-23.04-43.52-30.72-15.36-7.68-33.28-12.8-51.2-12.8s-35.84 2.56-53.76 7.68c-17.92 7.68-33.28 15.36-46.08 28.16-12.8 12.8-23.04 28.16-30.72 43.52-7.68 15.36-12.8 33.28-12.8 51.2s2.56 35.84 7.68 53.76c10.24 25.6 25.6 46.08 46.08 61.44zM896 844.8l102.4 89.6c10.24 7.68 15.36 20.48 15.36 33.28s-2.56 23.04-12.8 33.28c-7.68 10.24-17.92 15.36-33.28 15.36-12.8 0-23.04-2.56-33.28-12.8l-104.96-89.6-61.44 74.24L652.8 691.2l312.32 69.12L896 844.8z" fill="#10385C" p-id="2613"></path></svg>