<?xml version="1.0" standalone="no"?><!DOCTYPE svg PUBLIC "-//W3C//DTD SVG 1.1//EN" "http://www.w3.org/Graphics/SVG/1.1/DTD/svg11.dtd"><svg t="1568859674563" class="icon" viewBox="0 0 1024 1024" version="1.1" xmlns="http://www.w3.org/2000/svg" p-id="1236" xmlns:xlink="http://www.w3.org/1999/xlink" width="200" height="200"><defs><style type="text/css"></style></defs><path d="M512 1003.52C240.98816 1003.52 20.48 783.01184 20.48 512S240.98816 20.48 512 20.48s491.52 220.50816 491.52 491.52-220.50816 491.52-491.52 491.52z" fill="#2E9AFF" p-id="1237"></path><path d="M512 40.96c259.72736 0 471.04 211.31264 471.04 471.04S771.72736 983.04 512 983.04 40.96 771.72736 40.96 512 252.27264 40.96 512 40.96m0-40.96C229.23264 0 0 229.23264 0 512s229.23264 512 512 512 512-229.23264 512-512S794.76736 0 512 0z" fill="#187FFF" p-id="1238"></path><path d="M555.58144 649.46176a59.63776 59.63776 0 0 1-7.29088-17.48992 81.01888 81.01888 0 0 1-2.70336-20.41856c0-9.728 1.24928-18.39104 3.74784-26.03008 2.49856-7.63904 6.18496-14.86848 11.03872-21.66784 4.85376-6.79936 10.97728-13.68064 18.3296-20.62336 7.35232-6.94272 15.89248-14.4384 25.62048-22.50752a516.096 516.096 0 0 0 38.33856-34.79552 196.4032 196.4032 0 0 0 27.91424-35.20512 154.97216 154.97216 0 0 0 17.08032-38.95296c3.8912-13.74208 5.8368-29.10208 5.8368-46.03904 0-26.66496-4.64896-49.50016-13.96736-68.54656a126.3616 126.3616 0 0 0-38.74816-46.87872c-16.52736-12.22656-35.90144-21.17632-58.12224-26.86976-22.2208-5.69344-46.24384-8.54016-72.0896-8.54016-26.95168 0-53.06368 3.19488-78.336 9.58464a259.6864 259.6864 0 0 0-70.00064 28.75392v125.41952c20.82816-18.3296 42.92608-32.01024 66.2528-41.04192 23.32672-9.03168 45.83424-13.53728 67.50208-13.53728a77.824 77.824 0 0 1 27.29984 4.58752c8.192 3.05152 15.13472 7.22944 20.82816 12.4928 5.69344 5.28384 10.07616 11.59168 13.12768 18.96448 3.05152 7.35232 4.58752 15.36 4.58752 23.9616 0 9.99424-1.39264 19.10784-4.17792 27.29984-2.78528 8.192-6.94272 16.11776-12.4928 23.7568-5.55008 7.63904-12.288 15.27808-20.21376 22.91712-7.90528 7.63904-17.16224 15.91296-27.70944 24.80128-9.99424 8.33536-18.75968 16.73216-26.25536 25.21088a142.25408 142.25408 0 0 0-18.75968 26.66496 122.20416 122.20416 0 0 0-11.24352 29.7984 152.10496 152.10496 0 0 0-3.74784 35.00032c0 8.06912 0.75776 16.60928 2.29376 25.62048 1.51552 9.03168 3.6864 17.16224 6.4512 24.3712h109.60896z m6.2464 162.9184c14.17216-13.04576 21.25824-29.57312 21.25824-49.58208 0-19.72224-7.22944-35.96288-21.66784-48.7424-14.4384-13.04576-32.64512-19.57888-54.5792-19.57888-22.2208 0-40.69376 6.53312-55.41888 19.57888-14.72512 13.06624-22.07744 29.30688-22.07744 48.7424 0 18.90304 7.35232 35.28704 22.07744 49.17248 14.72512 13.33248 33.19808 20.00896 55.41888 20.00896 22.20032 0 40.52992-6.53312 54.9888-19.59936z"   p-id="1239"></path></svg>
