<?xml version="1.0" standalone="no"?><!DOCTYPE svg PUBLIC "-//W3C//DTD SVG 1.1//EN" "http://www.w3.org/Graphics/SVG/1.1/DTD/svg11.dtd"><svg t="1568948994425" class="icon" viewBox="0 0 1024 1024" version="1.1" xmlns="http://www.w3.org/2000/svg" p-id="5326" width="300" height="300" xmlns:xlink="http://www.w3.org/1999/xlink"><defs><style type="text/css"></style></defs><path d="M1024 128h-128V0h-128v128h-128v128h128v128h128V256h128z" p-id="5327"></path><path d="M863.872 446.016c18.432 20.48 35.2 42.56 50.048 65.984a486.016 486.016 0 0 1-149.44 150.272 468.864 468.864 0 0 1-504.896 0A488.064 488.064 0 0 1 110.144 512a486.016 486.016 0 0 1 161.28-157.568A256 256 0 1 0 768 442.048v-2.048a256.128 256.128 0 0 1-191.936-244.288A572.16 572.16 0 0 0 512 192.064c-223.296 0-416.896 130.048-512 320 95.104 189.952 288.704 320 512 320s416.896-130.048 512-320a589.888 589.888 0 0 0-62.656-99.072 254.272 254.272 0 0 1-97.472 33.088zM416 320a96 96 0 1 1-0.064 192.064A96 96 0 0 1 416 320z" p-id="5328"></path></svg>