<?xml version="1.0" standalone="no"?><!DOCTYPE svg PUBLIC "-//W3C//DTD SVG 1.1//EN" "http://www.w3.org/Graphics/SVG/1.1/DTD/svg11.dtd"><svg t="1735652474845" class="icon" viewBox="0 0 1024 1024" version="1.1" xmlns="http://www.w3.org/2000/svg" p-id="14513" id="mx_n_1735652474845" xmlns:xlink="http://www.w3.org/1999/xlink" width="200" height="200"><path d="M959 800.4l-0.1-1.6c-0.8-12.4-8.7-23.3-20.5-28.4l-199.8-85.6c-15.7-6.7-34.2-1.5-43.6 12.3-14.9 21.9-19.3 28.2-20.3 29.6 1-1.3 2.2-2.7 3.7-4-3.1 3.2-6.5 7.7-10.9 13.8-171.8-80.6-308.4-220.2-380.8-388.9 5.9-3.2 7.9-4.2 8.6-4.6l-0.1-0.2c6.1-3 16.4-8.5 36.6-19.4 15.3-8.2 21.8-26 15.1-41.5l-84-196.1c-5-11.7-17.3-19.7-30.5-20.6-3.7-0.3-7.4-0.5-11.1-0.5-87.7 0-159 68-159 151.6 0 9.3 0.9 18.5 2.7 27.6 0.1 0.8 0.2 1.6 0.4 2.4 70.7 338.6 342.3 616.4 692 707.7 1.1 0.3 2.2 0.5 3.3 0.7 13.1 3.2 26.5 4.9 39.7 4.9 87.7 0 159-68 159-151.6-0.1-2.6-0.2-5.1-0.4-7.6z" fill="#1890ff" p-id="14514"></path></svg>