<?xml version="1.0" standalone="no"?><!DOCTYPE svg PUBLIC "-//W3C//DTD SVG 1.1//EN" "http://www.w3.org/Graphics/SVG/1.1/DTD/svg11.dtd"><svg t="1739965036710" class="icon" viewBox="0 0 1024 1024" version="1.1" xmlns="http://www.w3.org/2000/svg" p-id="5322" xmlns:xlink="http://www.w3.org/1999/xlink" width="200" height="200"><path d="M117.333333 288m32 0l672 0q32 0 32 32l0 448q0 32-32 32l-672 0q-32 0-32-32l0-448q0-32 32-32Z" fill="#FF714A" p-id="5323"></path><path d="M149.333333 256m32 0l688 0q32 0 32 32l0 448q0 32-32 32l-688 0q-32 0-32-32l0-448q0-32 32-32Z" fill="#FF9C82" p-id="5324"></path><path d="M186.666667 208m32 0l661.333333 0q32 0 32 32l0 464q0 32-32 32l-661.333333 0q-32 0-32-32l0-464q0-32 32-32Z" fill="#FAF2DD" p-id="5325"></path><path d="M357.333333 384m-96 0a96 96 0 1 0 192 0 96 96 0 1 0-192 0Z" fill="#E1DECC" opacity=".42" p-id="5326"></path><path d="M538.666667 288h298.666666v96h-298.666666zM261.333333 512h576V656h-576z" fill="#BEC4B5" opacity=".42" p-id="5327"></path><path d="M357.546667 377.728l-53.717334-44.586667-26.496 16.810667 91.285334 98.048c19.882667-38.485333 68.16-104.533333 137.642666-155.093333l-5.056-13.141334c-74.176 35.114667-118.528 74.24-143.637333 97.962667z" fill="#6156D4" p-id="5328"></path><path d="M538.666667 416h209.066666V464h-209.066666z" fill="#BEC4B5" opacity=".42" p-id="5329"></path><path d="M809.173333 674.069333m-192 0a192 192 0 1 0 384 0 192 192 0 1 0-384 0Z" fill="#6156D4" p-id="5330"></path><path d="M889.386667 705.322667l27.52-97.984c1.792-6.4-2.261333-13.290667-8.341334-13.290667h-172.693333l-5.184-19.690667-5.184-19.690666H682.666667v19.690666h29.525333l5.184 19.690667 28.181333 111.274667c0.469333 1.472 1.130667 2.688 2.026667 3.690666l-14.634667 25.6a10.090667 10.090667 0 0 0-2.944 7.125334c0 5.418667 4.053333 9.856 9.024 9.856h160.064v-19.690667h-143.381333l11.264-19.690667H881.066667c3.84 0 6.976-2.709333 8.32-6.890666z m-152.618667 85.653333c0 10.88 8.085333 19.690667 18.048 19.690667 9.962667 0 18.026667-8.810667 18.026667-19.690667s-8.064-19.690667-18.026667-19.690667c-9.962667 0-18.048 8.810667-18.048 19.690667z m126.250667 0c0 10.88 8.085333 19.690667 18.048 19.690667 9.941333 0 18.026667-8.810667 18.026666-19.690667s-8.085333-19.690667-18.026666-19.690667c-9.962667 0-18.048 8.810667-18.048 19.690667z" fill="#FFFFFF" p-id="5331"></path></svg>