<?xml version="1.0" standalone="no"?><!DOCTYPE svg PUBLIC "-//W3C//DTD SVG 1.1//EN" "http://www.w3.org/Graphics/SVG/1.1/DTD/svg11.dtd"><svg t="1715584648649" class="icon" viewBox="0 0 1024 1024" version="1.1" xmlns="http://www.w3.org/2000/svg" p-id="14991" xmlns:xlink="http://www.w3.org/1999/xlink" width="200" height="200"><path d="M895.97216797 233.41418457v615.26184082c0 26.11999512-21.17614747 47.29614258-47.29614258 47.29614258H186.03564453C159.91564941 895.97216797 138.73950195 874.79602051 138.73950195 848.67602539V233.41418457c0-26.11999512 21.17614747-47.29614258 47.29614258-47.29614257h662.5579834c26.20239258-0.08239747 47.37854004 21.17614747 47.37854004 47.29614258z" fill="#E73D1D" p-id="14992"></path><path d="M304.35839844 138.73950195h425.99487304c39.22119141 0 71.02661133 31.80541992 71.02661133 71.02661133s-31.80541992 71.02661133-71.02661133 71.02661133H304.35839844c-39.22119141 0-71.02661133-31.80541992-71.02661133-71.02661133 0.08239747-39.22119141 31.80541992-71.02661133 71.02661133-71.02661133z" fill="#FDC71A" p-id="14993"></path><path d="M754.00134278 435.61755371H422.68115234c-13.67797852 0-24.71923828-11.04125977-24.71923828-24.71923828s11.04125977-24.71923828 24.71923828-24.71923828h331.32019044c13.67797852 0 24.71923828 11.04125977 24.71923827 24.71923828s-11.04125977 24.71923828-24.71923828 24.71923829zM754.00134278 672.26306153H422.68115234c-13.67797852 0-24.71923828-11.04125977-24.71923828-24.71923829s11.04125977-24.71923828 24.71923828-24.71923828h331.32019044c13.67797852 0 24.71923828 11.04125977 24.71923827 24.71923828s-11.04125977 24.71923828-24.71923828 24.71923828zM754.00134278 530.20983887H422.68115234c-13.67797852 0-24.71923828-11.04125977-24.71923828-24.71923829s11.04125977-24.71923828 24.71923828-24.71923827h331.32019044c13.67797852 0 24.71923828 11.04125977 24.71923827 24.71923827s-11.04125977 24.71923828-24.71923828 24.71923829zM754.00134278 766.85534668H422.68115234c-13.67797852 0-24.71923828-11.04125977-24.71923828-24.71923829s11.04125977-24.71923828 24.71923828-24.71923828h331.32019044c13.67797852 0 24.71923828 11.04125977 24.71923827 24.71923828s-11.04125977 24.71923828-24.71923828 24.71923829zM612.03051758 234.48535156H422.68115234c-13.67797852 0-24.71923828-11.04125977-24.71923828-24.71923828s11.04125977-24.71923828 24.71923828-24.71923828h189.34936524c13.67797852 0 24.71923828 11.04125977 24.71923828 24.71923828s-11.12365723 24.71923828-24.71923828 24.71923828z" fill="#F0F0F4" p-id="14994"></path><path d="M292.57556152 458.194458m-59.16137695 0a59.16137695 59.16137695 0 1 0 118.3227539 0 59.16137695 59.16137695 0 1 0-118.3227539 0Z" fill="#FFFFFF" p-id="14995"></path><path d="M292.57556152 694.83996583m-59.16137695-1e-8a59.16137695 59.16137695 0 1 0 118.3227539 0 59.16137695 59.16137695 0 1 0-118.3227539 0Z" fill="#FFFFFF" p-id="14996"></path></svg>