<?xml version="1.0" standalone="no"?><!DOCTYPE svg PUBLIC "-//W3C//DTD SVG 1.1//EN" "http://www.w3.org/Graphics/SVG/1.1/DTD/svg11.dtd"><svg t="1715585237141" class="icon" viewBox="0 0 1024 1024" version="1.1" xmlns="http://www.w3.org/2000/svg" p-id="30008" xmlns:xlink="http://www.w3.org/1999/xlink" width="200" height="200"><path d="M749.46948242 266.37316894c-14.58435059 0-26.3671875-11.78283692-26.3671875-26.36718749v-70.86181642c0-14.58435059 11.78283692-26.3671875 26.3671875-26.3671875s26.3671875 11.78283692 26.3671875 26.3671875v70.86181641c0 14.58435059-11.86523438 26.3671875-26.3671875 26.3671875zM275.27209472 265.79638672c-14.58435059 0-26.3671875-11.78283692-26.36718749-26.3671875V169.14416503c0-14.58435059 11.78283692-26.3671875 26.3671875-26.36718749s26.3671875 11.78283692 26.3671875 26.3671875v70.20263671c0 14.58435059-11.78283692 26.44958497-26.3671875 26.44958497z" fill="#F19D00" p-id="30009"></path><path d="M863.17797852 221.13696289H159.75085449c-9.22851563 0-16.72668458 7.58056641-16.72668457 16.8914795V863.8371582c0 9.31091309 7.49816895 16.8914795 16.72668458 16.8914795h703.42712402c9.22851563 0 16.72668458-7.58056641 16.72668457-16.8914795V238.02844238c0-9.31091309-7.49816895-16.8914795-16.72668457-16.89147949z" fill="#E64E00" p-id="30010"></path><path d="M512.08239747 432.73364258c0 14.58435059-11.78283692 26.3671875-26.36718751 26.3671875H222.53771972c-14.58435059 0-26.3671875-11.78283692-26.36718749-26.3671875s11.78283692-26.3671875 26.3671875-26.3671875h263.17749023c14.58435059 0 26.3671875 11.78283692 26.36718751 26.3671875zM667.56640625 518.92138672c-10.29968262 10.29968262-27.02636719 10.29968262-37.32604981 0l-62.86926269-62.8692627c-10.29968262-10.29968262-10.29968262-27.02636719 0-37.3260498s27.02636719-10.29968262 37.32604981 0l62.86926269 62.8692627c10.29968262 10.29968262 10.29968262 27.02636719 0 37.3260498z" fill="#FFFFFF" p-id="30011"></path><path d="M630.81713867 518.17980958c10.29968262 10.29968262 27.02636719 10.29968262 37.32604981-1e-8l144.2779541-144.2779541c10.29968262-10.29968262 10.29968262-27.02636719 0-37.32604981s-27.02636719-10.29968262-37.32604981 0L630.81713867 480.85375977c-10.29968262 10.29968262-10.29968262 27.02636719 0 37.3260498zM666.49523926 668.55517578c-10.29968262 10.29968262-27.02636719 10.29968262-37.32604981 0L566.38232422 605.76831055c-10.29968262-10.29968262-10.29968262-27.02636719 0-37.32604981s27.02636719-10.29968262 37.32604981 0l62.86926269 62.8692627c10.21728516 10.29968262 10.21728516 26.94396973-0.08239747 37.24365234z" fill="#FFFFFF" p-id="30012"></path><path d="M629.66357422 667.81359864c10.29968262 10.29968262 27.02636719 10.29968262 37.32604981-1e-8L811.26757813 523.53564453c10.29968262-10.29968262 10.29968262-27.02636719-1e-8-37.32604981s-27.02636719-10.29968262-37.3260498 0L629.66357422 630.56994629c-10.29968262 10.29968262-10.29968262 26.94396973 0 37.24365234zM666.49523926 823.46240234c-10.29968262 10.29968262-27.02636719 10.29968262-37.32604981 0L566.38232422 760.67553711c-10.29968262-10.29968262-10.29968262-27.02636719 0-37.32604981s27.02636719-10.29968262 37.32604981 0l62.86926269 62.8692627c10.21728516 10.29968262 10.21728516 26.94396973-0.08239747 37.24365234z" fill="#FFFFFF" p-id="30013"></path><path d="M629.66357422 822.7208252c10.29968262 10.29968262 27.02636719 10.29968262 37.32604981-1e-8L811.26757813 678.44287109c10.29968262-10.29968262 10.29968262-27.02636719-1e-8-37.32604981s-27.02636719-10.29968262-37.3260498 0L629.66357422 785.47717286c-10.29968262 10.29968262-10.29968262 26.94396973 0 37.24365233zM460.08959961 591.01916504c0 14.58435059-11.78283692 26.3671875-26.3671875 26.36718749H222.53771972c-14.58435059 0-26.3671875-11.78283692-26.36718749-26.3671875s11.78283692-26.3671875 26.3671875-26.3671875H433.72241211c14.58435059 0 26.3671875 11.78283692 26.3671875 26.3671875zM406.28405761 749.22229004c0 14.58435059-11.78283692 26.3671875-26.36718749 26.36718749H222.29052734c-14.58435059 0-26.3671875-11.78283692-26.3671875-26.3671875s11.78283692-26.3671875 26.3671875-26.3671875h157.70874024c14.50195313 0 26.28479004 11.86523438 26.28479004 26.3671875z" fill="#FFFFFF" p-id="30014"></path></svg>