<?xml version="1.0" standalone="no"?><!DOCTYPE svg PUBLIC "-//W3C//DTD SVG 1.1//EN" "http://www.w3.org/Graphics/SVG/1.1/DTD/svg11.dtd"><svg t="1586417876504" class="icon" viewBox="0 0 1024 1024" version="1.1" xmlns="http://www.w3.org/2000/svg" p-id="2245" xmlns:xlink="http://www.w3.org/1999/xlink" width="200" height="200"><defs><style type="text/css"></style></defs><path d="M63.579677 185.724471l0 684.869459c0 10.172503 8.246409 18.419112 18.419112 18.419112l859.082542 0c10.172503 0 18.419112-8.246609 18.419112-18.419112l0-684.869459c0-10.172503-8.246409-18.419112-18.419112-18.419112L81.998789 167.305359C71.826086 167.305359 63.579677 175.551768 63.579677 185.724471zM866.444335 814.35346 156.65817 814.35346c-10.172503 0-18.419112-8.246409-18.419112-18.419112l0-535.574281c0-10.172503 8.246409-18.419112 18.419112-18.419112l709.786165 0c10.172503 0 18.419112 8.246409 18.419112 18.419112l0 535.574281C884.863447 806.107051 876.616838 814.35346 866.444335 814.35346zM681.079812 687.933573c0 0-0.290803-28.046984-57.671699-53.564883-23.669352-10.469102-57.063711-35.101201-104.170173-48.941218-11.637909-3.419282-16.748445-16.805406-10.588421-27.254521 8.688909-14.739207 16.40148-32.722814 24.240965-52.733846 7.060813-17.93584 5.79627-33.247458 5.79627-55.047478 0-16.088692 3.110691-41.899392-0.923574-56.074382-13.439888-47.969077-47.53697-61.171326-87.394746-61.171326-39.918136 0-73.979442 13.299583-87.443913 61.274856-3.913347 14.21796-0.89899 39.95511-0.89899 55.971052 0 21.849186-1.166209 37.232356 5.881412 55.192779 7.90544 20.13275 15.587432 38.162126 24.228773 52.898135 6.113455 10.424932 1.025904 23.749698-10.557642 27.194962-46.686547 13.885186-79.833273 38.342804-103.351128 48.788521-57.137261 25.517899-57.453646 53.467549-57.453646 53.467549l0 28.938979c0 10.173702 8.248208 18.420711 18.42191 18.419112l423.468488-0.066755c10.171504-0.001599 18.416114-8.247608 18.416114-18.419112L681.079812 687.933573zM622.578676 347.12644l149.472458 0c10.172503 0 18.419112 8.246409 18.419112 18.419112l0 0c0 10.172503-8.246409 18.419112-18.419112 18.419112l-149.472458 0c-10.172503 0-18.419112-8.246409-18.419112-18.419112l0 0C604.159764 355.372849 612.406173 347.12644 622.578676 347.12644zM622.578676 434.375685l73.183981 0c10.172503 0 18.419112 8.246409 18.419112 18.419112l0 0.005196c0 10.172503-8.246409 18.419112-18.419112 18.419112l-73.183981 0c-10.172503 0-18.419112-8.246409-18.419112-18.419112l0-0.005196C604.159764 442.622294 612.406173 434.375685 622.578676 434.375685zM622.578676 520.823274l118.654752 0c10.172503 0 18.419112 8.246409 18.419112 18.419112l0 0c0 10.172503-8.246409 18.419112-18.419112 18.419112l-118.654752 0c-10.172503 0-18.419112-8.246409-18.419112-18.419112l0 0C604.159764 529.069883 612.406173 520.823274 622.578676 520.823274z" p-id="2246"></path></svg>