<?xml version="1.0" encoding="utf-8"?>
<!-- Generator: Adobe Illustrator 22.0.0, SVG Export Plug-In . SVG Version: 6.00 Build 0)  -->
<svg version="1.1" id="icon" xmlns="http://www.w3.org/2000/svg" xmlns:xlink="http://www.w3.org/1999/xlink" x="0px" y="0px"
	 viewBox="0 0 38.7 53.4" style="enable-background:new 0 0 38.7 53.4;" xml:space="preserve">
<style type="text/css">
	.st0{fill:#F98526;}
	.st1{fill:#D1620F;}
	.st2{fill:#FFB980;}
	.st3{fill:#FFFFFF;}
	.st4{fill:#518EF8;}
	.st5{fill:#3A5BBC;}
	.st6{fill:#ACD1FC;}
	.st7{fill:#FC7251;}
	.st8{fill:#CE3D32;}
	.st9{fill:#FFA492;}
	.st10{fill:#37C3A4;}
	.st11{fill:#198E6F;}
	.st12{fill:#BDEBD7;}
	.st13{fill:#379AF4;}
	.st14{fill:#1F73B2;}
	.st15{fill:#97D3FF;}
	.st16{fill:#999999;}
	.st17{fill:#FF777E;}
	.st18{fill:#DC4436;}
	.st19{fill:#A51919;}
	.st20{fill:#EF8686;}
</style>
<g>
	<path class="st0" d="M-60.4,115.1v35.3c0,1.9-1.5,3.4-3.4,3.4h-31.8c-1.9,0-3.4-1.5-3.4-3.4v-46.5c0-1.9,1.5-3.4,3.4-3.4H-75
		L-60.4,115.1z"/>
	<polygon class="st1" points="-73,114.8 -60.4,120 -60.4,115.1 -67.5,113 	"/>
	<path class="st2" d="M-60.4,115.1h-11.2c-1.9,0-3.4-1.5-3.4-3.4v-11.2L-60.4,115.1z"/>
	<path class="st3" d="M-81.9,143c0,0-0.1,0-0.1,0c-0.3-0.1-0.5-0.5-0.4-0.8l4.2-15.7c0.1-0.3,0.4-0.5,0.7-0.5c0,0,0.1,0,0.1,0
		c0.2,0,0.3,0.1,0.4,0.3c0.1,0.1,0.1,0.3,0,0.5l-4.2,15.8C-81.3,142.9-81.6,143-81.9,143L-81.9,143z M-74,141
		c-0.2,0-0.3-0.1-0.4-0.2c-0.3-0.3-0.3-0.6,0-0.9l5.3-5.3l-5.3-5.3c-0.3-0.3-0.3-0.6,0-0.9c0.1-0.1,0.3-0.2,0.4-0.2
		c0.2,0,0.3,0.1,0.4,0.2l5.8,5.8c0.1,0.1,0.2,0.3,0.2,0.4c0,0.1-0.1,0.3-0.2,0.4l-5.8,5.8C-73.6,140.9-73.8,141-74,141z M-85.5,141
		c-0.2,0-0.3-0.1-0.4-0.2l-5.8-5.8c-0.1-0.1-0.2-0.3-0.2-0.4c0-0.2,0.1-0.3,0.2-0.4l5.8-5.8c0.1-0.1,0.3-0.2,0.4-0.2
		c0.2,0,0.3,0.1,0.4,0.2c0.3,0.3,0.3,0.6,0,0.9l-5.3,5.3l5.3,5.3c0.3,0.3,0.3,0.6,0,0.9C-85.1,140.9-85.3,141-85.5,141z"/>
</g>
<g>
	<path class="st4" d="M38.7,115.1v35.3c0,1.9-1.5,3.4-3.4,3.4H3.4c-1.9,0-3.4-1.5-3.4-3.4v-46.5c0-1.9,1.5-3.4,3.4-3.4H24
		L38.7,115.1z"/>
	<polygon class="st5" points="26,114.8 38.7,120 38.7,115.1 31.5,113 	"/>
	<path class="st6" d="M38.7,115.1H27.5c-1.9,0-3.4-1.5-3.4-3.4v-11.2L38.7,115.1z"/>
	<path class="st3" d="M9.5,143.4c-0.7,0-1.3-0.6-1.3-1.3V127c0-0.7,0.6-1.3,1.3-1.3h19.6c0.7,0,1.3,0.6,1.3,1.3v15.1
		c0,0.7-0.6,1.3-1.3,1.3H9.5z M9.3,138.5v3.8h20.1v-3.8l-4.8-4.8l-3,3l1.2,1.2c0.2,0.2,0.2,0.5,0,0.7c-0.1,0.1-0.2,0.2-0.4,0.2
		c-0.1,0-0.3-0.1-0.4-0.2l-6.4-6.4L9.3,138.5z M24.6,132.5c0.1,0,0.3,0.1,0.4,0.1l4.4,4.4v-10.3H9.3v10.3l5.9-5.9
		c0.1-0.1,0.3-0.2,0.4-0.2c0.2,0,0.3,0.1,0.4,0.1l4.9,4.9l3.4-3.4C24.3,132.6,24.5,132.5,24.6,132.5L24.6,132.5z"/>
</g>
<g>
	<path class="st7" d="M38.7,14.6v35.3c0,1.9-1.5,3.4-3.4,3.4H3.4c-1.9,0-3.4-1.5-3.4-3.4V3.4C0,1.5,1.5,0,3.4,0H24L38.7,14.6z"/>
	<polygon class="st8" points="26,14.3 38.7,19.5 38.7,14.6 31.5,12.5 	"/>
	<path class="st9" d="M38.7,14.6H27.5c-1.9,0-3.4-1.5-3.4-3.4V0L38.7,14.6z"/>
	<g>
		<path class="st3" d="M29,32.2c-0.7-3.7-3.4-6.6-6.9-7.6v-1.3c4.3,1.1,7.5,4.5,8.2,8.9H29z"/>
		<path class="st3" d="M19.4,45.1c-6.1,0-11.1-5-11.1-11.1c0-5.9,4.7-10.8,10.6-11.1v12.5h11.5C29.7,40.9,24.9,45.1,19.4,45.1z
			 M17,24.5c-4.4,1.1-7.5,5-7.5,9.6c0,5.4,4.4,9.9,9.9,9.9c4.2,0,7.9-2.6,9.3-6.6l0.2-0.7H17.7V24.3L17,24.5z"/>
	</g>
</g>
<g>
	<path class="st10" d="M137.6,14.6v35.3c0,1.9-1.5,3.4-3.4,3.4h-31.8c-1.9,0-3.4-1.5-3.4-3.4V3.4c0-1.9,1.5-3.4,3.4-3.4H123
		L137.6,14.6z"/>
	<polygon class="st11" points="125,14.3 137.6,19.5 137.6,14.6 130.4,12.5 	"/>
	<path class="st12" d="M137.6,14.6h-11.2c-1.9,0-3.4-1.5-3.4-3.4V0L137.6,14.6z"/>
	<g>
		<path class="st3" d="M127,43.2h-2.3l-15.2-18.3h2.3L127,43.2z"/>
		<path class="st3" d="M109.5,43.2h2.3L127,24.9h-2.3L109.5,43.2z"/>
	</g>
</g>
<g>
	<path class="st13" d="M-60.4,14.6v35.3c0,1.9-1.5,3.4-3.4,3.4h-31.8c-1.9,0-3.4-1.5-3.4-3.4V3.4c0-1.9,1.5-3.4,3.4-3.4H-75
		L-60.4,14.6z"/>
	<polygon class="st14" points="-73,14.3 -60.4,19.5 -60.4,14.6 -67.5,12.5 	"/>
	<path class="st15" d="M-60.4,14.6h-11.2c-1.9,0-3.4-1.5-3.4-3.4V0L-60.4,14.6z"/>
	<path class="st3" d="M-75.4,42.4L-79,29.5c-0.3-1.1-0.5-1.8-0.5-2l-0.2-0.6l-0.2,0.6c-0.2,0.8-0.3,1.5-0.5,2L-84,42.4h-2.1
		l-4.4-16.8h2l2.6,11.1c0.3,1.2,0.5,2.3,0.7,3.5l0.3,0c0.4-1.8,0.7-2.9,0.8-3.2l3.2-11.4h2.5l2.4,8.5c0.6,2,1,4,1.3,6l0.3,0
		c0.2-1.1,0.5-2.3,0.9-3.7l2.7-10.9h1.9l-4.6,16.8H-75.4z"/>
</g>
<g>
	<circle class="st16" cx="107.8" cy="127.2" r="1.7"/>
	<circle class="st16" cx="118.3" cy="127.2" r="1.7"/>
	<circle class="st16" cx="128.7" cy="127.2" r="1.7"/>
</g>
<g>
	<g>
		<polygon class="st17" points="-221,-157.6 -229.1,-151.8 -229.1,-163.4 		"/>
		<polygon class="st17" points="-205.6,-157.6 -213.7,-151.8 -213.7,-163.4 		"/>
		<polygon class="st17" points="-190.3,-157.6 -198.4,-151.8 -198.4,-163.4 		"/>
		<polygon class="st17" points="-174.9,-157.6 -183,-151.8 -183,-163.4 		"/>
		<polygon class="st17" points="-159.6,-157.6 -167.7,-151.8 -167.7,-163.4 		"/>
		<polygon class="st17" points="-144.2,-157.6 -152.3,-151.8 -152.3,-163.4 		"/>
		<polygon class="st17" points="-128.8,-157.6 -137,-151.8 -137,-163.4 		"/>
		<polygon class="st17" points="-113.5,-157.6 -121.6,-151.8 -121.6,-163.4 		"/>
	</g>
	<g>
		<path class="st18" d="M-302.2-188.3v89.9c0,4.8-3.9,8.8-8.8,8.8h-80.9c-4.8,0-8.8-3.9-8.8-8.8v-118.4c0-4.8,3.9-8.8,8.8-8.8h52.4
			L-302.2-188.3z"/>
		<polygon class="st19" points="-334.4,-189.1 -302.2,-175.9 -302.2,-188.3 -320.5,-193.7 		"/>
		<path class="st20" d="M-302.2-188.3h-28.5c-4.8,0-8.8-3.9-8.8-8.8v-28.5L-302.2-188.3z"/>
		<g>
			<polygon class="st3" points="-325.8,-135.3 -325.8,-135.3 -325.8,-135.3 			"/>
			<path class="st3" d="M-325.1-133.9c-0.1-0.4-0.4-1-0.8-1.3h0c-1.1-1-3.4-1.6-7-1.6c-2.4,0-5.3,0.2-8.4,0.6
				c-1.4-0.8-2.8-1.6-3.9-2.6c-3-2.7-5.5-6.5-7-10.7c0.1-0.4,0.2-0.7,0.3-1.1c0,0,1.7-9.3,1.2-12.5c0-0.3-0.1-0.6-0.2-0.9l-0.1-0.4
				c-0.5-1-1.4-2.1-2.8-2.1l-0.8,0c-1.6,0-2.8,0.8-3.2,2c-1,3.7,0,9.2,1.9,16.3l-0.5,1.2c-1.4,3.3-3.1,6.5-4.6,9.4l-0.2,0.4
				c-1.4,2.6-2.8,5.2-4.3,7.8l-1.3,0.7c-0.1,0.1-2.4,1.3-2.9,1.6c-4.6,2.7-7.6,5.7-8.1,8.2c-0.2,0.8,0,1.8,0.8,2.2l1.3,0.6
				c0.6,0.3,1.2,0.4,1.8,0.4c3.3,0,7.1-4,12.3-12.9c6.2-2,12.5-3.4,18.9-4.4c4.6,2.5,10.2,4.3,13.8,4.3c0.6,0,1.2-0.1,1.6-0.2
				c0.6-0.2,1.2-0.5,1.6-1.1C-325-131.1-324.9-132.5-325.1-133.9z M-374.7-118.2L-374.7-118.2c0.6-1.6,3-4.8,6.5-7.6
				c0.2-0.2,0.8-0.7,1.3-1.1C-370.6-121.2-373.1-118.9-374.7-118.2z M-354-164.9c1.1,0,1.7,2.6,1.7,5c0.1,2.4-0.5,4.1-1.3,5.4
				c-0.6-1.9-0.9-4.8-0.9-6.8C-354.5-161.2-354.5-164.9-354-164.9z M-360.2-131.6c0.7-1.3,1.5-2.6,2.3-4.1c1.5-2.8,2.8-5.6,4-8.5
				c1.8,3.2,4,5.9,6.6,8c0.3,0.3,0.7,0.5,1,0.8C-351.6-134.4-356.2-133.1-360.2-131.6z M-326.8-131.9L-326.8-131.9
				c-0.3,0.2-1.2,0.3-1.8,0.3c-1.9,0-4.3-0.9-7.6-2.3c1.3-0.1,2.4-0.1,3.5-0.1c1.9,0,2.5,0,4.4,0.5
				C-326.6-133.1-326.5-132.1-326.8-131.9z"/>
		</g>
	</g>
</g>
</svg>
