<?xml version="1.0" standalone="no"?><!DOCTYPE svg PUBLIC "-//W3C//DTD SVG 1.1//EN" "http://www.w3.org/Graphics/SVG/1.1/DTD/svg11.dtd"><svg t="1747980241872" class="icon" viewBox="0 0 1160 1024" version="1.1" xmlns="http://www.w3.org/2000/svg" p-id="3215" xmlns:xlink="http://www.w3.org/1999/xlink" width="226.5625" height="200"><path d="M1112.746667 832.853333v-95.573333l-61.44-13.653333-6.826667-13.653334c6.826667-13.653333 40.96-40.96 40.96-40.96l-75.093333-95.573333s-47.786667 34.133333-54.613334 40.96c-6.826667 0-13.653333-6.826667-13.653333-6.826667l-20.48-61.44h-88.746667s-13.653333 54.613333-27.306666 61.44c-6.826667 0-13.653333 6.826667-13.653334 6.826667-13.653333-6.826667-54.613333-40.96-54.613333-40.96L662.186667 669.013333s34.133333 34.133333 34.133333 47.786667c0 6.826667-6.826667 6.826667-6.826667 13.653333-13.653333 6.826667-54.613333 13.653333-54.613333 13.653334v95.573333s47.786667 13.653333 61.44 20.48c0 6.826667 6.826667 13.653333 6.826667 13.653333-13.653333 13.653333-40.96 34.133333-40.96 34.133334l75.093333 95.573333s54.613333-34.133333 68.266667-40.96c6.826667 0 13.653333 6.826667 13.653333 6.826667 13.653333 6.826667 13.653333 54.613333 13.653333 54.613333h88.746667s6.826667-54.613333 13.653333-54.613333c6.826667-6.826667 13.653333-6.826667 20.48-6.826667 13.653333 6.826667 47.786667 40.96 47.786667 40.96l88.746667-95.573333s-34.133333-27.306667-47.786667-34.133334c6.826667-6.826667 6.826667-13.653333 6.826667-13.653333 6.826667-13.653333 61.44-27.306667 61.44-27.306667z m-232.106667 68.266667c-68.266667 0-116.053333-54.613333-116.053333-122.88s47.786667-122.88 116.053333-122.88 116.053333 54.613333 116.053333 122.88-54.613333 122.88-116.053333 122.88z" p-id="3216"></path><path d="M566.613333 798.72c0-163.84 129.706667-293.546667 286.72-293.546667 13.653333 0 40.96 0 54.613334 6.826667V252.586667c0-27.306667-20.48-40.96-40.96-40.96h-177.493334v-136.533334C689.493333 34.133333 682.666667 0 641.706667 0H184.32c-40.96 0-68.266667 34.133333-68.266667 75.093333V819.2h-68.266666c-13.653333 0-20.48 13.653333-20.48 20.48v95.573333c0 13.653333 13.653333 20.48 20.48 20.48H614.4c-27.306667-40.96-47.786667-95.573333-47.786667-157.013333z m163.84-375.466667c0-13.653333 13.653333-20.48 20.48-20.48h40.96c13.653333 0 27.306667 6.826667 27.306667 20.48v40.96c0 13.653333-13.653333 20.48-20.48 20.48H750.933333c-13.653333 0-20.48-13.653333-20.48-20.48v-40.96zM430.08 211.626667c0-27.306667 20.48-40.96 40.96-40.96h40.96c27.306667 0 40.96 20.48 40.96 40.96v40.96c0 27.306667-20.48 40.96-40.96 40.96h-40.96c-27.306667 0-40.96-20.48-40.96-40.96v-40.96z m0 232.106666c0-27.306667 20.48-40.96 40.96-40.96h40.96c27.306667 0 40.96 20.48 40.96 40.96v40.96c0 27.306667-20.48 40.96-40.96 40.96h-40.96c-27.306667 0-40.96-20.48-40.96-40.96v-40.96z m-61.44 279.893334c0 27.306667-20.48 40.96-40.96 40.96h-47.786667c-27.306667 0-40.96-20.48-40.96-40.96V682.666667c0-27.306667 20.48-40.96 40.96-40.96h40.96c27.306667 0 40.96 20.48 40.96 40.96v40.96z m0-225.28c0 27.306667-20.48 40.96-40.96 40.96h-47.786667c-27.306667 0-40.96-20.48-40.96-40.96v-47.786667c0-27.306667 20.48-40.96 40.96-40.96h40.96c27.306667 0 40.96 20.48 40.96 40.96v47.786667z m0-238.933334c0 27.306667-20.48 40.96-40.96 40.96h-47.786667c-27.306667 0-40.96-20.48-40.96-40.96v-40.96c0-27.306667 20.48-40.96 40.96-40.96h40.96c27.306667 0 40.96 20.48 40.96 40.96v40.96z m157.013333 512H477.866667c-27.306667 0-40.96-20.48-40.96-40.96V682.666667c0-27.306667 20.48-40.96 40.96-40.96h40.96c27.306667 0 40.96 20.48 40.96 40.96v40.96c6.826667 27.306667-6.826667 47.786667-34.133334 47.786666z" p-id="3217"></path></svg>
