<?xml version="1.0" standalone="no"?><!DOCTYPE svg PUBLIC "-//W3C//DTD SVG 1.1//EN" "http://www.w3.org/Graphics/SVG/1.1/DTD/svg11.dtd"><svg t="1747980377464" class="icon" viewBox="0 0 1024 1024" version="1.1" xmlns="http://www.w3.org/2000/svg" p-id="4223" xmlns:xlink="http://www.w3.org/1999/xlink" width="200" height="200"><path d="M775.5 330.5l-170.6-53.4c-26.5-8.3-48.7 5.2-48.7 30.2v275.8c18.8-20.8 41.2-38.2 66.3-51.1 4.4-11.5 16.4-19.8 30.4-19.8h23.9c16.6-3.8 33.9-5.8 51.7-5.8 29.8 0 58.2 5.6 84.3 15.8V381c0.1-21.3-16.5-44-37.3-50.5z m-58 121.5h-64.6c-17.7 0-32.3-13.3-32.3-29.7 0-16.3 14.5-29.7 32.3-29.7h64.6c17.7 0 32.3 13.3 32.3 29.7S735.2 452 717.5 452zM138.9 867.2h396.5c-12.1-18.1-21.7-38-28.4-59.3h-15V140.5c0-33.3-27.9-51.4-61-40.2l-213.2 71.2c-26 8.7-46.7 38.9-46.7 67.4v569.2H139c-17.6 0-32.1 13.3-32.1 29.6-0.1 16.2 14.4 29.5 32 29.5zM266.3 274h128.5c17.7 0 32.1 13.3 32.1 29.7 0 16.3-14.5 29.7-32.1 29.7H266.3c-17.7 0-32.1-13.3-32.1-29.7 0-16.3 14.5-29.7 32.1-29.7z m0 118.7h128.5c17.7 0 32.1 13.3 32.1 29.7 0 16.3-14.5 29.7-32.1 29.7H266.3c-17.7 0-32.1-13.3-32.1-29.7s14.5-29.7 32.1-29.7z m0 119.5h128.5c17.7 0 32.1 13.3 32.1 29.7 0 16.3-14.5 29.7-32.1 29.7H266.3c-17.7 0-32.1-13.3-32.1-29.7s14.5-29.7 32.1-29.7z m0 118.6h128.5c17.7 0 32.1 13.3 32.1 29.7 0 16.3-14.5 29.7-32.1 29.7H266.3c-17.7 0-32.1-13.3-32.1-29.7s14.5-29.7 32.1-29.7z"  p-id="4224"></path><path d="M728.6 549.9c-104.2 0-188.6 84.4-188.6 188.6 0 104.2 84.4 188.6 188.6 188.6s188.6-84.4 188.6-188.6c0-104.2-84.5-188.6-188.6-188.6z m37.8 81.9c2-2 4.7-3.1 7.4-3.1 2.8 0 5.5 1.1 7.4 3.1l22.3 22.3c4.1 4.1 4.1 10.8 0 14.9l-14.9 14.9-37.2-37.2 15-14.9z m-119 119l89.3-89.3 37.2 37.2-89.4 89.3-35.6 3c-1.2 0.1-2.5-0.3-3.3-1.2-0.9-0.9-1.3-2.1-1.2-3.3l3-35.7z m186.4 87c0 2.8-1.1 5.5-3.1 7.4-2 2-4.7 3.1-7.4 3.1H633.9c-2.8 0-5.5-1.1-7.4-3.1-2-2-3.1-4.6-3.1-7.4v-10.5c0-2.8 1.1-5.5 3.1-7.4 2-2 4.7-3.1 7.4-3.1h189.4c2.8 0 5.5 1.1 7.4 3.1 2 2 3.1 4.7 3.1 7.4v10.5z" p-id="4225"></path></svg>
