<?xml version="1.0" standalone="no"?><!DOCTYPE svg PUBLIC "-//W3C//DTD SVG 1.1//EN" "http://www.w3.org/Graphics/SVG/1.1/DTD/svg11.dtd"><svg t="1568797471355" class="icon" viewBox="0 0 1024 1024" version="1.1" xmlns="http://www.w3.org/2000/svg" p-id="1995" xmlns:xlink="http://www.w3.org/1999/xlink" width="200" height="200"><defs><style type="text/css"></style></defs><path d="M512 0C229.236 0 0 229.236 0 512s229.236 512 512 512 512-229.236 512-512S794.764 0 512 0z m0 963.765C262.499 963.765 60.235 761.5 60.235 512S262.5 60.235 512 60.235 963.764 262.5 963.764 512 761.5 963.765 512 963.765z m-30.117-180.706h60.234v-60.235h-60.234v60.235zM512 240.94c-92.325 2.383-150.589 69.617-150.589 180.705h60.236c0-65.382 19.633-120.47 90.353-120.47 71.058 0 90.353 42.97 90.353 90.353 0 49.588-20.676 59.382-60.237 90.352-43.941 36.148-61.705 68.853-60.235 120.472v60.235h60.235v-60.235c-2.968-29.236 7.5-37.177 36.824-59.56 57.147-46.47 83.648-86 83.648-151.265 0-92.94-56.323-150.587-150.588-150.587z" p-id="1996"></path></svg>