<?xml version="1.0" standalone="no"?><!DOCTYPE svg PUBLIC "-//W3C//DTD SVG 1.1//EN" "http://www.w3.org/Graphics/SVG/1.1/DTD/svg11.dtd"><svg t="1703753300710" class="icon" viewBox="0 0 1024 1024" version="1.1" xmlns="http://www.w3.org/2000/svg" p-id="5043" xmlns:xlink="http://www.w3.org/1999/xlink" width="250" height="250"><path d="M819 186.8l-92.58 650.67-199.68-126.69-46.13-29.26L440 718.06l-87 78.29V600.56l-33.43-21.21-143.27-90.89L819 186.8m50-99.72a32 32 0 0 0-13.63 3.09L79.76 454.24c-22.86 10.72-24.87 42.46-3.55 56L281 640.15v281.93a16 16 0 0 0 16.1 16c3.92 0.012 7.7-1.443 10.6-4.08l180.47-162.42 252 159.87A32 32 0 0 0 789 908.94l111.68-785.3c2.88-20.25-13.25-36.56-31.65-36.56H869z" p-id="5044"></path><path d="M670.74947 346.806889m5.353045 5.945159l37.471314 41.61611q5.353045 5.945159-0.592114 11.298204l-225.916027 203.415704q-5.945159 5.353045-11.298203-0.592114l-37.471314-41.61611q-5.353045-5.945159 0.592114-11.298204l225.916027-203.415704q5.945159-5.353045 11.298203 0.592114Z" p-id="5045"></path></svg>
