<?xml version="1.0" standalone="no"?><!DOCTYPE svg PUBLIC "-//W3C//DTD SVG 1.1//EN" "http://www.w3.org/Graphics/SVG/1.1/DTD/svg11.dtd"><svg t="1747965461308" class="icon" viewBox="0 0 1024 1024" version="1.1" xmlns="http://www.w3.org/2000/svg" p-id="1562" width="200" height="200" xmlns:xlink="http://www.w3.org/1999/xlink"><path d="M928.5 431.8L540.2 120c-12.5-10.1-30-10.1-42.6 0L106.2 433.5c-10.8 8.6-12.5 24.4-3.9 35.1 8.6 10.8 24.4 12.5 35.1 3.9l36.7-29.4v424.6h-46c-13.8 0-25 11.2-25 25s11.2 25 25 25h778.4c13.8 0 25-11.2 25-25s-11.2-25-25-25H224.2V403.1l294.7-236 282.4 226.8v200.7c0 13.8 11.2 25 25 25s25-11.2 25-25V434l45.9 36.8c10.8 8.6 26.5 6.9 35.1-3.8 8.6-10.8 6.9-26.5-3.8-35.2z" p-id="1563" ></path><path d="M702.6 508.1c0-104.7-85.2-189.9-189.9-189.9s-189.9 85.2-189.9 189.9S408 698 512.7 698c104.8 0 189.9-85.2 189.9-189.9zM512.7 648c-77.1 0-139.9-62.8-139.9-139.9 0-77.1 62.8-139.9 139.9-139.9 77.1 0 139.9 62.8 139.9 139.9 0 77.1-62.7 139.9-139.9 139.9z" p-id="1564" ></path><path d="M567.5 508.6h-7.1c-13.8 0-25-11.2-25-25v-22.5c0-13.8-11.2-25-25-25s-25 11.2-25 25v72.5c0 13.8 11.2 25 25 25h57.1c13.8 0 25-11.2 25-25s-11.2-25-25-25zM643.4 817.3v-30.1c0.5 0 1 0.1 1.6 0.1h231.8c13.8 0 25-11.2 25-25s-11.2-25-25-25H645c-0.5 0-1 0-1.6 0.1v-30.1L605 734.6l-38.4 27.5 38.4 27.5 38.4 27.7z" p-id="1565" ></path></svg>
