<?xml version="1.0" standalone="no"?><!DOCTYPE svg PUBLIC "-//W3C//DTD SVG 1.1//EN" "http://www.w3.org/Graphics/SVG/1.1/DTD/svg11.dtd"><svg t="1747965569313" class="icon" viewBox="0 0 1024 1024" version="1.1" xmlns="http://www.w3.org/2000/svg" p-id="13981" width="200" height="200" xmlns:xlink="http://www.w3.org/1999/xlink"><path d="M918.9 420.3L546.7 134.9c-19.4-14.9-46.6-15-66.2-0.3L104 417.3c-15.5 11.6-18.6 33.5-7 49 11.6 15.5 33.5 18.6 49 7l18.2-13.7v406.5c0 30.2 24.6 54.8 54.8 54.8h613.5v-70H234.2V407.1l279.1-209.6 284.2 218V535c0 19.3 15.7 35 35 35s35-15.7 35-35v-65.9l8.8 6.8c15.3 11.8 37.3 8.9 49.1-6.5 11.8-15.3 8.9-37.3-6.5-49.1z" p-id="13982" ></path><path d="M837.7 682.9H489.5v-45.3c0-2.7-3-4.2-5.2-2.6L431 674.5l-55 40.8c-1.7 1.3-1.7 3.9 0 5.2l55 40.8 53.3 39.5c2.1 1.6 5.2 0.1 5.2-2.6v-45.3h348.2c19.3 0 35-15.7 35-35 0-19.4-15.6-35-35-35zM610.1 515c19.3 0 35-15.7 35-35s-15.7-35-35-35H420c-19.3 0-35 15.7-35 35s15.7 35 35 35h190.1z" p-id="13983" ></path></svg>
