<?xml version="1.0" standalone="no"?><!DOCTYPE svg PUBLIC "-//W3C//DTD SVG 1.1//EN" "http://www.w3.org/Graphics/SVG/1.1/DTD/svg11.dtd"><svg t="1714380418872" class="icon" viewBox="0 0 1024 1024" version="1.1" xmlns="http://www.w3.org/2000/svg" p-id="25355" xmlns:xlink="http://www.w3.org/1999/xlink" width="200" height="200"><path d="M916.43904 813.45024H103.58784c-47.25248 0-85.56032-38.30272-85.56032-85.56032V193.13152c0-47.25248 38.30784-85.56032 85.56032-85.56032h812.8512c47.25248 0 85.56544 38.30784 85.56544 85.56032v534.77376c0 47.24736-38.30784 85.5552-85.56544 85.5552v-0.01024z" fill="#E2DCBC" p-id="25356"></path><path d="M916.43904 770.67264H103.58784a42.78272 42.78272 0 0 1-42.78272-42.78272V193.13152a42.78272 42.78272 0 0 1 42.78272-42.78272h812.8512a42.78272 42.78272 0 0 1 42.78272 42.78272v534.77376a42.76736 42.76736 0 0 1-42.78272 42.76736z" fill="#F4EECB" p-id="25357"></path><path d="M766.70464 856.23808H253.32736a42.78784 42.78784 0 1 1 0-85.56544h513.3824a42.7776 42.7776 0 0 1 42.19904 43.3664 42.79296 42.79296 0 0 1-42.20416 42.19904z" fill="#BFBBA3" p-id="25358"></path><path d="M766.70464 663.72096h-192.52224V64.77312a42.78272 42.78272 0 0 1 42.78272-42.7776h106.95168a42.78784 42.78784 0 0 1 42.78272 42.78784v598.9376h0.00512z" fill="#A3CCAA" p-id="25359"></path><path d="M659.74784 663.72096h-192.512V300.07808a42.7776 42.7776 0 0 1 42.7776-42.78272h106.9568a42.78784 42.78784 0 0 1 42.78784 42.78272v363.63776h-0.01024z" fill="#80A886" p-id="25360"></path><path d="M616.97024 663.72096H424.44288v-406.4256a42.78784 42.78784 0 0 1 42.78272-42.78784h106.95168a42.78784 42.78784 0 0 1 42.78272 42.78784l0.01024 406.4256z" fill="#FC8059" p-id="25361"></path><path d="M510.01344 663.72096H317.49632V492.59008a42.79296 42.79296 0 0 1 42.78784-42.78784h106.94656a42.78784 42.78784 0 0 1 42.7776 42.78784v171.12576h0.00512z" fill="#BF5243" p-id="25362"></path><path d="M467.23072 663.72096H274.72384V449.81248a42.79296 42.79296 0 0 1 42.78784-42.78784h106.9312a42.78784 42.78784 0 0 1 42.78272 42.78784v213.90848z" fill="#FED766" p-id="25363"></path><path d="M916.43904 91.52h-133.68832v-26.74176c0-32.4352-26.3936-58.82368-58.81856-58.82368h-106.96704c-32.44544 0-58.8288 26.38848-58.8288 58.82368v26.74176H103.58784C47.5648 91.52 1.98144 137.09824 1.98144 193.1264v534.77888c0 56.0128 45.57824 101.60128 101.6064 101.60128h93.13792c6.99904 24.65792 29.7216 42.7776 56.59648 42.7776h155.0848v117.65248H210.54976a16.04096 16.04096 0 1 0 0 32.08704h598.94272a16.04608 16.04608 0 0 0 0-32.08704h-197.86752v-117.65248h155.0848c26.86976 0 49.59744-18.10944 56.6016-42.78272h93.1328c56.01792 0 101.61152-45.57824 101.61152-101.6064V193.13152c0-56.02304-45.57824-101.6064-101.61152-101.6064v-0.00512z m-326.21056-26.74688a26.77248 26.77248 0 0 1 26.74176-26.73664h106.96192a26.75712 26.75712 0 0 1 26.73152 26.73664v582.90176h-117.64736V257.29536c0-26.86976-18.11456-49.59744-42.78272-56.6016V64.77312z m-16.03584 165.7856a26.76736 26.76736 0 0 1 26.73664 26.73664v390.38976H483.28192V449.80736c0-26.88-18.1248-49.59744-42.78272-56.59648V257.28512a26.76736 26.76736 0 0 1 26.74176-26.73664h106.94656l0.00512 0.01024zM451.19488 449.80736v197.86752H290.75968V449.81248a26.76736 26.76736 0 0 1 26.74176-26.74688h106.94144a26.76736 26.76736 0 0 1 26.74176 26.74688l0.01024-0.00512z m128.34304 540.12416H440.49408v-117.65248h139.04384v117.65248z m187.16672-149.7344H253.32736a26.76736 26.76736 0 0 1-26.73664-26.74688 26.76224 26.76224 0 0 1 26.73664-26.73152h513.3824a26.76736 26.76736 0 0 1 26.73664 26.73152 26.76736 26.76736 0 0 1-26.74176 26.74688z m219.25376-112.3072c0 38.33856-31.19104 69.51936-69.51936 69.51936h-93.1328c-6.99392-24.65792-29.7216-42.78272-56.6016-42.78272H253.32736c-26.88 0-49.59744 18.1248-56.59648 42.78272H103.58784c-38.33344 0-69.51936-31.1808-69.51936-69.51936V193.13152c0-38.33856 31.18592-69.51936 69.51936-69.51936h454.54848v74.86976H467.23072c-32.4352 0-58.81856 26.38848-58.81856 58.82368v133.68832H317.49632c-32.4352 0-58.81856 26.38848-58.81856 58.82368v197.86752H157.07136a16.04608 16.04608 0 0 0 0 32.08704h643.24608a16.04608 16.04608 0 1 0 0-32.08704h-17.56672V123.5968h133.68832c38.33856 0 69.51936 31.18592 69.51936 69.51936v534.77376z m-106.95168-64.16896a16.03072 16.03072 0 0 1-16.0256 16.04096h-3.16928a16.04096 16.04096 0 1 1 0-32.08704h3.1488a16.03584 16.03584 0 0 1 16.04608 16.0256v0.02048z" fill="#4C4C4C" p-id="25364"></path></svg>