<?xml version="1.0" standalone="no"?><!DOCTYPE svg PUBLIC "-//W3C//DTD SVG 1.1//EN" "http://www.w3.org/Graphics/SVG/1.1/DTD/svg11.dtd"><svg t="1594343980920" class="icon" viewBox="0 0 1024 1024" version="1.1" xmlns="http://www.w3.org/2000/svg" p-id="3339" xmlns:xlink="http://www.w3.org/1999/xlink" width="200" height="200"><defs><style type="text/css"></style></defs><path d="M562.7 325.8c0-137.7-111.6-249.4-249.4-249.4-31.6 0-61.7 6.1-89.5 16.8l140 140c14.5 14.5 14.5 38 0 52.5l-77.7 78.9c-14.5 14.5-38 14.5-52.5 0L88.2 219.1C72.9 251.5 64 287.6 64 325.8c0 137.7 111.6 249.4 249.4 249.4 137.7 0 249.3-111.7 249.3-249.4z m375.6 420.4c29 29 29 76 0 104.9l-74.7 74.7c-29 29-76 29-105 0l-299-301.3c-10.6-10.6-15.7-22.1-16.6-33.7 32.5-14.5 63.1-34.8 89.8-61.5 29.7-29.7 51.8-64.2 66.4-100.9 13.9-0.7 27.6 4 40.1 16.4l299 301.4z m-86.1 86.1c20.7-20.7 20.7-54.2 0-74.8-20.7-20.7-54.2-20.7-74.9 0-20.7 20.7-20.7 54.2 0 74.8 20.7 20.7 54.3 20.7 74.9 0z" p-id="3340"></path></svg>