<?xml version="1.0" standalone="no"?><!DOCTYPE svg PUBLIC "-//W3C//DTD SVG 1.1//EN" "http://www.w3.org/Graphics/SVG/1.1/DTD/svg11.dtd"><svg t="1747912014564" class="icon" viewBox="0 0 1024 1024" version="1.1" xmlns="http://www.w3.org/2000/svg" p-id="6301" xmlns:xlink="http://www.w3.org/1999/xlink" width="200" height="200"><path d="M268.2 836.47c-30.74 0.07-59.45-28.57-59.53-59.31V221c0.06-30.74 28.78-62.19 59.54-62.13H687c30.74-0.07 59.5 31.35 59.56 62.12v200.96c0 15.42 10.64 27.95 26.08 27.95s26.08-12.5 26.08-27.95V221c0-61.41-50-114-111.67-114H268.2c-61.65 0-111.67 52.6-111.67 114v556.15c0 61.42 50 111.23 111.67 111.23h144.31c15.36 0 27.81-11.51 27.81-26.88s-12.45-25-27.81-25H268.2z" p-id="6302"></path><path d="M412.51 891.38H268.2c-63.23 0-114.67-51.24-114.67-114.23V221a117.47 117.47 0 0 1 33.57-82.13c21.83-22.48 50.63-34.87 81.1-34.87h418.89c30.48 0 59.29 12.39 81.12 34.89A117.48 117.48 0 0 1 801.76 221v200.95c0 17.64-12.5 30.95-29.08 30.95s-29.08-13.3-29.08-30.95V221c0-14.06-6.39-28.84-17.46-40.56s-25.35-18.55-39-18.55h-419c-28.46 0-56.41 29.27-56.47 59.14v556.12c0.07 29 27.48 56.31 56.42 56.31h144.42c17.85 0 30.81 11.78 30.81 28-0.01 16.8-13.54 29.92-30.81 29.92zM268.2 110c-58.91 0-108.67 50.84-108.67 111v556.15c0 59.68 48.75 108.23 108.67 108.23h144.31c13.91 0 24.81-10.49 24.81-23.88 0-13-10.2-22-24.81-22H265.2v-0.11c-14.47-0.8-29-7.59-40.38-18.9-12.13-12.09-19.11-27.88-19.15-43.33V221c0-15.57 7-31.85 19.07-44.67 12.29-13 28.16-20.48 43.48-20.46h418.91c15.3 0 31.1 7.44 43.37 20.44 12.1 12.82 19.06 29.1 19.1 44.67v201c0 14.22 9.92 24.95 23.08 24.95 13.38 0 23.08-10.49 23.08-24.95V221c0-60.18-49.77-111-108.67-111z" p-id="6303"></path><path d="M875 871.65v-73.07a44.23 44.23 0 0 0-44-44.31h-43.58l-64.22-82.06 5.23-3.42a92.65 92.65 0 0 0 26.88-128.24l-0.73-1.1c-27.75-41.18-84.45-53.1-126.41-26.47a92.65 92.65 0 0 0-1.11 155.81l5.23 3.42-64.2 82.05H524.5a44.37 44.37 0 0 0-44.32 44.32v73.08a44.53 44.53 0 0 0 44.33 44.45h306.17A44.54 44.54 0 0 0 875 871.65zM625.06 592.71c0.15-14.24 4.85-26.7 14.9-36.78s23.47-16.64 37.71-16.77h1.1c29.91 0.32 53 24.86 52.69 54.72-0.16 14.46-5 28.92-15.33 39a53.78 53.78 0 0 1-37.86 15.45h-0.6a53.79 53.79 0 0 1-38.11-16.26c-10.1-10.37-14.65-25-14.5-39.4z m52.77 83.51L737 755.89H618.4zM837.71 849.3c0 11.87-7.8 29-19.66 29.05l-280.79-0.93h-0.08c-11.74 0-19.56-15.12-19.74-26.87l-0.44-29.9c-0.18-11.91 7.5-23.61 19.41-23.79h0.26l281.21-1.07c5.77 0 10.25 4.05 14.37 8.11s5.44 9.47 5.47 15.25v30.16z" p-id="6304"></path><path d="M830.69 919.11H524.51a47.64 47.64 0 0 1-47.33-47.45v-73.08a47.44 47.44 0 0 1 47.32-47.32h42.13l61.29-78.33-2.49-1.63a95.65 95.65 0 0 1 1.15-160.85c43.29-27.48 101.84-15.22 130.5 27.32l0.78 1.19a95.75 95.75 0 0 1-27.79 132.34l-2.49 1.63 61.3 78.34H831a47.31 47.31 0 0 1 47 47.32v73.07a47.65 47.65 0 0 1-47.31 47.45zM524.5 757.26a41.43 41.43 0 0 0-41.32 41.33v73.08a41.63 41.63 0 0 0 41.35 41.45h306.15A41.64 41.64 0 0 0 872 871.65v-73.07a41.3 41.3 0 0 0-41-41.31h-45l-67.12-85.78 8-5.21a89.75 89.75 0 0 0 26-124.08l-0.73-1.1c-26.86-39.85-81.73-51.34-122.3-25.59a89.65 89.65 0 0 0-1.07 150.77l8 5.21-67.12 85.77z m293.56 124.1l-280.81-0.93c-13.21 0-22.6-15.72-22.81-29.82l-0.44-29.92c-0.19-13 8.12-26.63 22.37-26.84h0.31l281.2-1.07c6.8 0 11.88 4.43 16.49 9 4.25 4.18 6.33 9.86 6.36 17.37v30.15c-0.02 13.36-8.64 32.01-22.68 32.06z m-281.66-81.5a15.05 15.05 0 0 0-11.86 6.31A23.57 23.57 0 0 0 520 820.6l0.46 29.91c0.15 9.75 6.74 23.91 16.74 23.91l280.88 0.93c9.65 0 16.65-15.57 16.66-26v-30.2c0-5.9-1.48-10.07-4.57-13.11-3.88-3.82-7.74-7.25-12.27-7.25z m206.61-41H612.42l65.42-87.69z m-118.63-6h106.69l-53.25-71.64z m54-101.51h-0.73a57.16 57.16 0 0 1-40.26-17.17c-10.07-10.34-15.52-25.09-15.35-41.53 0.16-15.45 5.47-28.53 15.78-38.86 11.22-11.25 25.35-17.52 39.81-17.65h1.13a55.46 55.46 0 0 1 39.85 17.21 57.39 57.39 0 0 1 15.84 40.54c-0.18 16.46-5.95 31.08-16.23 41.15a56.43 56.43 0 0 1-39.82 16.34z m-0.13-6h0.13A50.47 50.47 0 0 0 714 630.78c9.15-9 14.28-22.08 14.44-36.94a51.42 51.42 0 0 0-14.18-36.33 49.49 49.49 0 0 0-35.54-15.36h-1.07c-12.84 0.12-25.49 5.76-35.58 15.89-9.16 9.19-13.88 20.86-14 34.69-0.15 14.84 4.7 28.08 13.65 37.28a51.11 51.11 0 0 0 36 15.36zM298 259.37h341q26.08 0 26.08 26.08T639 311.53H298q-26.08 0-26.08-26.08 0.01-26.08 26.08-26.08z" p-id="6305"></path><path d="M639 314.54H298c-19 0-29.08-10.06-29.08-29.08S279 256.37 298 256.37h341c19 0 29.08 10.06 29.08 29.08S658 314.54 639 314.54z m-341-52.17c-15.75 0-23.08 7.33-23.08 23.08s7.33 23.08 23.08 23.08h341c15.75 0 23.08-7.33 23.08-23.08s-7.38-23.08-23.08-23.08zM298 405.16h260.84q26.08 0 26.08 26.08t-26.08 26.08H298q-26.08 0-26.08-26.08 0.01-26.08 26.08-26.08z" p-id="6306"></path><path d="M558.84 460.33H298c-19 0-29.08-10.06-29.08-29.08S279 402.16 298 402.16h260.84c19 0 29.08 10.06 29.08 29.08s-10.05 29.09-29.08 29.09zM298 408.16c-15.75 0-23.08 7.33-23.08 23.08s7.33 23.08 23.08 23.08h260.84c15.75 0 23.08-7.33 23.08-23.08s-7.33-23.08-23.08-23.08zM298 550.95h155.58q26.08 0 26.08 26.08t-26.08 26.08H298q-26.08 0-26.08-26.08 0.01-26.08 26.08-26.08z" p-id="6307"></path><path d="M453.58 606.11H298c-19 0-29.08-10.06-29.08-29.08S279 547.95 298 547.95h155.58c19 0 29.08 10.06 29.08 29.08s-10.06 29.08-29.08 29.08zM298 553.95c-15.75 0-23.08 7.33-23.08 23.08s7.33 23.08 23.08 23.08h155.58c15.75 0 23.08-7.33 23.08-23.08s-7.33-23.08-23.08-23.08z" p-id="6308"></path></svg>
