<?xml version="1.0" standalone="no"?><!DOCTYPE svg PUBLIC "-//W3C//DTD SVG 1.1//EN" "http://www.w3.org/Graphics/SVG/1.1/DTD/svg11.dtd"><svg t="1747964704590" class="icon" viewBox="0 0 1024 1024" version="1.1" xmlns="http://www.w3.org/2000/svg" p-id="10119" width="200" height="200" xmlns:xlink="http://www.w3.org/1999/xlink"><path d="M621.9776 950.8864H173.1584a99.1232 99.1232 0 0 1-99.1232-99.2256V173.2608a99.1232 99.1232 0 0 1 99.1232-99.2256h678.4c26.3168 0 51.6096 10.4448 70.144 29.0816a98.5088 98.5088 0 0 1 28.9792 70.144L949.248 621.9776v0.1024a36.5568 36.5568 0 0 0 73.1136 0.1024l1.536-448.8192A172.032 172.032 0 0 0 851.5584 1.024H173.1584a172.032 172.032 0 0 0-172.032 172.2368v678.4A172.032 172.032 0 0 0 173.056 1024h448.8192a36.4544 36.4544 0 0 0 0-73.0112z" p-id="10120"></path><path d="M1013.248 961.536L873.8816 822.272a219.4432 219.4432 0 1 0-51.6096 51.6096l139.264 139.264a36.4544 36.4544 0 0 0 51.712-51.5072zM695.1936 841.5232a146.1248 146.1248 0 1 1 0-292.352 146.1248 146.1248 0 0 1 0 292.352z m109.568-511.2832a36.5568 36.5568 0 0 0 0-73.216l-584.3968-0.2048a36.5568 36.5568 0 0 0 0 73.216l584.4992 0.2048zM439.6032 549.1712a36.4544 36.4544 0 1 0 0-73.0112h-219.136a36.4544 36.4544 0 1 0 0 72.9088h219.136z m-219.136 145.92a36.4544 36.4544 0 0 0 0 73.0112h146.1248a36.4544 36.4544 0 1 0 0-72.9088H220.3648z" p-id="10121"></path></svg>
