<?xml version="1.0" standalone="no"?><!DOCTYPE svg PUBLIC "-//W3C//DTD SVG 1.1//EN" "http://www.w3.org/Graphics/SVG/1.1/DTD/svg11.dtd"><svg t="1719556743465" class="icon" viewBox="0 0 1024 1024" version="1.1" xmlns="http://www.w3.org/2000/svg" p-id="13783" xmlns:xlink="http://www.w3.org/1999/xlink" width="200" height="200"><path d="M512 512m-512 0a512 512 0 1 0 1024 0 512 512 0 1 0-1024 0Z" fill="#3CC9CC" p-id="13784"></path><path d="M391.68 713.173333a38.186667 38.186667 0 1 0 39.466667 37.973334 38.826667 38.826667 0 0 0-39.466667-37.973334z m277.333333 0a38.186667 38.186667 0 1 0 39.68 37.973334 38.826667 38.826667 0 0 0-39.68-37.973334z m39.253334-18.986666h-320a58.026667 58.026667 0 0 1-57.173334-49.493334l-35.2-227.413333-18.986666-106.666667a19.84 19.84 0 0 0-18.56-16.853333h-25.173334a19.2 19.2 0 1 1 0-38.186667h25.173334a58.24 58.24 0 0 1 57.6 49.493334l18.986666 106.666666L368.64 640a18.986667 18.986667 0 0 0 17.92 16.213333h321.066667a19.2 19.2 0 1 1 0 38.186667zM411.093333 618.666667a18.986667 18.986667 0 1 1-1.28-37.973334l268.16-18.986666a19.413333 19.413333 0 0 0 19.2-16l31.146667-170.666667a23.04 23.04 0 0 0-4.906667-17.706667 12.586667 12.586667 0 0 0-9.6-4.266666h-341.333333a18.986667 18.986667 0 1 1 0-37.973334h341.333333a51.84 51.84 0 0 1 39.04 17.066667 59.946667 59.946667 0 0 1 15.146667 46.506667l-31.786667 171.733333a57.6 57.6 0 0 1-56.746666 48.426667L412.586667 618.666667z" fill="#FFFFFF" p-id="13785"></path></svg>