<?xml version="1.0" standalone="no"?><!DOCTYPE svg PUBLIC "-//W3C//DTD SVG 1.1//EN" "http://www.w3.org/Graphics/SVG/1.1/DTD/svg11.dtd"><svg t="1747964213050" class="icon" viewBox="0 0 1024 1024" version="1.1" xmlns="http://www.w3.org/2000/svg" p-id="10870" width="200" height="200" xmlns:xlink="http://www.w3.org/1999/xlink"><path d="M716.032 446.592c15.808 0 31.296 1.536 46.528 3.712v-282.88a54.848 54.848 0 0 0-55.808-55.808H552.256a35.84 35.84 0 0 1-35.392-27.904A111.616 111.616 0 0 0 408.96 0c-52.096 0-94.912 35.328-107.904 83.712a35.84 35.84 0 0 1-35.392 27.904H111.168a54.848 54.848 0 0 0-55.808 55.808v669.952c0 31.616 24.192 55.808 55.808 55.808H414.72a324.032 324.032 0 0 1-23.744-121.536 325.12 325.12 0 0 1 325.056-325.056zM485.952 319.04h173.376c17.344 0 31.36 16.512 31.36 36.864 0 20.352-14.08 36.864-31.36 36.864H485.952c-17.344 0-31.424-16.512-31.424-36.864s14.08-36.864 31.424-36.864z m-151.424 403.968h-161.28c-16.512 0-29.952-16.576-29.952-36.864s13.44-36.864 29.952-36.864h161.28c16.512 0 29.952 16.576 29.952 36.864s-13.44 36.864-29.952 36.864z m30.976-327.424H284.672v40.384h80.896v40.448H284.672v40.448h-40.448v-40.448H163.328v-40.448h80.896v-40.384H163.328v-40.512h72.384L169.408 288.384l28.352-28.288L264.448 326.4l66.688-66.304 28.288 28.288L293.12 355.072h72.384v40.512zM722.304 772.032l-3.52 5.12-12.16 17.472-1.408-2.752a57.152 57.152 0 0 0-16-21.376v127.552l8.896-4.48a236.16 236.16 0 0 0 62.4-44.928l-2.688-3.84c-11.392-15.744-23.296-40.32-35.52-72.768zM752.448 711.168l-5.504 13.632c4.032 13.184 8.064 25.28 11.968 35.904 7.488 20.16 16.64 38.848 27.136 55.744 14.848-24.256 23.872-59.584 26.816-105.28h-60.416z" p-id="10871"></path><path d="M720.384 527.424a248.32 248.32 0 1 0 0 496.64 248.32 248.32 0 0 0 0-496.64z m157.76 376.256a121.216 121.216 0 0 0-12.032 15.552 222.4 222.4 0 0 0-8.256 16.256l-0.96 1.92-1.728-1.28c-29.312-20.16-52.48-39.168-68.864-56.512a374.4 374.4 0 0 1-38.848 33.088 533.504 533.504 0 0 1-37.952 24.192l-1.728 1.088-0.896-1.92a61.632 61.632 0 0 0-9.472-15.424 146.56 146.56 0 0 0-8.128-8.768v21.696h-39.168v-97.024l-1.792 0.448a777.92 777.92 0 0 0-61.056 17.216c-2.176 0.96-5.504 2.112-9.536 3.584l-1.6 0.576-14.784-35.84 1.344-0.832a33.024 33.024 0 0 0 3.008-1.92c3.392-2.048 3.904-3.264 3.968-3.584a53.824 53.824 0 0 0 1.408-13.952v-160.768h39.168v166.016c5.76-1.408 16.128-3.968 32.896-7.872l7.04-1.856V613.568h39.168v134.464c23.168-28.672 37.824-73.28 43.328-132.608l0.192-1.984 43.904 7.36-0.512 1.92a615.232 615.232 0 0 0-8 32.96l-2.624 9.856-1.856 7.232h109.888v38.4H851.2a527.168 527.168 0 0 1-10.176 70.4 200.96 200.96 0 0 1-28.864 67.84c8.96 9.664 17.344 17.792 24.896 24.128 9.344 7.872 23.04 17.088 40.576 27.392l1.984 1.088-1.472 1.664z" p-id="10872"></path></svg>
