<svg xmlns="http://www.w3.org/2000/svg" xmlns:xlink="http://www.w3.org/1999/xlink" fill="none" version="1.1" width="193" height="112" viewBox="0 0 193 112"><defs><clipPath id="master_svg0_191_0800"><rect x="0" y="0" width="193" height="112" rx="0"/></clipPath></defs><g clip-path="url(#master_svg0_191_0800)"><g><g><path d="M161.05,22L99.21,22C95.79,22,93.03,24.77,93.03,28.18L93.03,46.730000000000004C93.03,50.15,90.26,52.91,86.85,52.91L31.18,52.91C27.759999999999998,52.91,25,55.68,25,59.09L25,83.83C25,87.25,27.77,90.01,31.18,90.01L93.02,90.01C96.44,90.01,99.2,87.24,99.2,83.83L99.2,65.28C99.2,61.86,101.97,59.1,105.38,59.1L161.04,59.1C164.46,59.1,167.22,56.33,167.22,52.92L167.22,28.18C167.22,24.759999999999998,164.45,22,161.04,22L161.05,22Z" fill="#6E29F5" fill-opacity="1" style="mix-blend-mode:passthrough"/></g></g></g></svg>