<?xml version="1.0" standalone="no"?><!DOCTYPE svg PUBLIC "-//W3C//DTD SVG 1.1//EN" "http://www.w3.org/Graphics/SVG/1.1/DTD/svg11.dtd"><svg t="1739965120014" class="icon" viewBox="0 0 1082 1024" version="1.1" xmlns="http://www.w3.org/2000/svg" p-id="19378" xmlns:xlink="http://www.w3.org/1999/xlink" width="211.328125" height="200"><path d="M87.771429 672.914286h58.514285a58.514286 58.514286 0 0 1 58.514286 58.514285v263.314286a29.257143 29.257143 0 0 1-29.257143 29.257143H58.514286a29.257143 29.257143 0 0 1-29.257143-29.257143v-263.314286a58.514286 58.514286 0 0 1 58.514286-58.514285zM380.342857 468.114286h58.514286a58.514286 58.514286 0 0 1 58.514286 58.514285v468.114286a29.257143 29.257143 0 0 1-29.257143 29.257143h-117.028572a29.257143 29.257143 0 0 1-29.257143-29.257143V526.628571a58.514286 58.514286 0 0 1 58.514286-58.514285zM672.914286 585.142857h58.514285a58.514286 58.514286 0 0 1 58.514286 58.514286v351.085714a29.257143 29.257143 0 0 1-29.257143 29.257143h-117.028571a29.257143 29.257143 0 0 1-29.257143-29.257143V643.657143a58.514286 58.514286 0 0 1 58.514286-58.514286zM965.485714 351.085714h58.514286a58.514286 58.514286 0 0 1 58.514286 58.514286v585.142857a29.257143 29.257143 0 0 1-29.257143 29.257143h-117.028572a29.257143 29.257143 0 0 1-29.257142-29.257143V409.6a58.514286 58.514286 0 0 1 58.514285-58.514286z" fill="#419BF9" p-id="19379"></path><path d="M938.569143 87.976229h-77.970286a43.885714 43.885714 0 0 1 0-87.771429h175.542857a43.885714 43.885714 0 0 1 43.885715 43.885714v175.542857a43.885714 43.885714 0 1 1-87.771429 0v-60.562285l-255.970743 283.267657a43.885714 43.885714 0 0 1-60.854857 2.428343L409.6 234.057143 102.4 529.115429a43.885714 43.885714 0 0 1-63.488-60.591543L375.369143 142.774857a43.885714 43.885714 0 0 1 60.884114-2.486857L702.171429 351.085714l236.397714-263.109485z" fill="#FFBF02" p-id="19380"></path></svg>