<?xml version="1.0" standalone="no"?><!DOCTYPE svg PUBLIC "-//W3C//DTD SVG 1.1//EN" "http://www.w3.org/Graphics/SVG/1.1/DTD/svg11.dtd"><svg t="1715585168917" class="icon" viewBox="0 0 1024 1024" version="1.1" xmlns="http://www.w3.org/2000/svg" p-id="25078" xmlns:xlink="http://www.w3.org/1999/xlink" width="200" height="200"><path d="M941.333 64C951.643 64 960 72.441 960 82.854V775.2c0.013 7.717-4.63 14.663-11.723 17.534L537.611 958.647a18.51 18.51 0 0 1-17.434-1.905c-5.135-3.524-8.2-9.396-8.177-15.667v-62.594H217.067c-10.31 0-18.667-8.441-18.667-18.854V716.339c0-10.413 8.357-18.854 18.667-18.854h52.266c10.31 0 18.667 8.441 18.667 18.854v71.644h224V257.779c-0.014-7.717 4.63-14.664 11.723-17.534l176.288-71.192c3.344-1.335 5.271-4.887 4.585-8.452-0.686-3.565-3.79-6.13-7.385-6.103H288v71.644c0 10.413-8.357 18.854-18.667 18.854h-52.266c-10.31 0-18.667-8.441-18.667-18.854V82.854C198.4 72.44 206.757 64 217.067 64h724.266zM879.94 531.813c-4.774-10.955-17.524-15.966-28.48-11.192l-207.633 90.475a50.422 50.422 0 0 0-30.28 46.224c0 2.974 0.613 5.916 1.802 8.643 4.773 10.955 17.523 15.965 28.478 11.192l207.634-90.475a50.422 50.422 0 0 0 30.28-46.224c0-2.974-0.613-5.916-1.801-8.643z m0-224c-4.774-10.955-17.524-15.966-28.48-11.192l-207.633 90.475a50.422 50.422 0 0 0-30.28 46.224c0 2.974 0.613 5.916 1.802 8.643 4.773 10.955 17.523 15.965 28.478 11.192l207.634-90.475a50.422 50.422 0 0 0 30.28-46.224c0-2.974-0.613-5.916-1.801-8.643z" fill="#2075CC" p-id="25079"></path><path d="M247.661 640.8c56.475 0 96.339-32.77 96.339-88.837v-20.926c0-22.11-9.966-44.22-33.22-58.434h-0.475c17.56-15.004 28.475-37.114 28.475-58.435v-27.243c0-48.96-38.916-82.125-96.34-82.125H64v336h183.661z m-18.034-196.23h-95.864v-78.571h95.864c21.356 0 39.39 16.977 39.39 36.719v5.133c0 20.136-18.034 36.719-39.39 36.719z m4.746 134.242h-100.61v-77.387h100.61c21.83 0 39.864 16.583 39.864 36.72v3.553c0 20.53-18.034 37.114-39.864 37.114z" fill="#FA8B14" p-id="25080"></path></svg>