<?xml version="1.0" standalone="no"?><!DOCTYPE svg PUBLIC "-//W3C//DTD SVG 1.1//EN" "http://www.w3.org/Graphics/SVG/1.1/DTD/svg11.dtd"><svg t="1715585392416" class="icon" viewBox="0 0 1024 1024" version="1.1" xmlns="http://www.w3.org/2000/svg" p-id="1599" xmlns:xlink="http://www.w3.org/1999/xlink" width="200" height="200"><path d="M723.097 92H131.6C97.8 92 64 120.188 64 159.651v704.698C64 898.174 92.167 932 131.6 932h506.997c-22.533-22.55-39.433-45.1-50.7-73.289-11.266-28.188-16.9-56.375-16.9-90.2 0-33.826 5.634-62.014 16.9-90.202 11.267-33.826 28.167-62.014 45.067-78.926 22.533-22.55 45.066-39.464 73.233-50.739 28.166-11.275 56.333-16.912 84.5-16.912V159.65c0-39.463-28.167-67.651-67.6-67.651zM227.366 261.128h168.999c16.9 0 33.8 16.912 33.8 33.825 0 16.913-16.9 33.826-33.8 33.826h-169c-16.9 0-33.799-16.913-33.799-33.826s16.9-33.825 33.8-33.825z m236.599 456.644h-236.6c-16.9 0-33.799-16.913-33.799-33.826 0-16.912 16.9-33.825 33.8-33.825h236.599c16.9 0 33.8 16.913 33.8 33.825 0 16.913-16.9 33.826-33.8 33.826zM627.33 520.456H227.366c-16.9 0-33.8-11.275-33.8-33.825 0-16.913 16.9-33.826 33.8-33.826H627.33c16.9 0 33.8 16.913 33.8 33.826 0 22.55-11.267 33.825-33.8 33.825z" fill="#2075CC" p-id="1600"></path><path d="M796.33 593.745c-90.133 0-163.366 73.289-163.366 163.49 0 90.201 73.233 163.49 163.366 163.49 90.133 0 163.366-73.289 163.366-163.49 5.633-90.201-67.6-163.49-163.366-163.49z m107.033 146.577L790.696 847.436c-5.633 5.638-11.266 5.638-16.9 5.638-5.633 0-11.266 0-16.9-5.638l-61.966-62.013c-11.266-11.275-11.266-28.188 0-33.826 11.267-11.275 28.167-11.275 33.8 0l45.067 45.101 95.766-90.201c11.266-11.276 28.166-11.276 33.8 0 11.266 5.637 11.266 22.55 0 33.825z" fill="#FA8B14" p-id="1601"></path></svg>