<?xml version="1.0" standalone="no"?><!DOCTYPE svg PUBLIC "-//W3C//DTD SVG 1.1//EN" "http://www.w3.org/Graphics/SVG/1.1/DTD/svg11.dtd"><svg t="1634194194524" class="icon" viewBox="0 0 1024 1024" version="1.1" xmlns="http://www.w3.org/2000/svg" p-id="6034" xmlns:xlink="http://www.w3.org/1999/xlink" width="200" height="200"><defs><style type="text/css"></style></defs><path d="M913.28 231.296L549.28 14.208a72.544 72.544 0 0 0-74.56-0.032L110.72 231.296a73.024 73.024 0 0 0-35.488 62.432v436.544a73.056 73.056 0 0 0 35.488 62.464l364.032 217.12a72.704 72.704 0 0 0 74.496 0l364.032-217.12a73.024 73.024 0 0 0 35.488-62.464V293.728a73.056 73.056 0 0 0-35.488-62.432zM507.52 69.12a8.736 8.736 0 0 1 8.96 0l343.36 204.8-143.04 82.592-344.096-206.944z m1.92 407.104L161.696 275.424l148.672-88.672 343.104 206.336zM143.52 737.76a8.768 8.768 0 0 1-4.256-7.488V336.384l340.48 196.576v405.344z m737.024 0L543.68 938.624V530.368L884.8 333.44v396.832a8.736 8.736 0 0 1-4.256 7.488z"   p-id="6035"></path><path d="M767.072 483.04l-95.744 55.296a32 32 0 0 0 32 55.424l95.744-55.296a32 32 0 1 0-32-55.424z"   p-id="6036"></path></svg>
