<?xml version="1.0" standalone="no"?><!DOCTYPE svg PUBLIC "-//W3C//DTD SVG 1.1//EN" "http://www.w3.org/Graphics/SVG/1.1/DTD/svg11.dtd"><svg t="1756552369819" class="icon" viewBox="0 0 1024 1024" version="1.1" xmlns="http://www.w3.org/2000/svg" p-id="4553" id="mx_n_1756552369820" xmlns:xlink="http://www.w3.org/1999/xlink" width="200" height="200"><path d="M444.16 889.498H166.83c-41.533 0-60.058-18.525-60.058-60.058V122.388c0-41.533 18.525-60.057 60.058-60.057h571.3c41.533 0 60.058 18.524 60.058 60.057V485.12l-48.44-25.6V122.388c0-5.79-0.39-9.103-0.733-10.89-1.787-0.338-5.1-0.732-10.89-0.732H166.83c-5.79 0-9.103 0.39-10.89 0.732-0.338 1.792-0.732 5.1-0.732 10.89V829.44c0 5.79 0.389 9.103 0.732 10.89 1.792 0.338 5.1 0.732 10.89 0.732h277.33v48.436z"  p-id="4554"></path><path d="M664.622 211.23H239.386c-10.297 0-18.658 10.405-18.658 20.7s8.361 20.701 18.658 20.701h425.262c10.301 0 18.657-10.404 18.657-20.7s-8.387-20.7-18.683-20.7z m18.657 154.42c0-10.296-8.36-20.7-18.662-20.7H239.386c-10.297 0-18.658 10.409-18.658 20.7 0 10.301 8.361 20.705 18.658 20.705h425.262c10.27 0 18.631-10.404 18.631-20.705zM239.36 478.664c-10.301 0-18.657 10.404-18.657 20.705 0 10.301 8.356 20.7 18.657 20.7h272.906c10.307 0 18.658-10.404 18.658-20.7 0-10.301-8.351-20.705-18.658-20.705H239.36z m213.796 133.714H239.36c-10.301 0-18.657 10.403-18.657 20.7 0 10.301 8.356 20.71 18.657 20.71h213.796c10.301 0 18.657-10.409 18.657-20.71 0-10.291-8.35-20.7-18.657-20.7zM870.385 804.89h-47.77L729.4 674.452c38.36-13.511 66.069-49.725 66.069-92.646 0-54.38-44.201-98.611-98.586-98.611s-98.596 44.232-98.596 98.611c0 42.921 27.74 79.135 66.08 92.646L571.125 804.89h-47.74c-24.007 0-43.534 19.522-43.534 43.535v70.123c0 24.008 19.527 43.546 43.535 43.546h346.962c24.007 0 43.54-19.533 43.54-43.546v-70.123c0.031-24.008-19.497-43.535-43.504-43.535z"  p-id="4555"></path><path d="M870.385 804.89h-47.77L729.4 674.452c38.36-13.511 66.069-49.725 66.069-92.646 0-54.38-44.201-98.611-98.586-98.611s-98.596 44.232-98.596 98.611c0 42.921 27.74 79.135 66.08 92.646L571.125 804.89h-47.74c-24.007 0-43.534 19.522-43.534 43.535v70.123c0 24.008 19.527 43.546 43.535 43.546h346.962c24.007 0 43.54-19.533 43.54-43.546v-70.123c0.031-24.008-19.497-43.535-43.504-43.535zM635.617 581.81c0-33.782 27.464-61.302 61.276-61.302 33.808 0 61.271 27.495 61.271 61.302 0 33.593-27.171 60.903-60.697 61.23h-1.152c-33.516-0.333-60.698-27.622-60.698-61.23zM691.164 701.2l10.972-0.696L776.74 804.89H617.032l74.132-103.69z m185.467 217.38h-0.03c0 3.385-2.837 6.221-6.216 6.221H523.407c-3.379 0-6.22-2.836-6.22-6.22v-70.13c0-3.379 2.841-6.22 6.22-6.22h346.998c3.38 0 6.22 2.841 6.22 6.22v70.13z"  p-id="4556"></path></svg>
