<?xml version="1.0" standalone="no"?><!DOCTYPE svg PUBLIC "-//W3C//DTD SVG 1.1//EN" "http://www.w3.org/Graphics/SVG/1.1/DTD/svg11.dtd"><svg t="1756948713765" class="icon" viewBox="0 0 1024 1024" version="1.1" xmlns="http://www.w3.org/2000/svg" p-id="13518" xmlns:xlink="http://www.w3.org/1999/xlink" width="200" height="200"><path d="M867.712 929.216l-49.504-242.752a24 24 0 0 0-15.168-17.696l-154.944-57.504c-0.64-0.224-1.312-0.32-1.984-0.48v-36.608c6.464-6.816 11.712-13.344 14.624-19.04 11.808-22.944 17.504-71.968 20.288-115.136a56.512 56.512 0 0 0 33.216-79.104c8.768-26.176 16.48-58.496 14.304-87.936 0 0-5.504-46.688-30.496-73.76 0 0 17.568-9.472-1.344-25.728 0 0-16.896-4.064-20.352-2.72 0 0-8.736-29.792-26.336-37.216 0 0-14.944-3.616-18.304 10.848 0 0-39.584-20.096-68.192-25.152 0 0-72.992-14.08-92.608-48.032 0 0-4.224-8.608-18.048-3.552 0 0-13.216 10.496-9.152 52.48 0 0 1.088 8.608-55.296-27.52 0 0-13.984-3.616-18.048 7.2 0 0-7.2 25.728 1.792 44.64 0 0-32.448 5.856-46.464 19.872 0 0-15.808 20.352 10.816 23.456 0 0-39.648 22.496-46.432 86.144 0 0-0.768 44.672 13.504 94.176a56.544 56.544 0 0 0 39.488 74.752c2.848 42.464 8.576 89.888 20.128 112.32 2.752 5.344 7.488 11.392 13.408 17.728v38.24c-0.256 0.096-0.512 0.128-0.768 0.16L220.896 668.8a24 24 0 0 0-15.168 17.696l-49.504 242.752a23.936 23.936 0 0 0 23.456 28.768h664.448a24 24 0 0 0 23.488-28.768z m-175.648-516.256s9.056-16.8 18.24-41.152a48.864 48.864 0 0 1-28.768 59.648l0.352-5.984c3.808-1.76 7.392-5.504 10.176-12.512z m-306.336-84.096s26.176 7.264 59.584-11.264c0 0-14.016 17.12-26.688 26.176 0 0-7.2 17.6 9.024 19.392 0 0 49.984 9.472 100.128-23.456 0 0-2.72 16.672 21.184 11.744 0 0 19.392-0.448 50.528-24.384 0 0 6.784 11.264 32.192-2.752 0 0-0.64 22.304 19.616 56.864 0 0 4.96 8.096 7.456 22.784-1.856 49.344-7.072 116.352-19.328 140.192-3.616 7.072-13.856 17.472-26.464 28.576h-0.096v0.064a669.76 669.76 0 0 1-52.608 41.056h-96.544c-27.456-19.296-70.784-53.376-79.168-69.696-16.384-31.712-20.128-139.936-20.224-181.088a97.6 97.6 0 0 1 21.44-34.176z m-77.728 64.16a46.08 46.08 0 0 1 0.096-10.912c3.616 10.4 7.872 20.832 13.12 31.008 0 0 9.984 9.952 20.608 7.04 0.192 4.672 0.448 9.472 0.768 14.336a48.8 48.8 0 0 1-34.592-41.472zM512 910.048H209.12l40.96-201.024 104.832-38.912 58.144 32.032-38.4 48.064 141.824 133.376-99.488-274.784c17.312 13.664 32.736 24.448 36.192 26.816a12.032 12.032 0 0 0 6.784 2.08h104.064a12.224 12.224 0 0 0 6.816-2.08c3.584-2.496 20.192-14.112 38.432-28.64l-92.8 276.576 141.824-133.376-38.4-48.064 54.528-30.016 99.456 36.896 40.992 201.024H512z"  p-id="13519"></path></svg>
