<?xml version="1.0" standalone="no"?><!DOCTYPE svg PUBLIC "-//W3C//DTD SVG 1.1//EN" "http://www.w3.org/Graphics/SVG/1.1/DTD/svg11.dtd"><svg t="1586418093598" class="icon" viewBox="0 0 1024 1024" version="1.1" xmlns="http://www.w3.org/2000/svg" p-id="3428" xmlns:xlink="http://www.w3.org/1999/xlink" width="200" height="200"><defs><style type="text/css"></style></defs><path d="M904.533333 0H153.6a34.133333 34.133333 0 0 0-34.133333 34.133333V273.066667a34.133333 34.133333 0 0 0 68.266666 0V68.266667h682.666667v887.466666h-682.666667v-204.8a34.133333 34.133333 0 0 0-68.266666 0v238.933334a34.133333 34.133333 0 0 0 34.133333 34.133333h750.933333a34.133333 34.133333 0 0 0 34.133334-34.133333V34.133333A34.133333 34.133333 0 0 0 904.533333 0z" p-id="3429"></path><path d="M119.466667 409.6h68.266666a34.133333 34.133333 0 0 0 0-68.266667h-68.266666a34.133333 34.133333 0 0 0 0 68.266667zM119.466667 546.133333h68.266666a34.133333 34.133333 0 0 0 0-68.266666h-68.266666a34.133333 34.133333 0 0 0 0 68.266666zM187.733333 682.666667a34.133333 34.133333 0 0 0 0-68.266667h-68.266666a34.133333 34.133333 0 0 0 0 68.266667zM290.133333 699.733333a34.133333 34.133333 0 0 0 68.266667 0 179.541333 179.541333 0 0 1 358.4 0 34.133333 34.133333 0 0 0 68.266667 0A247.125333 247.125333 0 0 0 645.12 477.866667a157.696 157.696 0 1 0-215.04 0A247.125333 247.125333 0 0 0 290.133333 699.733333z m157.696-337.237333a89.429333 89.429333 0 1 1 90.112 90.112 89.429333 89.429333 0 0 1-90.112-90.112z" p-id="3430"></path></svg>
