<svg width="1024" height="1024" xmlns="http://www.w3.org/2000/svg" p-id="10884" version="1.1" class="icon" t="1715665220476">
 <g>
  <title>Layer 1</title>
  <path id="svg_1" p-id="10885" fill="#e53b1d" d="m888.38953,0l-891.31882,0l1028.44441,1028.44441l0,-891.31882c0,-75.41892 -61.70666,-137.12559 -137.12559,-137.12559z" stroke="null"/>
  <path d="m506.54541,275.27792c9.091,9.09097 21.35352,29.53528 50.90942,60.0004c30.43756,31.3739 57.19586,62.75723 74.54596,80.00052c15.52911,15.43353 34.54565,29.09109 40.00024,32.72748l1.81824,1.81821l1.81818,1.81818l1.81818,0" id="svg_2" fill="none"/>
  <path id="svg_3" d="m804.32877,249.157l0.56913,0l0.17587,-0.54067l0.17587,0.54067l0.56913,0l-0.46044,0.33415l0.17588,0.54067l-0.46044,-0.33416l-0.46044,0.33416l0.17588,-0.54067l-0.46044,-0.33415z" fill="#2061E3"/>
  <text transform="rotate(45 666.395 325.261) matrix(1.58829 0 0 1.79951 -277.222 -79.7757)" stroke="null" xml:space="preserve" text-anchor="start" font-family="'STIX Two Text'" font-size="150" id="svg_5" y="270.64678" x="369.11194" fill="#ffffff">供应商</text>
 </g>

</svg>