<?xml version="1.0" standalone="no"?><!DOCTYPE svg PUBLIC "-//W3C//DTD SVG 1.1//EN" "http://www.w3.org/Graphics/SVG/1.1/DTD/svg11.dtd"><svg t="1756552767579" class="icon" viewBox="0 0 1024 1024" version="1.1" xmlns="http://www.w3.org/2000/svg" p-id="8059" xmlns:xlink="http://www.w3.org/1999/xlink" width="200" height="200"><path d="M128 64C128 149.333331 128 234.666669 128 320 213.333331 320 298.666669 320 384 320 384 234.666669 384 149.333331 384 64 298.666669 64 213.333331 64 128 64ZM448 64C448 85.333331 448 106.666669 448 128 618.666669 128 789.333312 128 960 128 960 106.666669 960 85.333331 960 64 789.333312 64 618.666669 64 448 64ZM164.624998 100.624998c60.916666 0 121.833338 0 182.750003 0 0 60.916666 0 121.833338 0 182.750003-60.916666 0-121.833338 0-182.750003 0 0-60.916666 0-121.833338 0-182.750003zm156 26.750003C294.791667 153.250003 268.95833 179.124998 243.124998 205 225.875002 187.749997 208.624998 170.5 191.375002 153.249997 185.5808 164.139546 156.89783 175.001389 172.416736 185.916742 195.986157 209.486163 219.555571 233.055584 243.124998 256.624998 277.583341 222.166669 312.041664 187.708333 346.5 153.249997 337.875002 144.624998 329.249997 136 320.624998 127.375002ZM448 192C448 213.333331 448 234.666669 448 256 533.333331 256 618.666669 256 704 256 704 234.666669 704 213.333331 704 192 618.666669 192 533.333331 192 448 192ZM128 384c0 85.333331 0 170.666669 0 256 85.333331 0 170.666669 0 256 0C384 554.666669 384 469.333331 384 384 298.666669 384 213.333331 384 128 384ZM448 384C448 405.333331 448 426.666669 448 448 618.666669 448 789.333312 448 960 448 960 426.666669 960 405.333331 960 384 789.333312 384 618.666669 384 448 384ZM164.624998 420.624998c60.916666 0 121.833338 0 182.750003 0 0 60.916666 0 121.833338 0 182.750003-60.916666 0-121.833338 0-182.750003 0 0-60.916666 0-121.833338 0-182.750003zm156 26.750003C294.791667 473.250003 268.95833 499.124998 243.124998 525 225.875002 507.749997 208.624998 490.5 191.375002 473.249997 185.5808 484.139546 156.89783 495.001389 172.416736 505.916742 195.986157 529.486163 219.555571 553.055584 243.124998 576.624998 277.583341 542.166669 312.041664 507.708333 346.5 473.249997 337.875002 464.624998 329.249997 456 320.624998 447.375002ZM448 504.375002C448 528.250003 448 552.124998 448 576c95.583341 0 191.166675 0 286.750016 0 0-23.875002 0-47.749997 0-71.624998-95.583341 0-191.166675 0-286.750016 0zM128 704c0 85.333312 0 170.666688 0 256 85.333331 0 170.666669 0 256 0 0-85.333312 0-170.666688 0-256-85.333331 0-170.666669 0-256 0zm320 0c0 21.333312 0 42.666688 0 64 170.666669 0 341.333312 0 512 0 0-21.333312 0-42.666688 0-64-170.666688 0-341.333331 0-512 0zm-283.375002 36.625024c60.916666 0 121.833338 0 182.750003 0 0 60.916672 0 121.83328 0 182.749952-60.916666 0-121.833338 0-182.750003 0 0-60.916672 0-121.83328 0-182.749952zM448 832c0 21.333312 0 42.666688 0 64 85.333331 0 170.666669 0 256 0 0-21.333312 0-42.666688 0-64-85.333331 0-170.666669 0-256 0z"  p-id="8060"></path></svg>
