<?xml version="1.0" standalone="no"?><!DOCTYPE svg PUBLIC "-//W3C//DTD SVG 1.1//EN" "http://www.w3.org/Graphics/SVG/1.1/DTD/svg11.dtd"><svg t="1747963532167" class="icon" viewBox="0 0 1024 1024" version="1.1" xmlns="http://www.w3.org/2000/svg" p-id="2588" xmlns:xlink="http://www.w3.org/1999/xlink" width="200" height="200"><path d="M832.511781 1021.143952 196.080817 1021.143952c-34.397415 0-63.641459-29.244045-63.641459-63.648622l0-748.364289c0-34.398438 29.244045-63.641459 63.641459-63.641459L323.365782 145.489582 323.365782 66.497507c0-17.200754 46.445822-63.641459 63.646576-63.641459l254.568906 0c17.201777 0 63.641459 46.440705 63.641459 63.641459l0 78.992075L832.511781 145.489582c34.398438 0 63.641459 13.893428 63.641459 48.291866l0 763.713882C896.15324 991.899908 866.911242 1021.143952 832.511781 1021.143952L832.511781 1021.143952 832.511781 1021.143952zM658.488329 45.834908 370.105293 45.834908l0 239.45365L658.488329 285.288558 658.488329 53.558823l0 0L658.488329 45.834908zM828.713268 188.29448l-128.651079-0.041956 0 77.775364c0 17.201777-44.718481 61.925375-61.920258 61.925375l-247.691265 0c-17.201777 0-61.920258-44.723597-61.920258-61.925375l0-77.269851-127.104863 0c0 0-11.395538 0.327458-15.160281 4.093225-3.324722 3.324722-6.139837 14.715143-6.139837 14.715143l0 739.850381c0 0 2.721994 21.412682 5.805216 24.496927 4.358261 4.358261 23.425525 6.251378 23.425525 6.251378l609.634668 0c0 0 19.653619-2.571568 24.388457-7.894807 3.01159-3.38612 6.440689-20.466124 6.440689-20.466124L849.819982 214.217896C849.821005 214.217896 851.737658 188.29448 828.713268 188.29448"  p-id="2589"></path><path d="M344.009961 499.960803c-36.124755 25.799596-49.883107 41.691541-15.479553 65.775053 32.676214 22.36231 126.173654 66.75538 126.173654 66.75538s11.43033-5.160533 1.110287-41.280172l-10.320043-30.590715 137.602961 0c0 0 83.129302-3.082198 83.129302 82.104973 0 39.564088-20.00359 92.338035-83.129302 92.338035L378.409422 735.063355l0 45.266973 204.688869 0c0 0 139.326209 1.721201 137.610124-137.605008 0 0 5.160533-137.602961-137.610124-137.602961L445.49533 505.122359c0 0 6.876618-20.646226 10.320043-37.841863 5.158487-17.201777 12.042267-46.445822-10.320043-30.965246C423.13302 451.792757 380.130623 474.15609 344.009961 499.960803L344.009961 499.960803 344.009961 499.960803zM344.009961 499.960803"  p-id="2590"></path><path d="M828.715315 978.165092"  p-id="2591"></path></svg>
