<?xml version="1.0" standalone="no"?><!DOCTYPE svg PUBLIC "-//W3C//DTD SVG 1.1//EN" "http://www.w3.org/Graphics/SVG/1.1/DTD/svg11.dtd"><svg t="1747963498687" class="icon" viewBox="0 0 1024 1024" version="1.1" xmlns="http://www.w3.org/2000/svg" p-id="1504" xmlns:xlink="http://www.w3.org/1999/xlink" width="200" height="200"><path d="M564.7 907.3H90.4c-14.6 0-26.4-11.8-26.4-26.4V90.4C64 75.8 75.8 64 90.4 64H881c14.6 0 26.4 11.8 26.4 26.4v474.4c0 14.6-11.8 26.4-26.4 26.4s-26.4-11.8-26.4-26.4v-448H116.7v737.9h448c14.6 0 26.4 11.8 26.4 26.4s-11.8 26.2-26.4 26.2z"  p-id="1505"></path><path d="M356.9 415.3v220.3l6.4 6.4c13.3 15.1 26.7 26.7 40 34.2 8.4 4.4 19.1 7.7 31.9 10.1-1.5 12-2.3 24.2-2.3 36.5 0 6.1 0.2 12.2 0.6 18.2-8.3-1.3-16-2.8-23.2-4.5-23.2-7-43.5-20.3-60.9-40-8.1-9.9-15.1-14.5-21.5-14.5-11.1 0-29.6 23.3-56.6 71l-3.7 6.7-44.6-41.2c27.3-43.7 51.5-72.4 73.6-86.3l4.1-2.4V470.9h-76.5v-55.7h132.7zM710 238.5v194.8c-45.3 2-87.9 14.3-125.5 34.8H479.3v97.5c-18.4 28.5-32 60.4-39.5 94.5l-26.6 4.5-13.3-51c12.5-4.7 19.4-11.7 20.7-20.7l0.2-3.1V238.5H710z m-193.6 280l34.2-41.2 9.7 5.5c-15.7 10.6-30.2 22.6-43.4 36l-0.5-0.3z m134.5-140.3H479.3v36.5h171.6v-36.5z m-374-153.1c34 26.8 63.4 53.6 88.3 80.4l9.1 10-43.5 42.9c-20.3-26.8-49.1-55.5-86.2-86.2l-9.5-7.7 41.8-39.4z m374 66.7H479.3v36.5h171.6v-36.5zM722.8 960C592 960 485.6 853.6 485.6 722.8S592 485.6 722.8 485.6 960 592 960 722.8 853.6 960 722.8 960z m0-421.6c-101.7 0-184.5 82.8-184.5 184.5s82.8 184.5 184.5 184.5 184.5-82.8 184.5-184.5-82.8-184.5-184.5-184.5z"  p-id="1506"></path><path d="M722.8 696.5c-6.7 0-13.5-2.6-18.6-7.7L651.5 636c-10.3-10.3-10.3-27 0-37.3s27-10.3 37.3 0l34.1 34.1 34.1-34.1c10.3-10.3 27-10.3 37.3 0 10.3 10.3 10.3 27 0 37.3l-52.7 52.7c-5.3 5.2-12 7.8-18.8 7.8z"  p-id="1507"></path><path d="M801.9 722.8H643.8c-14.6 0-26.4-11.8-26.4-26.4s11.8-26.4 26.4-26.4h158.1c14.6 0 26.4 11.8 26.4 26.4s-11.9 26.4-26.4 26.4zM801.9 801.9H643.8c-14.6 0-26.4-11.8-26.4-26.4s11.8-26.4 26.4-26.4h158.1c14.6 0 26.4 11.8 26.4 26.4s-11.9 26.4-26.4 26.4z"  p-id="1508"></path><path d="M722.8 854.6c-14.6 0-26.4-11.8-26.4-26.4V696.5c0-14.6 11.8-26.4 26.4-26.4 14.6 0 26.4 11.8 26.4 26.4v131.8c0 14.5-11.8 26.3-26.4 26.3z"  p-id="1509"></path></svg>
