<?xml version="1.0" standalone="no"?><!DOCTYPE svg PUBLIC "-//W3C//DTD SVG 1.1//EN" "http://www.w3.org/Graphics/SVG/1.1/DTD/svg11.dtd"><svg t="1586419012875" class="icon" viewBox="0 0 1024 1024" version="1.1" xmlns="http://www.w3.org/2000/svg" p-id="11363" xmlns:xlink="http://www.w3.org/1999/xlink" width="200" height="200"><defs><style type="text/css"></style></defs><path d="M796.444444 1024H227.555556a113.777778 113.777778 0 0 1-113.777778-113.777778V113.777778a113.777778 113.777778 0 0 1 113.777778-113.777778h568.888888a113.777778 113.777778 0 0 1 113.777778 113.777778v796.444444a113.777778 113.777778 0 0 1-113.777778 113.777778zM682.666667 227.555556H341.333333a56.888889 56.888889 0 0 0 0 113.777777h113.777778v341.333334a56.888889 56.888889 0 0 0 113.777778 0V341.333333h113.777778a56.888889 56.888889 0 0 0 0-113.777777z" fill="#0078D7" p-id="11364"></path></svg>