<?xml version="1.0" standalone="no"?><!DOCTYPE svg PUBLIC "-//W3C//DTD SVG 1.1//EN" "http://www.w3.org/Graphics/SVG/1.1/DTD/svg11.dtd"><svg t="1679479130395" class="icon" viewBox="0 0 1024 1024" version="1.1" xmlns="http://www.w3.org/2000/svg" p-id="2970" xmlns:xlink="http://www.w3.org/1999/xlink" width="200" height="200"><path d="M640 736H0V96h640zM64 672h512V160H64zM1024 736H704v-64h256v-216.32L876.16 288H768v192h128v64h-192V224h211.84L1024 440.32V736z" fill="#e6e6e6" p-id="2971"></path><path d="M128 480h384v64H128zM864 928a128 128 0 0 1-128-128h64a64 64 0 0 0 128 0h64a128 128 0 0 1-128 128zM256 928a128 128 0 0 1-128-128h64a64 64 0 0 0 128 0h64a128 128 0 0 1-128 128z" fill="#e6e6e6" p-id="2972"></path></svg>