<?xml version="1.0" standalone="no"?><!DOCTYPE svg PUBLIC "-//W3C//DTD SVG 1.1//EN" "http://www.w3.org/Graphics/SVG/1.1/DTD/svg11.dtd"><svg t="1634262625782" class="icon" viewBox="0 0 1024 1024" version="1.1" xmlns="http://www.w3.org/2000/svg" p-id="15329" xmlns:xlink="http://www.w3.org/1999/xlink" width="200" height="200"><defs><style type="text/css"></style></defs><path d="M937.803497 959.543487c-20.034893-90.370155-179.887762-90.370155-200.348929 0H639.411475c-42.627432 0-46.037626-8.525486-46.037626-42.627432v-230.188131c0-95.059173-13.214504-85.254863 88.238783-85.254863h294.555553c42.627432 0 46.037626 6.394115 46.037626 40.49606v231.466954a332.067693 332.067693 0 0 1-2.557645 75.450554c-5.541566 9.804309-16.198424 12.78823-33.675672 12.788229zM283.046146 901.996454c0 42.627432-8.099212 65.21997 56.694484 58.825856a263.011253 263.011253 0 0 1 12.361956-27.707831c42.627432-59.678404 164.968161-56.694484 187.986973 27.707831a26.429008 26.429008 0 0 0 27.281557-29.839202V724.666338c0-17.050973-4.262743-29.839202-24.297637-31.970573H411.354716a51.579192 51.579192 0 0 0-42.627432 20.461167l-12.78823 11.509406a439.062546 439.062546 0 0 0-66.072519 76.729377 286.456341 286.456341 0 0 0-6.820389 100.600739z m46.037626-77.581926c0-11.935681 42.627432-50.300369 51.152918-63.088598s19.182344-25.576459 34.101946-26.429008a576.74915 576.74915 0 0 1 66.498793 0v89.517606c-39.643511 0.852549-109.978774 0-151.753657 0z" p-id="15330"  ></path><path d="M852.548633 920.32625c31.118025 6.394115 59.678404 29.839202 49.021547 62.662324a66.498793 66.498793 0 0 1-78.860749 38.364689 53.710564 53.710564 0 0 1-49.874095-61.809776 68.630165 68.630165 0 0 1 79.713297-39.217237zM442.899015 919.047427c34.954494 3.410195 63.514873 24.72391 60.957227 55.415661A62.662325 62.662325 0 0 1 431.815883 1023.05836a57.973307 57.973307 0 0 1-59.678405-56.26821 65.21997 65.21997 0 0 1 70.761537-47.742723zM993.645432 225.072839l-47.742723-22.592539-16.624699-8.525486-34.101945-14.919601c-58.399581-25.576459-133.850135-63.941148-192.675991-87.386235L525.169958 11.935681c-32.396848-14.919601-24.297636-14.919601-49.021546-4.262743L315.869269 85.254863c-11.083132 5.115292-21.313716 9.378035-32.396848 14.919601L28.986654 221.662645c-6.820389 4.262743-28.986654 10.656858-28.986654 19.182344V1023.05836h185.003053V383.646885h651.347156v127.882295H1023.05836V242.976361c0-9.378035-20.461167-14.919601-29.412928-17.903522z m-284.751243 20.034893a7.672938 7.672938 0 0 1-8.099212 6.820389h-260.453608a7.672938 7.672938 0 0 0-7.672938 7.246664v62.662324a8.099212 8.099212 0 0 1-12.788229 5.541566L301.802216 236.582246a6.820389 6.820389 0 0 1 0-11.083132l118.077986-91.222704a8.099212 8.099212 0 0 1 12.788229 5.541566v62.662324a7.672938 7.672938 0 0 0 7.672938 7.246664h260.453608a7.672938 7.672938 0 0 1 8.099212 7.246663z" p-id="15331"  ></path></svg>
