<?xml version="1.0" standalone="no"?><!DOCTYPE svg PUBLIC "-//W3C//DTD SVG 1.1//EN" "http://www.w3.org/Graphics/SVG/1.1/DTD/svg11.dtd"><svg t="1703753640187" class="icon" viewBox="0 0 1024 1024" version="1.1" xmlns="http://www.w3.org/2000/svg" p-id="8445" xmlns:xlink="http://www.w3.org/1999/xlink" width="250" height="250"><path d="M504.1 312.4s-0.1 0 0 0zM504.2 312.4s-0.1 0 0 0c-0.1 0 0 0 0 0zM0 742.6h1024v45H0zM374 487.4l101-64-199-42-174 103v235h272v-232z m-194.5 143h-50v-35h50v35z m0-49h-50v-35h50v35z m0-48.5h-50v-35h50v35z" p-id="8446"></path><path d="M386 719.4h60v-124h189v124h319v-124H709v-14h245v-35H575v-43h379v-29L901 464c0.8-26.4-0.1-62.9-17-82 4.3 11.8 6.5 24.9-1.3 30.6-0.4 0.3-1 0.5-1.5 0.5-0.8 0-1.5-0.4-2-1-0.8-1.1-0.6-2.7 0.5-3.5 6.7-4.9 1.5-21.2-4.2-33.6-4.8-3-10.5-4.9-17.3-5.5 0 0.7-0.4 1.5-1.1 1.9-21.1 14.2-21.5 36.2-21.5 36.4 0 1.4-1.1 2.5-2.5 2.5s-2.5-1.1-2.5-2.5c0-1 0.3-22.7 20.7-38.4-30.7 2.1-48.2 38.6-50 75.3l-16.5-3.2V291.4l-13-55h-17l-7 55v142.8l-10-1.9V291.4l-7-55h-23l-8 56v132.5l-141-27.5L386 497.9v221.5z" p-id="8447"></path></svg>