<?xml version="1.0" standalone="no"?><!DOCTYPE svg PUBLIC "-//W3C//DTD SVG 1.1//EN" "http://www.w3.org/Graphics/SVG/1.1/DTD/svg11.dtd"><svg t="1747904594940" class="icon" viewBox="0 0 1039 1024" version="1.1" xmlns="http://www.w3.org/2000/svg" p-id="3158" xmlns:xlink="http://www.w3.org/1999/xlink" width="202.9296875" height="200"><path d="M536.55784 979.424426H82.54736a82.54736 82.54736 0 0 1-82.54736-82.54736V76.356308A76.356308 76.356308 0 0 1 76.356308 0H908.020959a82.54736 82.54736 0 0 1 82.54736 82.54736v454.01048a44.575574 44.575574 0 0 1-89.151149 0V123.82104a41.27368 41.27368 0 0 0-11.969367-29.304313 41.27368 41.27368 0 0 0-28.891576-11.969367H129.186618a41.27368 41.27368 0 0 0-28.891576 11.969367 41.27368 41.27368 0 0 0-11.969367 29.304313v722.702136a41.27368 41.27368 0 0 0 11.969367 28.891576 41.27368 41.27368 0 0 0 28.891576 11.969367H536.55784a46.226522 46.226522 0 1 1 0 92.040307z" p-id="3159"></path><path d="M403.243853 770.166868H241.038291a41.27368 41.27368 0 0 1 0-82.54736h161.792825a41.27368 41.27368 0 0 1 0 82.54736zM597.642886 288.91576H247.64208a41.27368 41.27368 0 1 1 0-82.54736h351.239016a41.27368 41.27368 0 0 1 29.304313 70.165256 41.27368 41.27368 0 0 1-28.891576 11.969367zM597.642886 529.541314H247.64208a41.27368 41.27368 0 1 1 0-82.54736h351.239016a41.27368 41.27368 0 0 1 41.27368 41.27368 41.27368 41.27368 0 0 1-11.969367 28.891576 41.27368 41.27368 0 0 1-28.891576 11.969367zM997.584845 765.626763h-134.552197v-134.964933a41.27368 41.27368 0 0 0-82.54736 0v134.964933h-134.552197a41.27368 41.27368 0 0 0 0 82.54736h134.964934v134.964934a41.27368 41.27368 0 0 0 11.969367 28.891576 41.27368 41.27368 0 0 0 28.891576 11.969367 41.27368 41.27368 0 0 0 41.27368-41.27368v-134.964933h134.964934a41.27368 41.27368 0 0 0 28.891576-11.969368 41.27368 41.27368 0 0 0-29.304313-70.165256z" p-id="3160"></path></svg>