<?xml version="1.0" encoding="utf-8"?>
<!-- Generator: Adobe Illustrator 22.0.0, SVG Export Plug-In . SVG Version: 6.00 Build 0)  -->
<svg version="1.1" id="icon" xmlns="http://www.w3.org/2000/svg" xmlns:xlink="http://www.w3.org/1999/xlink" x="0px" y="0px"
	 viewBox="0 0 38.7 53.4" style="enable-background:new 0 0 38.7 53.4;" xml:space="preserve">
<style type="text/css">
	.st0{fill:#F98526;}
	.st1{fill:#D1620F;}
	.st2{fill:#FFB980;}
	.st3{fill:#FFFFFF;}
	.st4{fill:#518EF8;}
	.st5{fill:#3A5BBC;}
	.st6{fill:#ACD1FC;}
	.st7{fill:#FC7251;}
	.st8{fill:#CE3D32;}
	.st9{fill:#FFA492;}
	.st10{fill:#37C3A4;}
	.st11{fill:#198E6F;}
	.st12{fill:#BDEBD7;}
	.st13{fill:#379AF4;}
	.st14{fill:#1F73B2;}
	.st15{fill:#97D3FF;}
	.st16{fill:#999999;}
	.st17{fill:#FF777E;}
	.st18{fill:#DC4436;}
	.st19{fill:#A51919;}
	.st20{fill:#EF8686;}
</style>
<g>
	<path class="st0" d="M38.7,115.1v35.3c0,1.9-1.5,3.4-3.4,3.4H3.4c-1.9,0-3.4-1.5-3.4-3.4v-46.5c0-1.9,1.5-3.4,3.4-3.4H24
		L38.7,115.1z"/>
	<polygon class="st1" points="26,114.8 38.7,120 38.7,115.1 31.5,113 	"/>
	<path class="st2" d="M38.7,115.1H27.5c-1.9,0-3.4-1.5-3.4-3.4v-11.2L38.7,115.1z"/>
	<path class="st3" d="M17.1,143c0,0-0.1,0-0.1,0c-0.3-0.1-0.5-0.5-0.4-0.8l4.2-15.7c0.1-0.3,0.4-0.5,0.7-0.5c0,0,0.1,0,0.1,0
		c0.2,0,0.3,0.1,0.4,0.3c0.1,0.1,0.1,0.3,0,0.5l-4.2,15.8C17.7,142.9,17.4,143,17.1,143L17.1,143z M25.1,141c-0.2,0-0.3-0.1-0.4-0.2
		c-0.3-0.3-0.3-0.6,0-0.9l5.3-5.3l-5.3-5.3c-0.3-0.3-0.3-0.6,0-0.9c0.1-0.1,0.3-0.2,0.4-0.2s0.3,0.1,0.4,0.2l5.8,5.8
		c0.1,0.1,0.2,0.3,0.2,0.4c0,0.1-0.1,0.3-0.2,0.4l-5.8,5.8C25.4,140.9,25.2,141,25.1,141z M13.6,141c-0.2,0-0.3-0.1-0.4-0.2L7.3,135
		c-0.1-0.1-0.2-0.3-0.2-0.4c0-0.2,0.1-0.3,0.2-0.4l5.8-5.8c0.1-0.1,0.3-0.2,0.4-0.2s0.3,0.1,0.4,0.2c0.3,0.3,0.3,0.6,0,0.9l-5.3,5.3
		l5.3,5.3c0.3,0.3,0.3,0.6,0,0.9C13.9,140.9,13.7,141,13.6,141z"/>
</g>
<g>
	<path class="st4" d="M137.7,115.1v35.3c0,1.9-1.5,3.4-3.4,3.4h-31.8c-1.9,0-3.4-1.5-3.4-3.4v-46.5c0-1.9,1.5-3.4,3.4-3.4h20.6
		L137.7,115.1z"/>
	<polygon class="st5" points="125.1,114.8 137.7,120 137.7,115.1 130.5,113 	"/>
	<path class="st6" d="M137.7,115.1h-11.2c-1.9,0-3.4-1.5-3.4-3.4v-11.2L137.7,115.1z"/>
	<path class="st3" d="M108.6,143.4c-0.7,0-1.3-0.6-1.3-1.3V127c0-0.7,0.6-1.3,1.3-1.3h19.6c0.7,0,1.3,0.6,1.3,1.3v15.1
		c0,0.7-0.6,1.3-1.3,1.3H108.6z M108.3,138.5v3.8h20.1v-3.8l-4.8-4.8l-3,3l1.2,1.2c0.2,0.2,0.2,0.5,0,0.7c-0.1,0.1-0.2,0.2-0.4,0.2
		c-0.1,0-0.3-0.1-0.4-0.2l-6.4-6.4L108.3,138.5z M123.6,132.5c0.1,0,0.3,0.1,0.4,0.1l4.4,4.4v-10.3h-20.1v10.3l5.9-5.9
		c0.1-0.1,0.3-0.2,0.4-0.2c0.2,0,0.3,0.1,0.4,0.1l4.9,4.9l3.4-3.4C123.4,132.6,123.5,132.5,123.6,132.5L123.6,132.5z"/>
</g>
<g>
	<path class="st7" d="M137.7,14.6v35.3c0,1.9-1.5,3.4-3.4,3.4h-31.8c-1.9,0-3.4-1.5-3.4-3.4V3.4c0-1.9,1.5-3.4,3.4-3.4h20.6
		L137.7,14.6z"/>
	<polygon class="st8" points="125.1,14.3 137.7,19.5 137.7,14.6 130.5,12.5 	"/>
	<path class="st9" d="M137.7,14.6h-11.2c-1.9,0-3.4-1.5-3.4-3.4V0L137.7,14.6z"/>
	<g>
		<path class="st3" d="M128.1,32.2c-0.7-3.7-3.4-6.6-6.9-7.6v-1.3c4.3,1.1,7.5,4.5,8.2,8.9H128.1z"/>
		<path class="st3" d="M118.4,45.1c-6.1,0-11.1-5-11.1-11.1c0-5.9,4.7-10.8,10.6-11.1v12.5h11.5C128.7,40.9,124,45.1,118.4,45.1z
			 M116.1,24.5c-4.4,1.1-7.5,5-7.5,9.6c0,5.4,4.4,9.9,9.9,9.9c4.2,0,7.9-2.6,9.3-6.6l0.2-0.7h-11.2V24.3L116.1,24.5z"/>
	</g>
</g>
<g>
	<path class="st10" d="M236.6,14.6v35.3c0,1.9-1.5,3.4-3.4,3.4h-31.8c-1.9,0-3.4-1.5-3.4-3.4V3.4c0-1.9,1.5-3.4,3.4-3.4H222
		L236.6,14.6z"/>
	<polygon class="st11" points="224,14.3 236.6,19.5 236.6,14.6 229.5,12.5 	"/>
	<path class="st12" d="M236.6,14.6h-11.2c-1.9,0-3.4-1.5-3.4-3.4V0L236.6,14.6z"/>
	<g>
		<path class="st3" d="M226.1,43.2h-2.3l-15.2-18.3h2.3L226.1,43.2z"/>
		<path class="st3" d="M208.5,43.2h2.3l15.2-18.3h-2.3L208.5,43.2z"/>
	</g>
</g>
<g>
	<path class="st13" d="M38.7,14.6v35.3c0,1.9-1.5,3.4-3.4,3.4H3.4c-1.9,0-3.4-1.5-3.4-3.4V3.4C0,1.5,1.5,0,3.4,0H24L38.7,14.6z"/>
	<polygon class="st14" points="26,14.3 38.7,19.5 38.7,14.6 31.5,12.5 	"/>
	<path class="st15" d="M38.7,14.6H27.5c-1.9,0-3.4-1.5-3.4-3.4V0L38.7,14.6z"/>
	<path class="st3" d="M23.6,42.4L20,29.5c-0.3-1.1-0.5-1.8-0.5-2l-0.2-0.6l-0.2,0.6c-0.2,0.8-0.3,1.5-0.5,2L15,42.4H13L8.5,25.7h2
		l2.6,11.1c0.3,1.2,0.5,2.3,0.7,3.5l0.3,0c0.4-1.8,0.7-2.9,0.8-3.2l3.2-11.4h2.5l2.4,8.5c0.6,2,1,4,1.3,6l0.3,0
		c0.2-1.1,0.5-2.3,0.9-3.7l2.7-10.9h1.9l-4.6,16.8H23.6z"/>
</g>
<g>
	<circle class="st16" cx="206.9" cy="127.2" r="1.7"/>
	<circle class="st16" cx="217.3" cy="127.2" r="1.7"/>
	<circle class="st16" cx="227.7" cy="127.2" r="1.7"/>
</g>
<g>
	<g>
		<polygon class="st17" points="-121.9,-157.6 -130.1,-151.8 -130.1,-163.4 		"/>
		<polygon class="st17" points="-106.6,-157.6 -114.7,-151.8 -114.7,-163.4 		"/>
		<polygon class="st17" points="-91.2,-157.6 -99.3,-151.8 -99.3,-163.4 		"/>
		<polygon class="st17" points="-75.9,-157.6 -84,-151.8 -84,-163.4 		"/>
		<polygon class="st17" points="-60.5,-157.6 -68.6,-151.8 -68.6,-163.4 		"/>
		<polygon class="st17" points="-45.2,-157.6 -53.3,-151.8 -53.3,-163.4 		"/>
		<polygon class="st17" points="-29.8,-157.6 -37.9,-151.8 -37.9,-163.4 		"/>
		<polygon class="st17" points="-14.5,-157.6 -22.6,-151.8 -22.6,-163.4 		"/>
	</g>
	<g>
		<path class="st18" d="M-203.2-188.3v89.9c0,4.8-3.9,8.8-8.8,8.8h-80.9c-4.8,0-8.8-3.9-8.8-8.8v-118.4c0-4.8,3.9-8.8,8.8-8.8h52.4
			L-203.2-188.3z"/>
		<polygon class="st19" points="-235.3,-189.1 -203.2,-175.9 -203.2,-188.3 -221.4,-193.7 		"/>
		<path class="st20" d="M-203.2-188.3h-28.5c-4.8,0-8.8-3.9-8.8-8.8v-28.5L-203.2-188.3z"/>
		<g>
			<polygon class="st3" points="-226.8,-135.3 -226.8,-135.3 -226.8,-135.3 			"/>
			<path class="st3" d="M-226-133.9c-0.1-0.4-0.4-1-0.8-1.3h0c-1.1-1-3.4-1.6-7-1.6c-2.4,0-5.3,0.2-8.4,0.6
				c-1.4-0.8-2.8-1.6-3.9-2.6c-3-2.7-5.5-6.5-7-10.7c0.1-0.4,0.2-0.7,0.3-1.1c0,0,1.7-9.3,1.2-12.5c0-0.3-0.1-0.6-0.2-0.9l-0.1-0.4
				c-0.5-1-1.4-2.1-2.8-2.1l-0.8,0c-1.6,0-2.8,0.8-3.2,2c-1,3.7,0,9.2,1.9,16.3l-0.5,1.2c-1.4,3.3-3.1,6.5-4.6,9.4l-0.2,0.4
				c-1.4,2.6-2.8,5.2-4.3,7.8l-1.3,0.7c-0.1,0.1-2.4,1.3-2.9,1.6c-4.6,2.7-7.6,5.7-8.1,8.2c-0.2,0.8,0,1.8,0.8,2.2l1.3,0.6
				c0.6,0.3,1.2,0.4,1.8,0.4c3.3,0,7.1-4,12.3-12.9c6.2-2,12.5-3.4,18.9-4.4c4.6,2.5,10.2,4.3,13.8,4.3c0.6,0,1.2-0.1,1.6-0.2
				c0.6-0.2,1.2-0.5,1.6-1.1C-226-131.1-225.8-132.5-226-133.9z M-275.7-118.2L-275.7-118.2c0.6-1.6,3-4.8,6.5-7.6
				c0.2-0.2,0.8-0.7,1.3-1.1C-271.6-121.2-274-118.9-275.7-118.2z M-255-164.9c1.1,0,1.7,2.6,1.7,5c0.1,2.4-0.5,4.1-1.3,5.4
				c-0.6-1.9-0.9-4.8-0.9-6.8C-255.4-161.2-255.5-164.9-255-164.9z M-261.1-131.6c0.7-1.3,1.5-2.6,2.3-4.1c1.5-2.8,2.8-5.6,4-8.5
				c1.8,3.2,4,5.9,6.6,8c0.3,0.3,0.7,0.5,1,0.8C-252.6-134.4-257.1-133.1-261.1-131.6z M-227.8-131.9L-227.8-131.9
				c-0.3,0.2-1.2,0.3-1.8,0.3c-1.9,0-4.3-0.9-7.6-2.3c1.3-0.1,2.4-0.1,3.5-0.1c1.9,0,2.5,0,4.4,0.5
				C-227.5-133.1-227.5-132.1-227.8-131.9z"/>
		</g>
	</g>
</g>
</svg>
