<?xml version="1.0" standalone="no"?><!DOCTYPE svg PUBLIC "-//W3C//DTD SVG 1.1//EN" "http://www.w3.org/Graphics/SVG/1.1/DTD/svg11.dtd"><svg t="1703753792660" class="icon" viewBox="0 0 1024 1024" version="1.1" xmlns="http://www.w3.org/2000/svg" p-id="9790" xmlns:xlink="http://www.w3.org/1999/xlink" width="180" height="180"><path d="M358.676791 507.536139a31.999 31.999 0 0 0 0 63.998001h306.710416a31.999 31.999 0 1 0 0-63.998001zM581.293835 687.594513h-222.617044a31.999 31.999 0 0 0 0 63.998h222.617044a31.999 31.999 0 1 0 0-63.998z" p-id="9791"></path><path d="M990.913034 986.177182a30.07906 30.07906 0 0 0-0.63998-4.735852l-0.735977-2.079935-0.191994-0.575982L740.584857 264.983719l72.63773-199.577763c0.159995-0.447986 0.063998-0.95997 0.191994-1.407956h50.590419a31.999 31.999 0 0 0 0-63.998h-703.978001a31.999 31.999 0 0 0 0 63.998h49.470454c0.159995 0.479985 0.031999 0.95997 0.223993 1.407956l73.053717 200.761726-248.088247 712.489735-0.287991 0.831974-0.383988 1.119965c-0.287991 0.799975-0.127996 1.631949-0.31999 2.463923a30.975032 30.975032 0 0 0-1.695947 8.31974c0 0.543983 0.31999 1.023968 0.31999 1.59995 0 0.447986 0.223993 0.863973 0.287991 1.343958a31.455017 31.455017 0 0 0 21.023343 26.943158l0.095997 0.063998c0.31999 0.095997 0.63998 0.031999 0.95997 0.159995A31.231024 31.231024 0 0 0 63.998 1023.36002h892.228118a31.551014 31.551014 0 0 0 3.83988 0.607981 31.903003 31.903003 0 0 0 10.527671-1.791944 31.551014 31.551014 0 0 0 18.783413-18.23943c0.127996-0.287991 0.127996-0.63998 0.255992-0.95997a31.423018 31.423018 0 0 0 2.143933-10.591669c0-0.351989 0.191994-0.63998 0.191994-1.023968a30.047061 30.047061 0 0 0-1.055967-5.215837zM109.11659 959.36202l237.528577-682.090685a30.975032 30.975032 0 0 0 1.215962-8.895722c0.095997-0.831974 0.31999-1.631949 0.31999-2.495922a30.143058 30.143058 0 0 0-0.63998-4.287866 30.751039 30.751039 0 0 0-1.119965-7.583763L277.303334 64.029999h468.337365l-69.149839 190.010062a30.335052 30.335052 0 0 0-0.479985 3.103903 26.015187 26.015187 0 0 0-0.127996 14.655542 29.75907 29.75907 0 0 0 0.447986 3.295897l238.488547 684.298616z" p-id="9792"></path></svg>
