<?xml version="1.0" standalone="no"?><!DOCTYPE svg PUBLIC "-//W3C//DTD SVG 1.1//EN" "http://www.w3.org/Graphics/SVG/1.1/DTD/svg11.dtd"><svg t="1748855023327" class="icon" viewBox="0 0 1024 1024" version="1.1" xmlns="http://www.w3.org/2000/svg" p-id="8173" xmlns:xlink="http://www.w3.org/1999/xlink" width="200" height="200"><path d="M731.735 230.989c60.948 0 110.356 49.414 110.356 110.37V796.63c0 60.955-49.408 110.369-110.356 110.369H175.356C114.408 907 65 857.586 65 796.63V341.359c0-60.955 49.408-110.37 110.356-110.37z m50.58 264.426H124.776v301.216c0 27.658 22.195 50.132 49.744 50.579l0.836 0.007h556.38c27.934 0 50.58-22.648 50.58-50.586l-0.001-301.216zM845.644 105c60.338 0 109.367 48.43 110.341 108.544l0.015 1.825v576.663c0 16.509-13.381 29.892-29.888 29.892-16.271 0-29.505-13.004-29.88-29.186l-0.008-0.706V215.37c0-27.658-22.195-50.132-49.744-50.579l-0.836-0.007H278.815c-16.507 0-29.888-13.383-29.888-29.891 0-16.273 13.002-29.509 29.183-29.884l0.705-0.008h566.829zM731.735 290.772H175.356c-27.934 0-50.58 22.648-50.58 50.586v94.273h657.539v-94.273c0-27.658-22.195-50.132-49.743-50.579l-0.837-0.007z m-128.749 34.49c16.507 0 29.889 13.384 29.889 29.892 0 16.273-13.002 29.509-29.183 29.884l-0.706 0.008H191.45c-16.507 0-29.888-13.383-29.888-29.892 0-16.273 13.001-29.508 29.182-29.883l0.706-0.008h411.536z m98.861 0c16.507 0 29.888 13.384 29.888 29.892 0 16.509-13.381 29.892-29.888 29.892s-29.888-13.383-29.888-29.892c0-16.508 13.381-29.891 29.888-29.891z" p-id="8174"></path></svg>