<?xml version="1.0" standalone="no"?><!DOCTYPE svg PUBLIC "-//W3C//DTD SVG 1.1//EN" "http://www.w3.org/Graphics/SVG/1.1/DTD/svg11.dtd"><svg t="1747967356743" class="icon" viewBox="0 0 1024 1024" version="1.1" xmlns="http://www.w3.org/2000/svg" p-id="18596" width="200" height="200" xmlns:xlink="http://www.w3.org/1999/xlink"><path d="M518.4 454.4h115.2v-25.6H518.4v-25.6h115.2v-25.6H518.4v-32h134.4V320h-128c-6.4-19.2-12.8-32-25.6-44.8l-32 6.4c12.8 6.4 19.2 19.2 25.6 38.4H384l19.2-38.4-32-6.4C352 320 320 371.2 275.2 409.6l6.4 32c19.2-19.2 38.4-32 51.2-51.2v128h320v-32H518.4v-32z m-32 32H364.8v-32h121.6v32z m0-57.6H364.8v-25.6h121.6v25.6z m0-51.2H364.8v-25.6-6.4h115.2v32z" p-id="18597"></path><path d="M774.4 524.8v-256c0-32-19.2-83.2-44.8-108.8L620.8 44.8C595.2 19.2 550.4 0 512 0H230.4c-32 0-64 25.6-64 64v19.2H128c-32 0-64 25.6-64 64v678.4c0 32 25.6 64 64 64h352c44.8 83.2 128 134.4 224 134.4 140.8 0 256-115.2 256-256 0-115.2-76.8-211.2-185.6-243.2zM128 838.4c-6.4 0-12.8-6.4-12.8-12.8V147.2c0-6.4 6.4-12.8 12.8-12.8h38.4v608c0 32 25.6 64 64 64h224c0 12.8 6.4 19.2 6.4 32H128z m364.8-211.2h-128V576h172.8c-19.2 12.8-32 32-44.8 51.2zM332.8 550.4v128h32v-19.2h108.8c-12.8 32-25.6 64-25.6 102.4H230.4c-6.4 0-12.8-6.4-12.8-12.8V64c0-6.4 6.4-12.8 12.8-12.8H524.8V256h198.4v256h-25.6c-51.2 0-96 12.8-134.4 38.4H332.8z m467.2 249.6h-64v64c0 19.2-12.8 32-32 32s-32-12.8-32-32v-64h-64c-19.2 0-32-12.8-32-32s12.8-32 32-32h64v-64c0-19.2 12.8-32 32-32s32 12.8 32 32v64h64c19.2 0 32 12.8 32 32s-12.8 32-32 32z" p-id="18598"></path></svg>
