<?xml version="1.0" standalone="no"?><!DOCTYPE svg PUBLIC "-//W3C//DTD SVG 1.1//EN" "http://www.w3.org/Graphics/SVG/1.1/DTD/svg11.dtd"><svg t="1747964004950" class="icon" viewBox="0 0 1024 1024" version="1.1" xmlns="http://www.w3.org/2000/svg" p-id="1524" width="200" height="200" xmlns:xlink="http://www.w3.org/1999/xlink"><path d="M845.676495 667.35606c-98.485705 0-178.320947 79.837288-178.320947 178.32197 0 98.483658 79.835241 178.320947 178.320947 178.320947 98.485705 0 178.32197-79.837288 178.32197-178.320947-0.005117-98.479565-79.837288-178.316853-178.32197-178.32197z m66.587016 178.834666v18.414071h-48.29984v16.179085h48.29984v18.414071h-48.29984v38.322226h-36.329773v-38.322226h-48.539303v-18.414071h48.539303v-16.179085h-48.539303v-18.414071h40.08852l-58.507707-92.353822h43.06236l22.654813 44.810234c9.208059 18.907323 12.444899 25.385098 19.157019 38.824688h1.235178c7.209466-13.439591 10.451423-20.64394 19.145762-38.824688l22.417397-44.810234h42.309178l-58.747169 92.353822h40.353565zM24.386824 546.215542c0.999808 0.146338 22.646626 3.168276 57.067861 3.168276 126.038248 0 423.280077-40.532651 501.905724-411.153437h81.529901a10.351135 10.351135 0 0 0 7.650528-17.296579L565.619699 3.45993a10.665302 10.665302 0 0 0-15.314358 0L443.389319 120.934826a10.343972 10.343972 0 0 0-1.795971 11.135017 10.343972 10.343972 0 0 0 9.450592 6.161561h72.237928c-71.613687 233.608187-239.233515 363.971091-498.274896 387.45686a10.340902 10.340902 0 0 0-9.441382 9.987847 10.346019 10.346019 0 0 0 8.821234 10.539431zM10.351647 908.183946h147.155996a10.315318 10.315318 0 0 0 7.313847-3.021938 10.357275 10.357275 0 0 0 3.027055-7.3118V691.272657c0-2.743588-1.088839-5.375632-3.027055-7.313847a10.346019 10.346019 0 0 0-7.313847-3.027054H10.351647a10.362392 10.362392 0 0 0-7.316917 3.027054 10.327598 10.327598 0 0 0-3.032172 7.313847v206.577551c0 2.743588 1.088839 5.375632 3.032172 7.3118a10.325552 10.325552 0 0 0 7.316917 3.021938zM231.985673 571.405181a10.353182 10.353182 0 0 0-7.3118 3.027054 10.315318 10.315318 0 0 0-3.021938 7.311801v316.105149a10.327598 10.327598 0 0 0 3.021938 7.3118 10.330668 10.330668 0 0 0 7.3118 3.021938h147.171347a10.341925 10.341925 0 0 0 10.339878-10.334762V581.745059c0-5.706172-4.632683-10.338855-10.338855-10.338855H231.985673zM454.638951 476.786697c-5.695939 0.01535-10.310201 4.632683-10.315318 10.330668v410.732843c-0.005117 5.701055 4.614263 10.325552 10.315318 10.333738h147.191813a10.313272 10.313272 0 0 0 7.311801-3.021938 10.322482 10.322482 0 0 0 3.032171-7.3118V487.117365a10.330668 10.330668 0 0 0-10.343972-10.330668H454.638951z" p-id="1525"></path><path d="M721.707451 817.354909a193.255644 193.255644 0 0 1 6.203518-4.717621l-0.00307-14.911161a126.154909 126.154909 0 0 0-6.200448 19.628782zM683.402622 683.405181c40.296258-40.297282 92.942245-63.74928 149.402239-66.850016V256.30598a10.335785 10.335785 0 0 0-3.016821-7.30873 10.350112 10.350112 0 0 0-7.303614-3.031148H675.307963a10.338855 10.338855 0 0 0-10.349089 10.339878v447.885386a233.244899 233.244899 0 0 1 18.443748-20.786185zM635.150879 937.302207H0.002558v66.475471H679.332779c-18.750752-19.703486-33.600512-42.177167-44.1819-66.475471z" p-id="1526"></path></svg>
