<?xml version="1.0" standalone="no"?><!DOCTYPE svg PUBLIC "-//W3C//DTD SVG 1.1//EN" "http://www.w3.org/Graphics/SVG/1.1/DTD/svg11.dtd"><svg t="1747963760412" class="icon" viewBox="0 0 1024 1024" version="1.1" xmlns="http://www.w3.org/2000/svg" p-id="2226" xmlns:xlink="http://www.w3.org/1999/xlink" width="200" height="200"><path d="M844.408163 83.265306h-93.061224V75.102041a75.102041 75.102041 0 0 0-75.102041-75.102041H347.755102a75.102041 75.102041 0 0 0-75.102041 75.102041v8.163265H178.285714A85.22449 85.22449 0 0 0 93.387755 168.163265v770.938776a85.22449 85.22449 0 0 0 84.897959 84.897959H844.408163a85.22449 85.22449 0 0 0 84.897959-84.897959V168.163265a85.22449 85.22449 0 0 0-84.897959-84.897959zM337.959184 75.102041a9.469388 9.469388 0 0 1 9.795918-9.795919h328.489796a9.795918 9.795918 0 0 1 9.795918 9.795919v72.489796a9.795918 9.795918 0 0 1-9.795918 9.795918H347.755102a9.469388 9.469388 0 0 1-9.795918-9.795918z m527.346938 864a19.591837 19.591837 0 0 1-19.591836 19.591837H178.285714a19.591837 19.591837 0 0 1-19.591836-19.591837V168.163265a19.591837 19.591837 0 0 1 19.591836-19.591836h94.367347a75.102041 75.102041 0 0 0 75.102041 74.122449h328.489796a75.102041 75.102041 0 0 0 75.102041-74.122449H844.408163a19.591837 19.591837 0 0 1 19.591837 19.591836z" p-id="2227" ></path><path d="M375.183673 558.040816a32.653061 32.653061 0 0 0-32.653061 32.653062v108.408163a32.653061 32.653061 0 1 0 65.306123 0v-108.408163a32.653061 32.653061 0 0 0-32.653062-32.653062zM511.020408 487.183673a32.653061 32.653061 0 0 0-32.653061 32.653062v179.265306a32.653061 32.653061 0 1 0 65.306122 0v-179.265306a32.653061 32.653061 0 0 0-32.653061-32.653062zM648.489796 413.061224a32.653061 32.653061 0 0 0-32.653061 32.653062v253.387755a32.653061 32.653061 0 0 0 65.306122 0v-253.387755a32.653061 32.653061 0 0 0-32.653061-32.653062z" p-id="2228"></path></svg>
