<?xml version="1.0" standalone="no"?><!DOCTYPE svg PUBLIC "-//W3C//DTD SVG 1.1//EN" "http://www.w3.org/Graphics/SVG/1.1/DTD/svg11.dtd"><svg t="1747963857112" class="icon" viewBox="0 0 1024 1024" version="1.1" xmlns="http://www.w3.org/2000/svg" p-id="3712" width="200" height="200" xmlns:xlink="http://www.w3.org/1999/xlink"><path d="M768 192 256 192C217.6 192 192 217.6 192 256l0 576c0 38.4 25.6 64 64 64l512 0c38.4 0 64-25.6 64-64L832 256C832 217.6 806.4 192 768 192zM800 819.2c0 25.6-19.2 51.2-51.2 51.2L268.8 870.4c-25.6 0-51.2-19.2-51.2-51.2L217.6 268.8c0-25.6 19.2-51.2 51.2-51.2l480 0c25.6 0 51.2 19.2 51.2 51.2L800 819.2z" p-id="3713" ></path><path d="M704 192 320 192l0 0c0-38.4 25.6-64 64-64l256 0C678.4 128 704 153.6 704 192L704 192z" p-id="3714" ></path><path d="M320 313.6m-12.8 0a0.2 0.2 0 1 0 25.6 0 0.2 0.2 0 1 0-25.6 0Z" p-id="3715" ></path><path d="M723.2 332.8 428.8 332.8c-6.4 0-12.8-6.4-12.8-12.8l0 0c0-6.4 6.4-12.8 12.8-12.8l288 0c6.4 0 12.8 6.4 12.8 12.8l0 0C736 326.4 729.6 332.8 723.2 332.8z" p-id="3716" ></path><path d="M320 409.6m-12.8 0a0.2 0.2 0 1 0 25.6 0 0.2 0.2 0 1 0-25.6 0Z" p-id="3717" ></path><path d="M723.2 428.8 428.8 428.8c-6.4 0-12.8-6.4-12.8-12.8l0 0c0-6.4 6.4-12.8 12.8-12.8l288 0c6.4 0 12.8 6.4 12.8 12.8l0 0C736 422.4 729.6 428.8 723.2 428.8z" p-id="3718" ></path><path d="M640 582.4C633.6 576 627.2 576 620.8 582.4L512 684.8l-38.4-38.4c0 0 0 0 0 0-6.4-6.4-6.4-6.4-12.8-6.4-6.4 0-6.4 0-12.8 6.4 0 0 0 0 0 0l-44.8 44.8c-6.4 6.4-6.4 19.2 0 25.6 6.4 6.4 19.2 6.4 25.6 0l38.4-38.4 38.4 38.4c0 0 0 0 0 0 6.4 6.4 6.4 6.4 12.8 6.4 6.4 0 6.4 0 12.8-6.4 0 0 0 0 0 0L640 601.6C646.4 595.2 646.4 588.8 640 582.4z" p-id="3719" ></path><path d="M723.2 780.8l-384 0L339.2 512c0-6.4-6.4-12.8-12.8-12.8S307.2 505.6 307.2 512l0 281.6c0 6.4 6.4 12.8 12.8 12.8l403.2 0c6.4 0 12.8-6.4 12.8-12.8S729.6 780.8 723.2 780.8z" p-id="3720" ></path></svg>
