<?xml version="1.0" standalone="no"?><!DOCTYPE svg PUBLIC "-//W3C//DTD SVG 1.1//EN" "http://www.w3.org/Graphics/SVG/1.1/DTD/svg11.dtd"><svg t="1615339960802" class="icon" viewBox="0 0 1026 1024" version="1.1" xmlns="http://www.w3.org/2000/svg" p-id="4504" xmlns:xlink="http://www.w3.org/1999/xlink" width="250.48828125" height="250"><defs><style type="text/css"></style></defs><path d="M320.34618 166.358203A195.364248 195.364248 0 0 1 511.871392 365.134927H320.34618v198.350164A195.364248 195.364248 0 0 1 127.967848 365.134927 194.937689 194.937689 0 0 1 320.34618 166.358203z m42.655949 426.559493V394.567532H554.527342a195.790808 195.790808 0 0 1-191.951772 198.350164z m326.318013-213.279747h183.847141a23.034213 23.034213 0 0 1 21.754535 23.887332 23.887332 23.887332 0 0 1-21.754535 24.740451h-184.273701a23.887332 23.887332 0 0 1-20.901415-24.740451 23.034213 23.034213 0 0 1 20.901415-25.16701z m0-123.702253h183.847141a23.460772 23.460772 0 0 1 21.754535 24.313891 23.887332 23.887332 0 0 1-21.754535 24.740451h-184.273701a23.887332 23.887332 0 0 1-20.901415-24.740451 23.460772 23.460772 0 0 1 20.901415-24.313891z m0-119.863218h183.847141a23.887332 23.887332 0 0 1 21.754535 24.740451 23.460772 23.460772 0 0 1-21.754535 24.313891h-184.273701a23.460772 23.460772 0 0 1-20.901415-24.313891 23.887332 23.887332 0 0 1 20.901415-26.020129zM68.249519 735.815126h887.243747a38.390354 38.390354 0 0 0 34.551319-42.655949V42.655949a38.390354 38.390354 0 0 0-34.551319-42.655949H68.249519a38.816914 38.816914 0 0 0-34.551319 42.655949v652.209466a38.390354 38.390354 0 0 0 34.551319 40.949711z m938.430886 57.585532H17.06238c-9.810868 0-17.06238 23.887332-17.06238 35.404438s8.10463 35.830997 17.06238 35.830998h264.040326L213.279747 981.086835a32.845081 32.845081 0 0 0 7.678071 37.110676 29.432605 29.432605 0 0 0 34.977878-4.692154l85.311899-148.869263h357.883415l78.060387 148.442703a24.313891 24.313891 0 0 0 32.418522 7.678071 27.299808 27.299808 0 0 0 8.53119-31.565402l-64.410484-125.408491h255.935696c9.810868 0 17.06238-24.313891 17.06238-35.830998s-10.237428-34.551319-20.048296-34.551319z" p-id="4505"></path></svg>