<?xml version="1.0" standalone="no"?><!DOCTYPE svg PUBLIC "-//W3C//DTD SVG 1.1//EN" "http://www.w3.org/Graphics/SVG/1.1/DTD/svg11.dtd"><svg t="1747911676996" class="icon" viewBox="0 0 1024 1024" version="1.1" xmlns="http://www.w3.org/2000/svg" p-id="30313" xmlns:xlink="http://www.w3.org/1999/xlink" width="200" height="200"><path d="M750.592 989.866667H140.288c-46.933333 0-85.162667-41.472-85.162667-92.672V126.805333C54.954667 75.605333 93.184 34.133333 140.288 34.133333h423.765333c14.165333 0 25.6 11.434667 25.6 25.6S578.048 85.333333 564.053333 85.333333H140.288c-18.773333 0-33.962667 18.602667-33.962667 41.472v770.56c0 22.869333 15.189333 41.472 33.962667 41.472h610.304c22.869333 0 41.472-18.602667 41.472-41.472V491.349333c0-14.165333 11.434667-25.6 25.6-25.6s25.6 11.434667 25.6 25.6v406.016c0 51.029333-41.642667 92.501333-92.672 92.501334z" fill="#333333" p-id="30314"></path><path d="M709.290667 559.104H187.904c-14.165333 0-25.6-11.434667-25.6-25.6s11.434667-25.6 25.6-25.6h521.386667c14.165333 0 25.6 11.434667 25.6 25.6s-11.434667 25.6-25.6 25.6zM522.752 398.336H187.904c-14.165333 0-25.6-11.434667-25.6-25.6s11.434667-25.6 25.6-25.6h334.677333c14.165333 0 25.6 11.434667 25.6 25.6s-11.434667 25.6-25.429333 25.6zM709.290667 715.434667H187.904c-14.165333 0-25.6-11.434667-25.6-25.6s11.434667-25.6 25.6-25.6h521.386667c14.165333 0 25.6 11.434667 25.6 25.6s-11.434667 25.6-25.6 25.6z" fill="#333333" p-id="30315"></path><path d="M764.928 420.352c-106.496 0-193.024-86.698667-193.024-193.024C571.904 120.832 658.432 34.133333 764.928 34.133333s193.194667 86.698667 193.194667 193.024c0 106.496-86.698667 193.194667-193.194667 193.194667z m0-335.018667c-78.165333 0-141.824 63.658667-141.824 141.824s63.658667 141.824 141.824 141.824 141.994667-63.658667 141.994667-141.824S843.264 85.333333 764.928 85.333333z" fill="#333333" p-id="30316"></path><path d="M838.997333 266.24h-73.898666c-14.165333 0-25.6-11.434667-25.6-25.6V155.477333c0-14.165333 11.434667-25.6 25.6-25.6s25.6 11.434667 25.6 25.6v59.392h48.298666c14.165333 0 25.6 11.434667 25.6 25.6s-11.434667 25.770667-25.6 25.770667z" fill="#333333" p-id="30317"></path></svg>