<?xml version="1.0" standalone="no"?><!DOCTYPE svg PUBLIC "-//W3C//DTD SVG 1.1//EN" "http://www.w3.org/Graphics/SVG/1.1/DTD/svg11.dtd"><svg t="1747966981702" class="icon" viewBox="0 0 1024 1024" version="1.1" xmlns="http://www.w3.org/2000/svg" p-id="16641" width="200" height="200" xmlns:xlink="http://www.w3.org/1999/xlink"><path d="M938.944 143.488H85.12C38.08 143.488 0 181.568 0 228.544v566.912c0 46.976 38.08 85.056 85.056 85.056H938.88c46.976 0 85.056-38.08 85.056-85.056V228.544c0-46.976-38.08-85.056-85.056-85.056zM85.12 203.52H938.88c13.824 0 25.024 11.2 25.024 24.96v90.24H60.032V228.48c0-13.76 11.2-24.96 24.96-24.96z m853.888 616.96H85.12a25.088 25.088 0 0 1-25.024-24.96V432h903.936v363.392a25.088 25.088 0 0 1-24.96 25.024z" p-id="16642"></path><path d="M647.808 684.352h231.04v62.976h-231.04zM191.36 649.728h-58.176V502.784h54.656c27.456 1.472 41.92 14.464 43.328 39.04 0 13.312-4.736 23.232-14.208 29.824 12.8 8.064 19.392 19.84 19.84 35.52 0 28.416-15.104 42.56-45.44 42.56z m-33.28-123.52v35.52h26.24c14.208-0.448 21.504-6.848 22.016-19.2-0.96-10.368-8.32-15.808-22.016-16.32h-26.24z m27.648 59.648h-27.712v41.92h29.824c15.616-0.512 23.68-7.36 24.128-20.608-0.448-13.696-9.216-20.8-26.24-21.312z m158.976 63.872L333.44 615.04h-52.48l-12.16 34.752h-24.832l52.544-146.944h21.312l52.48 146.944h-25.536z m-56.064-58.88h36.928l-18.432-53.952-18.496 53.952z m188.8 15.616v-103.68h24.896v146.944H477.44L409.344 546.112v103.68h-24.832V502.72h25.536l67.456 103.68z m127.808 43.264L564.8 583.04l-14.912 17.024v49.664h-24.832V502.784h24.832v62.464l51.84-62.464h31.168l-52.48 61.76 53.952 85.184h-29.12z" p-id="16643"></path></svg>
