<?xml version="1.0" standalone="no"?><!DOCTYPE svg PUBLIC "-//W3C//DTD SVG 1.1//EN" "http://www.w3.org/Graphics/SVG/1.1/DTD/svg11.dtd"><svg t="1747963577390" class="icon" viewBox="0 0 1085 1024" version="1.1" xmlns="http://www.w3.org/2000/svg" p-id="3720" id="mx_n_1747963577391" xmlns:xlink="http://www.w3.org/1999/xlink" width="211.9140625" height="200"><path d="M327.451275 836.769322H116.875799a38.390723 38.390723 0 0 1-35.894314-40.482309V120.974633a38.390723 38.390723 0 0 1 35.894314-40.482309h823.140278a38.390723 38.390723 0 0 1 35.894314 40.482309v87.711669a40.482309 40.482309 0 0 0 80.964617 0v-87.711669A119.085458 119.085458 0 0 0 940.285959 0h-823.140278A119.017988 119.017988 0 0 0 0.016868 120.974633v675.514792a119.085458 119.085458 0 0 0 116.589049 120.974632h210.710417a40.482309 40.482309 0 1 0 0-80.964617z m745.819068-238.778151a40.482309 40.482309 0 0 0-57.012585 0l-328.581406 328.446465-162.536469-162.806352a40.482309 40.482309 0 0 0-57.012585 0 40.482309 40.482309 0 0 0 0 57.012585l191.278909 191.48132a40.482309 40.482309 0 0 0 57.012585 0l357.053963-357.053963a40.482309 40.482309 0 0 0 0-57.012585z" p-id="3721"></path><path d="M329.947684 432.013705a17.947157 17.947157 0 0 1-12.482045-3.508467 16.462806 16.462806 0 0 1-3.710879-12.279633 19.836331 19.836331 0 0 1 3.306056-12.751928 16.462806 16.462806 0 0 1 12.954339-3.98076H466.508006a33.735257 33.735257 0 0 1 23.277327 7.691639 33.262964 33.262964 0 0 1 8.771167 26.111089 90.208078 90.208078 0 0 1-3.98076 25.031561 290.123213 290.123213 0 0 1-14.033867 35.961784 18.41945 18.41945 0 0 1-12.482046 12.751927 16.395335 16.395335 0 0 1-14.236278-3.103643 15.180866 15.180866 0 0 1-6.139817-8.771167 26.988206 26.988206 0 0 1 3.98076-16.260394q3.036173-6.747051 5.2627-10.997694t3.710879-8.366344a70.034394 70.034394 0 0 0 2.63135-8.366344q1.079528-4.385583 2.428938-10.997694 0.877117-4.790407-1.079528-6.747051a10.322989 10.322989 0 0 0-6.747051-1.754234h-30.294261v167.259406a50.940239 50.940239 0 0 1-7.219345 30.09185 42.978718 42.978718 0 0 1-22.602623 14.708572 37.108783 37.108783 0 0 1-11.200105 1.28194 125.89998 125.89998 0 0 1-15.788101-1.079529 159.432826 159.432826 0 0 1-17.542333-3.306055 144.117019 144.117019 0 0 1-15.990512-4.857877 21.590565 21.590565 0 0 1-12.482046-10.5254 20.241154 20.241154 0 0 1 0-13.494103 13.494103 13.494103 0 0 1 8.366344-8.771167 18.149568 18.149568 0 0 1 12.279634 0.877117 126.642156 126.642156 0 0 0 36.434078 8.771167 12.144693 12.144693 0 0 0 10.727812-4.183172 18.689333 18.689333 0 0 0 2.833761-10.727812V431.811293z m114.160111-68.010279q11.874811 6.747051 12.279633 13.494103a26.17856 26.17856 0 0 1-3.98076 14.236279q-4.857877 8.366344-11.874811 6.747051a46.622126 46.622126 0 0 1-16.665217-7.89405q-16.260394-10.997694-31.576201-20.848389t-34.679844-20.241154a31.711142 31.711142 0 0 1-13.494103-11.604929 14.43869 14.43869 0 0 1 0.404823-13.494103q8.298873-16.260394 27.662911-5.2627l19.566449 11.874811 18.217039 10.997693q10.5254-11.402517 19.498979-23.277327a309.082427 309.082427 0 0 0 17.812216-26.313501 29.349674 29.349674 0 0 0 3.91329-8.096461q0.472294-2.428939-7.89405-1.551822h-102.555183a13.831455 13.831455 0 0 1-16.260394-15.788101 17.407393 17.407393 0 0 1 3.710879-12.279633 16.665217 16.665217 0 0 1 12.482045-3.980761h108.425117a36.366607 36.366607 0 0 1 26.111089 8.973579 29.956908 29.956908 0 0 1 9.445872 22.602622 45.137774 45.137774 0 0 1-7.89405 24.559267 220.358701 220.358701 0 0 1-19.566449 26.988206q-9.445872 10.997694-22.1978 24.154444a39.807604 39.807604 0 0 1 4.857877 2.833762 21.118271 21.118271 0 0 0 4.790407 3.171114z m73.272979 283.983396a33.735257 33.735257 0 0 1-21.320683 6.342229 15.113395 15.113395 0 0 1-11.200105-9.850696 12.751927 12.751927 0 0 1-0.404824-12.549515 47.22936 47.22936 0 0 1 15.788101-12.482046 337.352573 337.352573 0 0 0 46.554655-29.619555 112.203466 112.203466 0 0 0 26.988206-29.821968 97.899717 97.899717 0 0 0 12.751927-35.961784 325.950056 325.950056 0 0 0 3.103644-48.5113V399.155564a23.074916 23.074916 0 0 1 3.98076-15.383277 17.00257 17.00257 0 0 1 13.494103-4.385583 17.609804 17.609804 0 0 1 13.494103 4.385583 23.074916 23.074916 0 0 1 3.98076 15.383277v76.106741a242.893853 242.893853 0 0 1-5.465111 53.301706 152.213481 152.213481 0 0 1-18.014628 45.205245 166.989524 166.989524 0 0 1-33.128023 39.065428 289.583449 289.583449 0 0 1-50.333003 35.152138z m-3.508467-361.709429a15.653159 15.653159 0 0 1-12.482045-4.385583 17.677275 17.677275 0 0 1-3.710879-11.874811 16.867629 16.867629 0 0 1 3.710879-11.604928 16.125453 16.125453 0 0 1 12.482045-4.183172h199.3079a16.125453 16.125453 0 0 1 12.482045 4.183172 16.867629 16.867629 0 0 1 3.710878 11.604928 17.744745 17.744745 0 0 1-3.710878 11.874811 15.653159 15.653159 0 0 1-12.482045 4.385583h-86.362259a411.030375 411.030375 0 0 1-9.24346 47.836595h63.624695a78.535679 78.535679 0 0 1 15.585689 1.28194 20.241154 20.241154 0 0 1 10.322989 5.2627 22.872504 22.872504 0 0 1 5.734993 10.5254 82.58391 82.58391 0 0 1 2.226527 17.137511V555.282335a15.180866 15.180866 0 0 1-4.587995 12.482045 17.879686 17.879686 0 0 1-11.604928 3.710879 17.677275 17.677275 0 0 1-11.874811-3.710879 15.585689 15.585689 0 0 1-4.385583-12.482045V369.603479q-0.472294-5.2627-3.508467-5.2627h-135.615734a3.036173 3.036173 0 0 0-2.428939 1.551822 5.600053 5.600053 0 0 0-1.079528 3.306055v189.659616a15.180866 15.180866 0 0 1-4.587995 12.482046 17.879686 17.879686 0 0 1-11.604929 3.710878 13.831455 13.831455 0 0 1-15.7881-16.260394V367.309481a37.108783 37.108783 0 0 1 6.747051-26.988205 40.482309 40.482309 0 0 1 26.313501-6.342229h42.573895a300.31126 300.31126 0 0 0 10.5254-47.836595z m211.992357 358.200962a16.327865 16.327865 0 0 1-14.033867 7.489228 27.797852 27.797852 0 0 1-15.788101-11.874811 136.965145 136.965145 0 0 0-11.200105-12.751927q-7.219345-7.489227-16.462806-15.788101t-18.891744-16.665217l-18.014627-15.7881a34.409962 34.409962 0 0 1-10.322989-14.033867 11.065164 11.065164 0 0 1 4.183172-12.751928 15.585689 15.585689 0 0 1 12.077222-6.139816 25.638796 25.638796 0 0 1 15.585689 7.489227q22.400211 18.41945 37.311194 32.453317t29.821968 28.944851a27.52797 27.52797 0 0 1 9.850695 16.057983 17.542334 17.542334 0 0 1-4.587995 13.494102z" p-id="3722"></path></svg>
