<?xml version="1.0" standalone="no"?><!DOCTYPE svg PUBLIC "-//W3C//DTD SVG 1.1//EN" "http://www.w3.org/Graphics/SVG/1.1/DTD/svg11.dtd"><svg t="1747964420231" class="icon" viewBox="0 0 1024 1024" version="1.1" xmlns="http://www.w3.org/2000/svg" p-id="2404" width="200" height="200" xmlns:xlink="http://www.w3.org/1999/xlink"><path d="M762.368 576c66.56 0 126.464 27.136 169.472 70.656V315.904c0-27.648-9.728-50.688-29.184-69.632-18.944-18.944-44.544-29.184-70.656-28.672H100.352c-27.648 0-51.712 9.728-71.168 28.672S0 288.256 0 315.904v146.944h249.344c28.16 0 51.712 9.216 70.656 28.16 19.456 18.944 29.184 41.984 29.184 69.12-0.512 17.408-4.608 34.304-12.288 49.664-5.632 12.288-15.36 23.552-29.184 33.792s-33.28 15.36-58.88 15.36H0v197.12c0 13.824 2.56 26.624 7.168 38.4 9.216 23.552 27.648 42.496 51.2 52.736 11.776 5.12 24.576 7.68 38.4 7.68h481.28c-33.792-40.96-52.736-92.672-52.736-145.92 0.512-129.024 106.496-232.96 237.056-232.96" p-id="2405" ></path><path d="M284.672 595.456c9.728-9.728 14.336-21.504 14.336-35.328s-4.608-25.088-14.336-34.816c-9.216-9.216-22.016-14.336-35.328-13.824-26.624-0.512-49.152 20.992-49.664 47.616v1.024c0 13.824 4.608 25.6 14.336 35.328 9.216 9.728 20.992 14.848 35.328 14.848 14.336 0 26.112-5.12 35.328-14.848M536.576 109.056c-30.72-15.872-60.928-31.744-91.136-47.616-30.208-15.872-53.76-28.16-70.656-36.864-25.6-13.824-48.64-19.968-68.608-18.944s-37.376 4.608-51.2 10.24c-15.872 7.68-30.208 18.432-41.984 31.232L149.504 167.424h499.2c-39.424-19.968-76.8-39.424-112.128-58.368M569.344 887.296c10.752 24.576 26.112 46.592 45.056 65.024 19.456 18.944 41.984 33.792 66.56 44.032 25.6 10.752 53.248 16.384 80.896 16.384 29.184 0 56.832-5.632 81.92-16.384 49.664-20.992 90.112-59.904 112.128-109.056 11.264-24.576 16.896-51.712 16.896-78.848 0-28.672-5.632-55.296-16.896-79.872-33.792-76.288-110.08-125.44-194.048-124.416-28.672 0-55.808 5.12-80.896 15.872-24.576 10.24-47.616 25.088-66.56 43.52-18.944 18.432-34.304 40.448-45.056 65.024-11.264 24.576-16.896 51.2-16.896 79.872 0.512 28.16 5.632 54.272 16.896 78.848z m90.6752-96.7168l88.4736-88.4736a25.2928 25.2928 0 0 1 17.8688-7.424c6.4512 0 12.9536 2.4576 17.8688 7.424a25.24672 25.24672 0 0 1 0 35.7376l-45.3632 45.3632h116.0192c13.9776 0 25.2928 11.3152 25.2928 25.2928 0 13.9776-11.3152 25.2928-25.2928 25.2928h-115.8656l45.2608 45.2608a25.24672 25.24672 0 0 1 0 35.7376 25.24672 25.24672 0 0 1-35.7376 0l-88.4736-88.4736a25.20064 25.20064 0 0 1-0.0512-35.7376z" p-id="2406" ></path></svg>
