<?xml version="1.0" standalone="no"?><!DOCTYPE svg PUBLIC "-//W3C//DTD SVG 1.1//EN" "http://www.w3.org/Graphics/SVG/1.1/DTD/svg11.dtd"><svg t="1569838906525" class="icon" viewBox="0 0 1024 1024" version="1.1" xmlns="http://www.w3.org/2000/svg" p-id="3159" xmlns:xlink="http://www.w3.org/1999/xlink" width="200" height="200"><defs><style type="text/css"></style></defs><path d="M112.8 356h510.4c24.8 0 44.8 21.6 44.8 48.001s-20 48-44.8 48.001H112.8c-24.8 0-44.8-21.6-44.8-48.001s20-48 44.8-48.001z m0 224h510.4c24.8 0 44.8 21.6 44.8 48.001s-20 48-44.8 48.001H112.8c-24.8 0-44.8-21.6-44.8-48.001s20-48 44.8-48.001z m3.2 216h784c26.401 0 48.001 21.6 48 48s-21.6 48.001-48 48H116c-26.401 0-48.001-21.6-48-48s21.6-48.001 48-48z m608-440l224 160-224 160V356z m176-120H116c-26.401 0-48.001-21.6-48-48s21.6-48.001 48-48h784c26.401 0 48.001 21.6 48 48s-21.6 48.001-48 48z" p-id="3160"></path></svg>