<?xml version="1.0" standalone="no"?><!DOCTYPE svg PUBLIC "-//W3C//DTD SVG 1.1//EN" "http://www.w3.org/Graphics/SVG/1.1/DTD/svg11.dtd"><svg t="1747964665085" class="icon" viewBox="0 0 1024 1024" version="1.1" xmlns="http://www.w3.org/2000/svg" p-id="8140" width="200" height="200" xmlns:xlink="http://www.w3.org/1999/xlink"><path d="M372.10112 489.78432l-44.99456 99.11296-45.54752-99.11296h-90.8288l71.37792 126.27968H200.4736v43.43296h86.90688v24.85248H200.4736v43.48416h86.90688v53.7856h80.75776v-53.7856h84.84864v-43.48416H368.13824v-24.85248h84.84864v-43.43296H393.76896l69.4272-126.27968H372.10112zM1023.93856 482.05312c0.06656 20.59776 0.1024 41.21088 0 61.80864-0.11776 21.36064-13.4912 34.5088-34.90816 34.5088-73.50784 0-147.00544-0.128-220.50816 0.16384-7.98208 0.03072-10.13248-2.1504-10.8288-10.13248-3.2512-38.13888-12.3904-74.99776-26.04032-110.73536-1.32096-3.41504-3.712-6.656-3.05152-11.32544 37.71904 0 75.45344-0.03072 113.21856 0 48.7936 0 97.54112 0 146.35008 0.03072 22.81984 0.03584 35.712 12.88704 35.76832 35.68128zM957.9008 745.15968c-0.37888 17.21856-13.9264 31.0016-30.98112 31.0784-65.90976 0.29184-131.80416 0.11264-199.50592 0.11264 9.49248-25.33376 17.91488-49.51552 23.0144-74.77248 3.34848-16.4608 6.51264-32.96256 7.49056-49.76128 0.32256-5.57056 2.05824-7.72608 7.9104-7.68 53.61152 0.22016 107.1616 0.03072 160.73216 0.29184a31.36 31.36 0 0 1 31.2576 30.71488c0.54272 23.31136 0.54272 46.6944 0.08192 70.016zM701.36832 380.55936c-5.39136 0.03072-9.41056-0.62976-12.8512-5.89824-32.32768-49.05472-73.37984-89.50272-122.36288-121.96864-1.10592-0.75776-2.18624-1.6128-5.66272-4.3008h107.59168c62.81216 0 125.63968 0 188.45696 0.0256 22.1952 0.03072 35.3792 13.056 35.44064 34.944 0.06656 20.93568 0.10752 41.86624 0 62.80192-0.06144 20.70016-13.53728 34.18624-34.04288 34.24768-52.224 0.08192-104.3968 0.01024-156.5696 0.14848zM232.12544 85.01248c0.13312-21.46304 13.28128-34.54464 34.88256-34.54464 218.49088-0.03072 436.98688-0.03072 655.50336 0 22.20032 0 35.42016 13.14816 35.49184 35.07712 0.0512 20.60288 0.0512 41.21088-0.04096 61.84448-0.13312 22.16448-13.14816 35.0464-35.42016 35.0464-109.24032 0.03072-218.5216 0-327.77216 0-108.54912 0-217.12896 0.03072-325.6832 0-24.77568-0.03072-37.06368-12.65664-37.00224-37.62688 0.04096-19.91168-0.06144-39.84896 0.04096-59.79648zM1023.90784 941.07136c-0.18944 19.4816-13.69088 33.11104-33.12128 33.11104-141.48096 0.10752-282.96704 0.06656-424.43264 0.03072-0.95744 0-1.95584-0.18432-5.39648-0.57856 22.20032-15.0784 41.93792-29.75232 60.14976-46.44864 25.44128-23.36256 47.73376-49.35168 66.66752-78.1824 3.44576-5.22752 7.1168-6.92224 13.32736-6.92224 94.7712 0.2304 189.53728 0.13312 284.29824 0.16384 26.96192 0 38.58944 11.78624 38.58944 39.0912-0.01024 19.90144 0.14848 39.82336-0.08192 59.73504z" p-id="8141"></path><path d="M328.09984 284.7232C148.22912 284.24192 0.94208 430.04416 0.27136 609.1776c-0.65024 180.75648 145.03424 328.32 324.54144 328.83712 182.02112 0.47104 328.3712-144.96256 328.84224-326.68672 0.4352-179.31264-145.92-326.1696-325.5552-326.6048z m-2.14528 580.48512c-140.84608-0.5888-253.39904-115.10784-252.86144-257.17248 0.512-137.43616 116.25472-251.29984 254.55104-250.54208 140.65664 0.79872 253.7728 114.59584 253.27104 254.70464-0.57344 140.13952-114.92352 253.63968-254.96064 253.00992z" p-id="8142"></path></svg>
