<?xml version="1.0" standalone="no"?><!DOCTYPE svg PUBLIC "-//W3C//DTD SVG 1.1//EN" "http://www.w3.org/Graphics/SVG/1.1/DTD/svg11.dtd"><svg t="1615340112947" class="icon" viewBox="0 0 1024 1024" version="1.1" xmlns="http://www.w3.org/2000/svg" p-id="6832" xmlns:xlink="http://www.w3.org/1999/xlink" width="250" height="250"><defs><style type="text/css"></style></defs><path d="M719.665667 908.545478l4.620227 0c-48.200792-6.016017-73.910337-25.273616-87.565335-44.730761L387.278417 863.814718c-13.658068 19.457144-39.364543 38.714743-87.568405 44.730761l3.01773 0c-15.066137 0-27.114544 12.233626-27.114544 27.076682 0 15.043624 12.248975 27.079752 27.114544 27.079752l416.938947 0c15.066137 0 27.114544-12.233626 27.114544-27.079752C746.981802 920.581606 734.732827 908.545478 719.665667 908.545478zM928.942017 61.297065 95.054913 61.297065c-39.160905 0-70.895677 31.69077-70.895677 70.803579l0 627.013477c1.204431 33.29429 28.721135 59.968813 62.461587 59.968813l850.555739 0c33.740452 0 61.058634-26.675546 62.464657-59.968813l0.200568-116.939339L999.841787 132.100644C999.840764 92.987834 968.108039 61.297065 928.942017 61.297065zM568.638975 751.08833c0 8.626471-7.033184 15.649422-15.668865 15.649422l-82.144882 0c-8.635681 0-15.665795-7.02295-15.665795-15.649422l0-10.828626c0-8.626471 7.030114-15.643282 15.665795-15.643282l82.144882 0c8.635681 0 15.668865 7.016811 15.668865 15.643282L568.638975 751.08833zM941.194062 654.608975c0 6.819313-5.420453 12.440333-12.253068 12.440333L95.054913 667.049309c-6.825452 0-12.453636-5.621021-12.453636-12.440333L82.601276 132.100644c0-6.816243 5.627161-12.437264 12.453636-12.437264l833.685513 0c6.832615 0 12.453636 5.621021 12.453636 12.437264L941.194062 654.608975zM715.450668 372.398522l31.330566 0 1.006933-1.006933c0-9.627265-0.806365-19.457144-2.211365-29.081339L715.450668 372.398522zM643.547035 194.682981l-99.416244 99.286284 0 31.289634 118.500904-118.342292C656.404877 202.302519 649.980561 198.290135 643.547035 194.682981zM599.364767 176.427198l-55.233975 55.160297 0 31.292704 78.33102-78.228689C615.029538 181.241854 607.200222 178.635493 599.364767 176.427198zM544.534997 168.80459l-0.405229 0.401136 0 31.292704 29.5275-29.482475C564.018747 169.610956 554.376133 168.80459 544.534997 168.80459zM621.859084 372.398522l99.818403-99.69356c-3.613294-6.415107-7.628748-12.83533-12.253068-19.056008L590.527494 372.398522 621.859084 372.398522zM695.568852 236.201583c-2.411933-2.606361-4.821819-5.213745-7.43125-7.823176-2.613524-2.606361-5.423523-5.213745-8.234545-7.823176l-135.772266 135.791709 0 15.84692 15.266705 0L695.568852 236.201583zM684.316577 372.398522l55.835679-55.763025c-2.208295-7.823176-5.019317-15.445784-8.033977-23.068392l-78.926584 78.830393L684.316577 372.397498zM508.587274 203.908086c-112.873744 0-204.457602 91.466178-204.457602 204.189496 0 112.727411 91.583858 204.189496 204.457602 204.189496 112.870674 0 204.454532-91.463108 204.454532-204.189496L508.587274 408.097582 508.587274 203.908086z" p-id="6833"></path></svg>