<?xml version="1.0" standalone="no"?><!DOCTYPE svg PUBLIC "-//W3C//DTD SVG 1.1//EN" "http://www.w3.org/Graphics/SVG/1.1/DTD/svg11.dtd"><svg t="1615344693714" class="icon" viewBox="0 0 1024 1024" version="1.1" xmlns="http://www.w3.org/2000/svg" p-id="3486" xmlns:xlink="http://www.w3.org/1999/xlink" width="250" height="250"><defs><style type="text/css"></style></defs><path d="M748.65 713.91a78.95 78.95 0 1 0 79 78.94 79 79 0 0 0-79-78.94z m0 124.69a45.75 45.75 0 1 1 45.75-45.75 45.8 45.8 0 0 1-45.75 45.75z" p-id="3487"></path><path d="M890.39 802.63a6.56 6.56 0 0 1 0.3-13.06 16.6 16.6 0 0 0 15-18.87 159.92 159.92 0 0 0-26.11-67.35 16.6 16.6 0 0 0-23.82-3.8 6.56 6.56 0 0 1-9-9.45 16.6 16.6 0 0 0-2.69-24A153.64 153.64 0 0 0 778 637a16.6 16.6 0 0 0-19.52 14.15c-0.9 6.79-12.47 6.52-13.06-0.3a16.59 16.59 0 0 0-18.87-15 160 160 0 0 0-67.34 26.12 16.6 16.6 0 0 0-3.8 23.82 6.56 6.56 0 0 1-9.48 9 16.59 16.59 0 0 0-24 2.71 159.94 159.94 0 0 0-10.73 16 158.22 158.22 0 0 0-18.41 50.07 16.62 16.62 0 0 0 14.16 19.53 6.56 6.56 0 0 1-0.32 13.06 16.6 16.6 0 0 0-15 18.87 160 160 0 0 0 26.12 67.33 16.6 16.6 0 0 0 23.81 3.81 6.57 6.57 0 0 1 9 9.47 16.61 16.61 0 0 0 2.72 24 162 162 0 0 0 16 10.72 158.59 158.59 0 0 0 50.06 18.41 16.6 16.6 0 0 0 19.53-14.16c0.88-6.79 12.48-6.52 13.06 0.31a16.63 16.63 0 0 0 18.87 15 159.87 159.87 0 0 0 67.33-26.12A16.61 16.61 0 0 0 842 900a6.56 6.56 0 0 1 9.46-9 16.26 16.26 0 0 0 12.54 3.78 16.56 16.56 0 0 0 11.41-6.53 162.62 162.62 0 0 0 10.72-16 158.43 158.43 0 0 0 18.41-50.06 16.59 16.59 0 0 0-14.15-19.53zM868.8 829a122.73 122.73 0 0 1-11.42 26.66l-0.94 1.61A39.45 39.45 0 0 0 819 867.79a39.86 39.86 0 0 0-10.89 35.47 126.82 126.82 0 0 1-28.8 11.19 39.75 39.75 0 0 0-66.75-1.45 122 122 0 0 1-26.67-11.42c-0.54-0.3-1.07-0.62-1.6-0.94a39.75 39.75 0 0 0-46-48.36 127.4 127.4 0 0 1-11.19-28.8 39.74 39.74 0 0 0 1.46-66.72 123.76 123.76 0 0 1 11.43-26.67c0.31-0.54 0.62-1.06 0.93-1.59a39.75 39.75 0 0 0 48.37-46A127.14 127.14 0 0 1 718 671.25a39.75 39.75 0 0 0 66.72 1.46 123 123 0 0 1 26.67 11.42l1.6 0.94a39.75 39.75 0 0 0 46.05 48.36 126.9 126.9 0 0 1 11.18 28.8A39.75 39.75 0 0 0 868.8 829zM705.75 324.48H345.06a20.75 20.75 0 1 0 0 41.5h360.69a20.75 20.75 0 0 0 0-41.5zM705.75 479.25H345.06a20.75 20.75 0 1 0 0 41.5h360.69a20.75 20.75 0 0 0 0-41.5zM606.85 654.75A20.75 20.75 0 0 0 586.1 634h-241a20.75 20.75 0 1 0 0 41.5h241a20.75 20.75 0 0 0 20.75-20.75z" p-id="3488"></path><path d="M547 912.68H233.52a19.44 19.44 0 0 1-19.4-19.42V126.18a19.42 19.42 0 0 1 19.4-19.4h583.77a19.43 19.43 0 0 1 19.41 19.4v470.38a20.75 20.75 0 0 0 41.5 0V126.18a61 61 0 0 0-60.91-60.9H233.52a61 61 0 0 0-60.91 60.9v767.08a61 61 0 0 0 60.91 60.92H547a20.75 20.75 0 0 0 0-41.5z" p-id="3489"></path></svg>