<?xml version="1.0" standalone="no"?><!DOCTYPE svg PUBLIC "-//W3C//DTD SVG 1.1//EN" "http://www.w3.org/Graphics/SVG/1.1/DTD/svg11.dtd"><svg t="1566542458881" class="icon" viewBox="0 0 1024 1024" version="1.1" xmlns="http://www.w3.org/2000/svg" p-id="1148" xmlns:xlink="http://www.w3.org/1999/xlink" width="200" height="200"><defs><style type="text/css"></style></defs><path d="M85.333333 85.333333v853.333334a85.333333 85.333333 0 0 0 85.333334 85.333333h714.666666a53.333333 53.333333 0 0 0 0-106.666667H234.666667a42.666667 42.666667 0 0 1 0-85.333333h618.666666a85.333333 85.333333 0 0 0 85.333334-85.333333V85.333333a85.333333 85.333333 0 0 0-85.333334-85.333333H554.666667v384a21.333333 21.333333 0 0 1-6.186667 15.36 21.333333 21.333333 0 0 1-30.293333 0C512 393.386667 426.666667 321.92 426.666667 321.92s-85.333333 71.466667-91.52 77.226667a21.333333 21.333333 0 0 1-30.293334 0A21.333333 21.333333 0 0 1 298.666667 384V0H170.666667a85.333333 85.333333 0 0 0-85.333334 85.333333z" p-id="1149"></path></svg>