<?xml version="1.0" standalone="no"?><!DOCTYPE svg PUBLIC "-//W3C//DTD SVG 1.1//EN" "http://www.w3.org/Graphics/SVG/1.1/DTD/svg11.dtd"><svg t="1739964923490" class="icon" viewBox="0 0 1029 1024" version="1.1" xmlns="http://www.w3.org/2000/svg" p-id="1426" xmlns:xlink="http://www.w3.org/1999/xlink" width="200.9765625" height="200"><path d="M228.826816 400.446927h114.413407v114.413408H228.826816zM228.826816 629.273743h114.413407v114.413408H228.826816zM457.653631 629.273743h114.413408v114.413408H457.653631zM457.653631 400.446927h114.413408v114.413408H457.653631zM686.480447 400.446927h114.413408v114.413408h-114.413408z" fill="#1768E4" p-id="1427"></path><path d="M457.653631 972.513966H57.206704a57.206704 57.206704 0 0 1-57.206704-57.206703V343.240223a57.206704 57.206704 0 0 1 26.887151-45.765363l457.653631-286.033519a57.206704 57.206704 0 0 1 61.211173 0l457.653632 286.033519A57.206704 57.206704 0 0 1 1029.72067 343.240223v171.620112h-114.413407V377.564246L514.860335 124.710615 114.413408 377.564246V858.100559h343.240223z" fill="#1768E4" p-id="1428"></path><path d="M736.250279 1024a57.206704 57.206704 0 0 1-37.756424-14.301676l-149.309497-131.575419 75.512849-85.810056 106.404469 93.818995 208.804469-236.835755 85.810056 75.51285-246.560894 279.740782a57.206704 57.206704 0 0 1-42.905028 19.450279z" fill="#8BB3F1" p-id="1429"></path></svg>