<?xml version="1.0" standalone="no"?><!DOCTYPE svg PUBLIC "-//W3C//DTD SVG 1.1//EN" "http://www.w3.org/Graphics/SVG/1.1/DTD/svg11.dtd"><svg t="1615341596111" class="icon" viewBox="0 0 1024 1024" version="1.1" xmlns="http://www.w3.org/2000/svg" p-id="8245" xmlns:xlink="http://www.w3.org/1999/xlink" width="250" height="250"><defs><style type="text/css"></style></defs><path d="M672 128 640 128 256 128C217.6 128 192 153.6 192 192l0 640c0 38.4 25.6 64 64 64l512 0c38.4 0 64-25.6 64-64L832 320 832 288 672 128zM800 819.2c0 25.6-19.2 51.2-51.2 51.2L268.8 870.4c-25.6 0-44.8-19.2-44.8-51.2L224 204.8c0-25.6 19.2-51.2 44.8-51.2L640 153.6 640 256c0 38.4 25.6 64 64 64l96 0L800 819.2zM716.8 288c-25.6 0-51.2-19.2-51.2-51.2L665.6 160l128 128L716.8 288z" p-id="8246"></path><path d="M684.8 460.8 339.2 460.8C332.8 460.8 320 454.4 320 448l0 0c0-12.8 6.4-19.2 19.2-19.2l345.6 0c12.8 0 19.2 6.4 19.2 19.2l0 0C697.6 454.4 691.2 460.8 684.8 460.8z" p-id="8247"></path><path d="M505.6 595.2 339.2 595.2C326.4 595.2 320 582.4 320 576l0 0c0-12.8 6.4-19.2 19.2-19.2l166.4 0C512 556.8 518.4 563.2 518.4 576l0 0C518.4 582.4 512 595.2 505.6 595.2z" p-id="8248"></path><path d="M505.6 729.6 339.2 729.6c-12.8 0-19.2-6.4-19.2-19.2l0 0c0-12.8 6.4-19.2 19.2-19.2l166.4 0c12.8 0 19.2 6.4 19.2 19.2l0 0C518.4 723.2 512 729.6 505.6 729.6z" p-id="8249"></path><path d="M710.4 620.8c0-38.4-32-64-64-64-38.4 0-64 32-64 64 0 19.2 6.4 32 19.2 44.8l0 64c0 6.4 6.4 12.8 12.8 6.4l32-38.4 32 38.4c6.4 6.4 12.8 0 12.8-6.4l0-64C697.6 659.2 710.4 640 710.4 620.8z" p-id="8250"></path></svg>