<?xml version="1.0" standalone="no"?><!DOCTYPE svg PUBLIC "-//W3C//DTD SVG 1.1//EN" "http://www.w3.org/Graphics/SVG/1.1/DTD/svg11.dtd"><svg t="1703755382218" class="icon" viewBox="0 0 1024 1024" version="1.1" xmlns="http://www.w3.org/2000/svg" p-id="10984" xmlns:xlink="http://www.w3.org/1999/xlink" width="250" height="250"><path d="M932.44416 544.47616V483.9936l-39.5264 49.2544 39.5264 11.23328z m0-403.0976l-413.9264-42.5472v180.18816l192.62976 39.52128a20.1728 20.1728 0 0 1 16.12288 19.75296v18.80576l205.17376 55.50592V141.37856zM494.2848 315.22304a20.1728 20.1728 0 0 1-16.11776-19.75296v-218.9824a20.1728 20.1728 0 0 1 22.24128-20.06016l454.28224 46.6944A20.1728 20.1728 0 0 1 972.8 123.1872v448c0 13.38368-12.81536 23.05536-25.69728 19.38944l-94.464-26.84928c-13.88544-3.9424-19.2512-20.7616-10.22464-32.01024l67.0464-83.54304-207.6416-56.17152a20.16768 20.16768 0 0 1-14.90432-19.46624v-17.792l-192.63488-39.51616z m232.99072 281.11872c0 13.75232-13.47584 23.47008-26.53696 19.13856l-94.53056-31.36v164.8128c0 14.53056-14.90944 24.28928-28.2368 18.4832L273.23392 634.7264a20.16256 20.16256 0 0 1-12.11904-18.4832v-41.68704l-153.25184 123.74016 423.2192 223.5904 379.8528-474.33728-183.66464-49.19296v197.9904z m-40.35584-224.26624c0-13.2608 12.58496-22.912 25.40032-19.47648l238.88896 63.98464c14.05952 3.7632 19.62496 20.72064 10.53184 32.0768l-409.57952 511.45216a20.18816 20.18816 0 0 1-25.18016 5.22752l-465.02912-245.6832c-12.8-6.76864-14.5152-24.41728-3.24608-33.51552l209.90976-169.48736c13.19424-10.6496 32.86016-1.26976 32.86016 15.68768v70.69184l264.37632 115.11808v-161.9712c0-13.75232 13.47584-23.47008 26.53696-19.13856l94.53056 31.36V372.0704z m-121.06752 346.07616V494.41792l-264.37632-71.3216v179.93728l264.37632 115.11808zM261.12 616.2432V396.76928c0-13.27616 12.61056-22.92736 25.43616-19.46624l304.73216 82.2016a20.16768 20.16768 0 0 1 14.91968 19.46624v269.96224c0 14.53056-14.90944 24.28928-28.2368 18.4832L273.23392 634.7264a20.16256 20.16256 0 0 1-12.11904-18.4832z m330.16832-156.73856a20.16768 20.16768 0 0 1 14.91968 19.46624v62.65344l80.71168 26.7776V354.7392L422.53312 300.50304v113.47968l168.7552 45.5168zM397.1072 448.896a20.16768 20.16768 0 0 1-14.91968-19.46624v-153.6512a20.1728 20.1728 0 0 1 24.23296-19.75296l304.73216 62.5152a20.1728 20.1728 0 0 1 16.12288 19.75296v258.048c0 13.75232-13.47584 23.47008-26.53696 19.13856l-121.0624-40.16128a20.16768 20.16768 0 0 1-13.824-19.13856V494.41792L397.1072 448.896z" p-id="10985"></path></svg>
