<?xml version="1.0" standalone="no"?><!DOCTYPE svg PUBLIC "-//W3C//DTD SVG 1.1//EN" "http://www.w3.org/Graphics/SVG/1.1/DTD/svg11.dtd"><svg t="1586417728138" class="icon" viewBox="0 0 1024 1024" version="1.1" xmlns="http://www.w3.org/2000/svg" p-id="1772" xmlns:xlink="http://www.w3.org/1999/xlink" width="200" height="200"><defs><style type="text/css"></style></defs><path d="M756.03472725 286.11983929m-167.91309539 0a167.91309539 167.91309539 0 1 0 335.82619079 0 167.91309539 167.91309539 0 1 0-335.82619079 0Z" fill="#2c2c2c" p-id="1773"></path><path d="M756.03472725 741.53363342m-167.91309539 0a167.91309539 167.91309539 0 1 0 335.82619079 0 167.91309539 167.91309539 0 1 0-335.82619079 0Z" fill="#2c2c2c" p-id="1774"></path><path d="M267.03803733 336.08385991c-91.37697451 0-165.45530425 74.07832974-165.45530424 165.45530425s74.07832974 165.45530425 165.45530424 165.45530425 165.45530425-74.07832974 165.45530425-165.45530425-74.07694621-165.45530425-165.45530425-165.45530425z m0 258.83338524c-51.56933405 0-93.37669746-41.80597987-93.37669746-93.37669745s41.80597987-93.37669746 93.37669746-93.37669746 93.37669746 41.80597987 93.37669746 93.37669746-41.80597987 93.37669746-93.37669746 93.37669745z" fill="#2c2c2c" p-id="1775"></path><path d="M652.99154717 325.31026375L387.89605262 478.77968327l-33.64932267-58.12344377 265.09549455-153.46941952zM633.81219442 739.29311346L366.84983069 589.10213347l32.9296987-58.53169322 266.96236487 150.19098112z" fill="#2c2c2c" p-id="1776"></path></svg>