<?xml version="1.0" standalone="no"?><!DOCTYPE svg PUBLIC "-//W3C//DTD SVG 1.1//EN" "http://www.w3.org/Graphics/SVG/1.1/DTD/svg11.dtd"><svg t="1566542578427" class="icon" viewBox="0 0 1024 1024" version="1.1" xmlns="http://www.w3.org/2000/svg" p-id="4050" xmlns:xlink="http://www.w3.org/1999/xlink" width="200" height="200"><defs><style type="text/css"></style></defs><path d="M0 938.666667a85.333333 85.333333 0 0 0 85.333333 85.333333h853.333334a85.333333 85.333333 0 0 0 85.333333-85.333333V85.333333a85.333333 85.333333 0 0 0-85.333333-85.333333H85.333333a85.333333 85.333333 0 0 0-85.333333 85.333333z m832-181.333334a53.333333 53.333333 0 0 1-106.666667 0A437.333333 437.333333 0 0 0 288 320a53.333333 53.333333 0 0 1 0-106.666667 530.986667 530.986667 0 0 1 390.186667 156.586667C782.72 474.453333 832 604.16 832 757.333333z m-192 0a53.333333 53.333333 0 0 1-106.666667 0A245.333333 245.333333 0 0 0 288 512a53.333333 53.333333 0 0 1 0-106.666667A352 352 0 0 1 640 757.333333z m-405.333333-42.666666a96 96 0 1 1 96 96 95.786667 95.786667 0 0 1-96-96z" p-id="4051"></path></svg>